<?xml version="1.0" standalone="no"?>
<!DOCTYPE svg PUBLIC "-//W3C//DTD SVG 20010904//EN"
 "http://www.w3.org/TR/2001/REC-SVG-20010904/DTD/svg10.dtd">
<svg version="1.0" xmlns="http://www.w3.org/2000/svg"
 width="299.000000pt" height="168.000000pt" viewBox="0 0 299.000000 168.000000"
 preserveAspectRatio="xMidYMid meet">
<metadata>
Created by potrace 1.16, written by Peter Selinger 2001-2019
</metadata>
<g transform="translate(0.000000,168.000000) scale(0.100000,-0.100000)"
fill="#000000" stroke="none">
<path d="M938 765 c-3 -4 -165 -6 -359 -5 -194 0 -351 -2 -348 -5 3 -2 155 -5
337 -5 183 -1 332 -3 332 -5 0 -2 -3 -10 -6 -19 -5 -14 -30 -16 -171 -16 -161
0 -164 0 -188 -25 -23 -22 -25 -31 -23 -112 l2 -88 5 87 c9 130 5 128 201 128
160 0 160 0 160 -23 0 -30 25 -64 60 -82 22 -11 66 -15 185 -15 l155 0 0 -78
c0 -105 -6 -111 -104 -114 -72 -3 -80 -5 -94 -28 l-16 -25 23 23 c18 19 32 22
94 22 40 0 79 5 87 10 11 7 16 33 18 99 l4 90 56 4 c32 2 -41 4 -161 5 -172 2
-224 5 -247 17 -59 30 -67 91 -19 136 17 16 29 29 27 29 -3 0 -7 -2 -10 -5z"/>
</g>
</svg>
