<?xml version="1.0" standalone="no"?>
<!DOCTYPE svg PUBLIC "-//W3C//DTD SVG 20010904//EN"
 "http://www.w3.org/TR/2001/REC-SVG-20010904/DTD/svg10.dtd">
<svg version="1.0" xmlns="http://www.w3.org/2000/svg"
 width="1024.000000pt" height="768.000000pt" viewBox="0 0 1024.000000 768.000000"
 preserveAspectRatio="xMidYMid meet">
<metadata>
Created by potrace 1.16, written by Peter Selinger 2001-2019
</metadata>
<g transform="translate(0.000000,768.000000) scale(0.100000,-0.100000)"
fill="#000000" stroke="none">
<path d="M3 7322 c2 -196 12 -460 20 -587 9 -126 21 -327 27 -445 6 -118 13
-233 15 -255 5 -41 4 -40 -24 28 -10 22 -10 8 4 -188 2 -38 5 -78 5 -87 0 -10
4 -18 9 -18 5 0 12 8 14 18 3 9 5 -5 4 -33 0 -27 -2 -38 -4 -22 -6 38 -25 34
-21 -5 2 -19 8 -32 15 -31 7 2 15 -12 17 -30 8 -43 48 -639 71 -1052 3 -55 12
-188 20 -295 8 -107 19 -283 25 -390 6 -107 17 -294 25 -415 8 -121 17 -267
20 -325 3 -58 8 -141 11 -184 6 -70 5 -78 -10 -73 -9 4 -16 2 -16 -3 0 -6 7
-10 15 -10 8 0 15 -6 15 -13 0 -10 -11 -12 -42 -8 -38 5 -43 9 -46 33 -3 22 2
29 23 34 18 4 23 10 16 17 -7 7 -15 6 -26 -3 -13 -11 -15 -7 -16 26 0 22 -2
57 -4 79 -1 22 -8 103 -14 180 -10 126 -14 213 -26 485 -8 177 -15 264 -31
391 -8 73 -13 140 -11 151 3 10 1 33 -3 51 -5 17 -11 106 -14 197 -3 91 -8
173 -11 182 -4 9 -5 49 -3 87 1 39 0 71 -3 71 -4 0 -10 66 -13 148 -4 81 -9
173 -11 205 -3 35 -1 57 6 57 6 0 8 -3 6 -7 -3 -5 -1 -17 4 -28 5 -14 8 -1 8
40 0 55 -1 58 -14 41 -11 -14 -15 -16 -15 -5 -1 56 -13 245 -16 248 -2 2 -4
-171 -4 -386 0 -393 10 -603 61 -1308 12 -171 22 -428 24 -624 3 -184 7 -342
10 -352 4 -11 2 -19 -4 -19 -6 0 -12 6 -12 13 -1 6 -2 17 -4 22 -1 6 -3 26 -3
46 -1 20 -11 45 -22 57 -21 23 -26 52 -10 68 5 5 6 24 0 48 -5 22 -7 43 -4 47
2 4 -2 9 -8 12 -10 3 -10 8 2 23 8 10 10 15 5 11 -6 -6 -14 13 -21 50 -10 48
-12 2 -13 -282 -1 -296 3 -387 29 -705 16 -201 30 -366 30 -367 0 -2 -13 -3
-30 -3 -17 0 -30 -4 -30 -10 0 -14 63 -12 83 2 15 12 15 36 -8 343 -20 277
-39 560 -40 600 0 5 21 11 46 13 l46 3 12 -203 c16 -273 40 -642 46 -700 l4
-48 -34 0 c-19 0 -35 -4 -35 -10 0 -15 63 -12 104 5 34 14 53 34 21 21 -11 -4
-15 2 -15 22 0 15 -5 88 -10 162 -5 74 -14 216 -20 315 -6 99 -13 216 -15 260
-3 44 -8 104 -11 134 -5 48 -4 53 11 47 9 -3 32 -6 51 -6 l34 0 0 -62 c0 -35
11 -243 25 -463 14 -220 25 -406 25 -412 0 -8 -12 -13 -29 -13 -17 0 -33 -5
-36 -10 -9 -14 68 -13 99 1 20 10 23 15 16 39 -5 16 -6 30 -4 32 2 3 0 63 -6
134 -9 128 -16 233 -25 401 -10 186 -17 320 -20 356 -1 20 2 40 6 43 5 3 9 -6
9 -20 0 -23 4 -26 39 -26 l38 0 7 -117 c3 -65 13 -239 21 -388 8 -148 18 -309
21 -357 l7 -88 -31 0 c-17 0 -34 -5 -37 -10 -9 -15 63 -12 110 4 22 8 124 58
227 110 143 73 196 96 226 96 38 0 40 2 46 38 11 69 13 67 -65 68 l-71 1 4
-56 c3 -55 3 -55 -27 -57 l-30 -1 2 155 c2 97 -1 160 -8 168 -33 40 73 89 178
82 l57 -3 12 85 c7 47 13 88 14 93 0 4 -36 7 -80 7 -44 0 -80 -3 -80 -7 1 -16
30 -46 37 -38 5 4 2 10 -4 12 -18 6 -16 23 2 23 9 0 15 -10 16 -22 1 -13 2
-45 3 -73 0 -27 6 -53 11 -57 6 -4 -6 -8 -26 -8 l-35 0 -12 118 c-11 106 -17
241 -13 299 1 26 25 32 141 36 l74 2 13 80 c8 44 16 95 19 113 7 44 31 52 160
52 l104 0 2 -102 c1 -57 2 -111 1 -120 0 -15 10 -18 57 -18 l57 0 7 73 c12
128 17 148 41 157 12 5 64 10 114 11 50 2 91 6 91 11 0 4 -6 8 -14 8 -16 0
-22 61 -31 290 -3 80 -10 213 -15 295 -6 83 -17 294 -25 470 -8 176 -19 408
-25 515 -5 107 -14 283 -20 390 -6 107 -19 359 -30 560 -35 630 -60 1133 -60
1187 0 46 2 51 20 48 11 -2 20 0 20 6 0 5 -9 9 -19 9 -11 0 -22 8 -25 18 -7
25 -19 388 -13 382 3 -3 7 -27 8 -53 2 -41 7 -50 33 -67 17 -11 24 -20 16 -20
-11 0 -11 -3 -2 -12 7 -7 12 -19 12 -27 0 -10 -6 -7 -17 9 -10 14 -18 28 -18
32 0 3 -3 10 -7 14 -5 4 -8 -13 -8 -37 0 -31 3 -40 10 -29 5 8 12 11 16 7 4
-4 0 -15 -9 -25 -20 -22 -21 -34 -6 -86 8 -29 13 -36 20 -25 12 19 11 32 -1
24 -6 -3 -10 0 -10 9 0 8 6 17 13 20 8 3 6 10 -8 22 -16 13 -16 15 -3 11 12
-4 15 -2 12 7 -3 8 -1 17 5 21 6 3 11 -1 11 -9 0 -9 4 -16 9 -16 6 0 8 23 6
53 -2 28 -4 62 -5 74 0 14 -7 23 -22 25 -12 2 -24 9 -26 17 -3 10 0 12 12 8 9
-4 16 -1 17 6 0 7 3 33 5 60 4 38 2 47 -10 47 -9 0 -16 4 -16 10 0 5 7 7 15 4
11 -5 15 1 15 17 0 19 -2 21 -10 9 -6 -10 -10 -11 -10 -2 0 22 2 27 11 25 5
-2 9 7 10 20 3 59 17 -62 23 -193 11 -235 52 -1030 86 -1640 5 -96 12 -227 15
-290 3 -63 10 -203 15 -310 5 -107 21 -431 35 -720 13 -289 29 -613 35 -720
18 -348 23 -576 11 -560 -6 8 -11 24 -11 35 0 46 -20 -6 -31 -80 -6 -44 -13
-83 -15 -87 -3 -4 30 -8 73 -10 l78 -3 3 -57 c2 -32 7 -58 12 -58 6 0 10 -7
10 -16 0 -8 -4 -13 -8 -10 -5 3 -6 -22 -4 -55 3 -41 1 -59 -7 -59 -7 0 -10 -4
-7 -8 3 -5 6 -53 7 -108 1 -54 6 -109 10 -121 5 -13 5 -23 0 -23 -14 0 -21 55
-21 155 l0 93 -87 -5 c-49 -3 -90 -7 -92 -10 -3 -2 -10 -44 -16 -94 l-11 -90
70 3 c48 2 71 7 74 17 3 8 0 11 -6 7 -6 -3 -14 -1 -18 6 -4 7 -4 10 1 6 4 -4
14 -3 22 4 11 9 13 5 13 -18 -1 -16 1 -93 5 -171 5 -137 5 -142 -16 -148 -11
-4 -23 -5 -26 -2 -2 3 5 8 16 12 12 3 21 11 21 16 0 6 -7 6 -19 -1 -11 -5 -33
-10 -50 -10 -25 0 -30 -5 -34 -27 l-4 -28 -2 27 c-1 25 -4 27 -41 25 -38 -1
-40 -3 -46 -37 -3 -19 -7 -44 -9 -55 -4 -18 1 -20 58 -19 34 0 147 1 251 2
l189 2 -39 43 c-53 56 -120 188 -140 273 -20 84 -22 256 -4 339 16 78 79 209
126 264 48 56 145 127 183 136 16 3 36 14 43 23 7 9 8 13 3 10 -12 -7 -46 572
-51 857 -1 83 -5 157 -8 165 -5 17 -6 30 -46 970 -26 613 -36 834 -55 1210 -2
52 -9 203 -15 335 -6 132 -15 329 -20 437 -6 109 -10 240 -10 292 0 51 -3 114
-6 140 l-7 46 -248 0 -248 0 -4 -42 -4 -43 -1 43 -2 42 -370 0 -370 0 0 -40
c0 -22 -3 -40 -8 -40 -4 0 -6 18 -4 40 4 40 4 40 -31 40 -33 0 -36 -3 -40 -32
l-4 -33 -1 33 -2 32 -386 0 -386 -1 5 -357z m48 238 c5 0 9 -12 10 -27 l1 -28
7 25 c5 14 4 29 -1 35 -4 5 -8 20 -7 35 0 14 3 19 6 13 2 -7 12 -13 20 -13 12
0 14 -8 10 -35 -6 -35 8 -60 16 -28 3 14 4 14 3 -2 -1 -11 -6 -20 -13 -20 -23
0 -28 -17 -9 -31 11 -8 14 -14 8 -14 -14 0 -16 -77 -2 -135 6 -25 5 -44 0 -49
-13 -13 -13 -56 0 -56 9 0 17 22 21 60 1 8 -1 22 -5 31 -4 9 -2 32 3 50 l11
34 -3 -32 c-2 -18 0 -34 4 -35 4 -2 28 -363 53 -803 26 -440 56 -930 66 -1090
18 -268 93 -1481 105 -1710 3 -55 8 -125 10 -155 3 -30 12 -176 20 -325 9
-148 18 -291 21 -317 l7 -48 -32 0 c-28 0 -32 3 -30 23 2 12 -2 32 -9 44 -7
12 -12 33 -12 48 0 14 -7 28 -16 32 -11 4 -15 18 -14 52 1 25 1 48 0 51 -5 15
-12 132 -35 549 -3 47 -7 99 -10 115 -2 17 -7 85 -10 151 -3 66 -12 208 -20
315 -8 107 -17 251 -20 320 -2 69 -9 177 -14 240 -6 63 -17 259 -26 435 -17
362 -50 930 -65 1140 -15 214 -59 1014 -65 1190 -1 40 -1 44 2 13 2 -27 8 -48
14 -48z m1113 -87 c15 -303 39 -722 86 -1538 64 -1114 76 -1322 85 -1510 3
-66 8 -160 11 -210 43 -787 50 -979 36 -960 -4 6 -16 17 -27 25 -20 15 -20 15
0 -8 l20 -24 -35 4 -35 3 -6 95 c-4 52 -9 151 -13 220 -4 69 -13 240 -21 380
-8 140 -22 379 -30 530 -8 151 -22 392 -30 535 -8 143 -17 310 -20 370 -3 61
-8 142 -10 180 -3 39 -12 198 -20 355 -8 157 -26 481 -39 720 -37 652 -41 740
-28 740 7 0 9 -11 6 -30 -4 -19 -2 -30 5 -30 6 0 11 -12 11 -27 0 -16 4 -35 9
-42 7 -10 8 0 5 30 -3 34 -2 38 5 19 9 -24 9 -24 10 -2 1 12 6 22 12 22 7 0 8
14 3 43 -9 51 -11 247 -3 241 3 -2 9 -61 13 -131z m-294 -78 c6 -105 20 -363
31 -575 16 -322 64 -1113 109 -1820 5 -91 19 -327 30 -525 31 -563 40 -728 50
-905 24 -414 24 -484 5 -513 -11 -17 -13 -27 -6 -27 7 0 9 -4 6 -10 -3 -6 -19
-10 -34 -10 -28 0 -28 1 -30 63 -1 34 -3 76 -6 92 -5 32 -19 233 -35 510 -12
209 -28 453 -35 520 -2 28 -12 181 -20 340 -9 160 -17 297 -20 305 -2 8 -6 85
-10 170 -3 85 -10 218 -15 295 -6 77 -15 230 -20 340 -22 438 -31 603 -49 900
-18 295 -24 506 -14 458 2 -13 9 -23 14 -23 10 0 7 69 -4 87 -4 6 -3 14 2 17
5 4 10 59 9 124 0 187 1 204 12 197 6 -4 10 12 10 41 0 33 -5 51 -17 60 -11 8
-13 13 -5 14 6 0 12 9 12 19 0 21 11 54 16 49 1 -2 8 -89 14 -193z m-571 -375
c6 -107 18 -321 26 -475 16 -293 48 -804 65 -1035 6 -74 17 -247 25 -385 8
-137 23 -394 34 -570 11 -176 23 -374 26 -440 3 -66 10 -183 15 -260 13 -189
27 -430 40 -665 6 -107 13 -219 16 -247 l6 -53 -45 0 c-25 0 -47 -5 -49 -10
-1 -6 -2 33 -2 86 1 54 -2 90 -7 82 -5 -7 -8 18 -8 62 0 41 -2 84 -5 95 -2 11
-7 81 -10 155 -4 74 -11 194 -16 265 -5 72 -12 177 -15 235 -3 58 -8 123 -10
145 -3 37 -11 148 -50 755 -16 256 -32 530 -40 735 -7 153 -21 410 -59 1070
-14 237 -28 482 -31 545 -3 63 -8 150 -11 193 -4 53 -3 77 5 77 7 0 11 -39 11
-120 0 -113 1 -120 20 -120 15 0 20 7 20 29 0 16 -4 31 -9 33 -5 2 -5 24 -1
53 5 28 9 72 9 98 1 29 5 46 11 42 6 -3 11 0 11 7 3 20 16 -166 28 -382z m207
269 c6 -73 14 -91 14 -33 0 28 3 35 10 24 5 -8 14 -16 20 -16 5 -1 14 -2 20
-3 5 0 9 -34 8 -73 0 -40 2 -80 5 -88 3 -8 10 -123 17 -255 6 -132 17 -328 25
-435 8 -107 26 -384 40 -615 14 -231 30 -485 35 -565 14 -219 67 -1144 75
-1310 3 -58 10 -163 15 -235 5 -71 14 -236 20 -365 6 -129 12 -247 14 -262 1
-15 -1 -25 -6 -22 -4 3 -8 -2 -8 -10 0 -9 -5 -16 -10 -16 -9 0 -7 27 6 68 2 7
-1 10 -6 7 -6 -3 -10 3 -10 14 0 13 -7 21 -16 21 -10 0 -14 6 -10 15 4 10 -1
15 -14 15 -28 0 -25 28 3 32 17 2 22 9 21 33 -1 19 1 22 3 8 9 -48 22 -20 16
35 -21 219 -20 212 -22 152 -2 -47 -4 -52 -12 -30 -6 14 -9 40 -7 58 2 23 -3
38 -15 47 -12 8 -19 29 -21 61 -2 27 -4 49 -6 49 -6 0 -17 127 -25 290 -3 61
-8 137 -11 170 -3 33 -7 90 -9 126 -2 37 -6 82 -9 100 -13 76 -21 289 -11 293
6 3 5 8 -2 13 -8 6 -12 36 -12 83 0 41 -4 118 -9 170 -6 52 -13 149 -16 215
-20 370 -25 471 -26 579 -1 66 -3 122 -4 125 -2 3 -6 83 -10 176 -3 94 -11
222 -16 285 -20 244 -31 434 -50 850 -11 250 -12 295 -4 288 3 -4 8 -35 10
-69z m-142 -92 c-4 -24 -1 -43 8 -54 10 -13 10 -17 1 -20 -7 -3 -13 -13 -13
-24 0 -19 0 -19 20 1 11 11 22 31 26 45 13 53 31 34 33 -35 0 -26 27 -481 36
-625 3 -44 12 -188 21 -320 8 -132 28 -449 44 -704 17 -255 37 -575 45 -710 8
-135 21 -356 29 -491 9 -135 27 -447 40 -695 14 -247 28 -501 32 -562 6 -109
6 -113 -14 -113 -16 0 -21 8 -24 43 -3 23 -1 49 3 57 6 10 9 -1 10 -30 1 -25
3 -37 6 -26 3 10 2 39 -2 65 -6 37 -9 42 -16 26 l-8 -20 -2 20 c-1 11 -2 35
-2 53 0 18 -2 30 -6 26 -10 -10 -7 -148 4 -156 6 -5 5 -8 -2 -8 -7 0 -13 -9
-13 -20 0 -11 6 -20 13 -21 6 0 3 -4 -8 -9 -19 -8 -18 -9 5 -11 14 -1 34 -3
45 -3 19 -1 21 -14 36 -296 9 -162 19 -347 24 -411 l7 -116 -42 -22 c-23 -12
-44 -21 -45 -19 -4 4 -24 303 -30 453 -3 72 -10 189 -15 260 -5 72 -12 195
-16 275 -3 80 -8 148 -10 151 -2 4 -6 76 -9 160 -4 85 -8 170 -11 189 -2 19
-6 89 -9 155 -3 66 -8 131 -11 144 -3 13 -7 89 -9 168 -3 79 -7 148 -10 153
-8 13 -35 391 -34 486 0 49 -4 132 -10 184 -9 88 -13 137 -26 400 -3 52 -7
120 -10 150 -3 30 -10 172 -15 315 -6 143 -24 469 -40 725 -17 256 -33 548
-36 650 -3 102 -8 201 -10 220 l-5 35 15 -25 c11 -17 14 -37 10 -63z m1001
-714 c20 -359 35 -665 35 -680 0 -15 7 -127 15 -248 12 -191 41 -731 100
-1860 18 -341 19 -426 5 -405 -5 8 -10 44 -10 80 0 36 -5 72 -11 80 -9 13 -10
12 -5 -2 3 -10 1 -18 -4 -18 -6 0 -11 21 -12 48 l-1 47 -7 -45 c-7 -42 -7 -43
-9 -10 0 19 -4 53 -8 75 -5 29 -8 34 -13 20 -3 -10 -12 87 -19 216 -7 129 -19
349 -27 489 -26 460 -65 1162 -74 1340 -5 96 -19 342 -30 545 -12 204 -20 408
-17 455 3 49 2 72 -3 55 -6 -23 -8 -15 -9 37 -1 58 1 67 19 73 22 7 26 20 10
30 -14 9 -12 27 3 23 14 -5 14 -6 17 -85 1 -52 3 -55 11 -28 5 17 7 143 5 280
-4 299 -5 307 39 -512z m-405 532 c1 -44 4 -72 7 -62 2 9 13 17 24 17 24 0 26
-30 2 -30 -17 -1 -17 -1 0 -14 24 -18 21 -51 -5 -68 -19 -13 -21 -19 -12 -39
5 -13 10 -52 10 -86 -1 -47 3 -63 13 -63 7 0 11 -6 8 -13 -3 -8 -1 -20 4 -28
14 -23 11 28 -3 52 -11 18 -10 23 10 36 24 17 30 36 8 27 -8 -3 -17 -1 -21 5
-3 6 0 14 9 17 8 3 17 12 20 21 4 11 2 13 -9 9 -8 -3 -19 2 -24 12 -11 20 -4
37 19 44 11 3 14 22 11 94 -1 49 -5 93 -8 99 -4 7 -2 7 5 0 14 -14 24 -215 10
-212 -6 1 -13 -4 -16 -12 -3 -10 0 -12 11 -8 18 7 16 21 47 -528 21 -369 50
-865 60 -1025 5 -91 14 -250 20 -355 5 -104 12 -230 15 -280 18 -307 46 -821
55 -1000 5 -115 12 -247 15 -292 4 -77 3 -83 -15 -83 -11 0 -20 3 -21 8 0 4
-2 17 -5 29 -2 12 1 25 6 28 6 3 10 13 10 21 0 9 -5 12 -12 8 -8 -5 -10 4 -6
32 3 21 2 48 -2 59 -5 11 -8 -23 -7 -78 2 -74 -1 -96 -10 -92 -7 2 -13 -3 -13
-12 0 -9 -2 -14 -5 -11 -3 3 -10 92 -15 199 -6 107 -12 214 -15 239 -3 25 -9
131 -15 235 -6 105 -15 262 -20 350 -22 359 -50 827 -55 935 -3 63 -10 194
-15 290 -5 96 -12 234 -15 305 -3 72 -13 236 -21 365 -36 586 -60 1123 -44
1000 4 -36 9 -101 10 -145z m908 43 c-1 -35 3 -72 9 -83 6 -11 9 -34 6 -50 -4
-21 -2 -27 5 -20 6 6 12 21 15 35 3 16 5 10 6 -17 2 -75 16 -46 18 37 l2 80
-27 -5 c-26 -5 -26 -5 -4 6 12 7 22 16 22 21 0 4 4 8 8 8 5 0 12 -57 15 -127
4 -71 14 -249 22 -398 8 -148 24 -470 35 -715 11 -245 27 -582 35 -750 8 -168
22 -474 30 -680 8 -206 19 -472 25 -590 5 -118 12 -280 15 -360 3 -80 8 -192
11 -250 3 -58 2 -101 -2 -97 -5 4 -7 23 -6 42 2 18 -2 36 -7 40 -6 3 -9 11 -5
16 10 16 -7 150 -18 143 -16 -10 -30 -56 -30 -99 0 -39 -1 -39 -9 -10 -5 17
-7 35 -5 42 3 6 2 13 -3 15 -4 2 -15 183 -25 403 -9 220 -24 544 -31 720 -8
176 -21 480 -30 675 -8 195 -17 400 -20 455 -3 55 -12 222 -20 370 -55 1016
-62 1205 -45 1205 6 0 9 -26 8 -62z m247 -528 c9 -190 15 -363 13 -385 -3 -28
-5 -21 -6 26 -1 36 -5 68 -8 71 -5 6 -16 193 -14 255 0 27 -3 32 -17 27 -17
-5 -17 -5 0 9 18 15 25 53 7 42 -6 -4 -8 7 -5 27 4 24 3 27 -3 14 -8 -19 -9
-19 -14 2 -4 14 -2 22 6 22 8 0 12 18 11 50 0 41 -3 50 -17 50 -10 0 -18 5
-18 10 0 6 7 10 15 10 8 0 15 8 14 18 -1 23 -17 70 -18 55 -2 -21 -21 -14 -21
7 0 11 6 20 14 20 22 0 27 27 5 33 -10 3 -19 10 -19 17 0 7 8 9 21 5 20 -7 20
-4 16 62 -2 37 -2 84 2 103 6 39 11 -25 36 -550z m-325 415 c0 -30 7 -169 15
-308 14 -247 26 -463 45 -822 17 -313 49 -991 60 -1240 5 -132 12 -285 15
-340 9 -161 35 -795 35 -853 0 -31 -4 -51 -10 -47 -5 3 -9 18 -8 33 3 59 -14
298 -22 307 -4 5 -11 116 -15 245 -4 129 -9 271 -11 315 -3 44 -5 86 -4 93 2
37 1 50 -3 77 -3 17 -5 30 -6 30 -1 0 -3 37 -4 82 -3 57 0 80 7 76 6 -4 5 1
-3 10 -10 12 -12 33 -8 70 5 44 4 48 -6 27 -12 -27 -14 -391 -3 -428 4 -11 2
-23 -4 -27 -11 -7 -14 -75 -2 -75 4 0 5 -25 4 -54 -2 -31 3 -78 12 -108 17
-58 16 -61 -7 -52 -21 8 -24 38 -37 354 -25 632 -68 1506 -110 2202 -6 91 -10
195 -10 230 0 62 0 63 15 34 10 -20 12 -33 5 -41 -5 -6 -7 -14 -4 -17 3 -3 5
-29 6 -57 0 -28 4 -51 10 -51 5 0 8 -17 7 -37 -1 -21 -1 -67 0 -103 3 -58 4
-61 11 -30 5 19 6 38 4 42 -3 5 0 8 5 8 6 0 11 -13 11 -30 0 -16 5 -30 11 -30
6 0 8 8 5 18 -4 10 -7 48 -7 85 -1 38 -6 67 -11 67 -7 0 -9 -18 -6 -45 5 -44
-4 -61 -16 -30 -6 18 12 115 22 115 9 0 6 83 -4 129 -4 20 -3 32 2 28 12 -7 5
74 -8 91 -7 8 -7 16 1 26 8 10 9 16 1 21 -5 3 -10 11 -10 16 0 6 4 8 9 5 4 -3
6 6 3 19 -2 15 0 25 7 25 7 0 11 -21 11 -55z m-301 -60 c-1 -38 8 -214 20
-390 55 -849 140 -2486 163 -3157 l3 -78 -42 0 -43 0 2 73 c1 52 3 60 5 27 3
-24 9 -50 14 -56 7 -8 6 -14 -3 -17 -9 -4 -7 -6 4 -6 24 -1 34 20 14 31 -20
11 -21 32 -1 24 9 -3 15 0 15 10 0 8 -4 12 -10 9 -6 -4 -6 4 1 22 8 22 7 30
-5 39 -17 12 -22 29 -6 19 6 -3 10 -1 10 4 0 6 -9 11 -21 11 -16 0 -19 -4 -14
-20 4 -11 2 -20 -4 -20 -6 0 -11 21 -11 48 0 66 -62 1303 -90 1807 -5 99 -12
232 -15 295 -3 63 -8 147 -10 185 -8 111 -43 727 -50 870 -3 72 -2 150 3 175
6 25 10 36 11 25 1 -17 3 -17 11 -5 5 8 7 24 4 35 -5 19 -4 19 7 1 9 -14 8
-24 -2 -45 -7 -14 -13 -30 -14 -36 -1 -5 -3 -14 -5 -20 -7 -22 -5 -113 3 -108
4 2 7 0 7 -5 0 -6 7 -12 15 -16 12 -4 15 2 14 27 -1 18 -3 24 -6 15 -2 -10 -9
-18 -15 -18 -5 0 -7 7 -4 16 3 9 9 28 12 42 5 26 5 26 -10 8 -14 -17 -16 -17
-16 -4 0 9 5 20 10 23 6 3 10 15 10 26 0 11 6 33 14 48 13 25 13 31 -5 60 -10
17 -19 41 -19 54 1 18 3 16 15 -10 8 -18 16 -33 18 -33 2 0 1 23 -3 50 -4 28
-4 52 -1 55 12 13 21 -26 20 -90z m-810 -45 c3 38 4 41 11 20 l8 -25 1 25 c1
23 3 23 12 7 6 -11 9 -32 7 -48 -6 -39 9 -37 20 4 10 37 10 34 42 -493 11
-179 27 -428 35 -555 8 -126 24 -392 35 -590 11 -198 24 -425 30 -505 5 -80
17 -266 25 -415 8 -148 22 -390 30 -536 18 -314 18 -369 5 -369 -6 0 -8 13 -5
30 3 17 1 30 -4 30 -12 0 -20 62 -27 220 -3 74 -10 153 -15 176 -11 51 -13
203 -3 228 4 11 2 21 -6 26 -7 5 -14 32 -16 66 -4 86 -14 145 -23 140 -4 -3
-6 -19 -3 -37 3 -24 1 -30 -8 -24 -9 6 -11 -6 -8 -48 4 -71 -8 -60 -17 16 -4
38 -3 57 4 57 6 0 11 7 11 16 0 9 -5 12 -11 8 -9 -5 -10 6 -7 39 3 26 2 44 -3
41 -5 -3 -10 37 -11 88 -5 238 -7 305 -13 338 -3 19 -7 73 -10 119 -2 45 -7
97 -10 115 -2 17 -7 117 -10 221 -2 105 -7 204 -9 220 -3 17 -10 154 -16 305
-6 151 -19 405 -30 563 -20 299 -34 663 -21 547 7 -61 8 -62 10 -20z m1545
-2757 c3 -21 8 -119 11 -218 3 -99 8 -200 10 -225 7 -73 17 -445 11 -440 -9
10 -22 231 -41 705 -1 50 -6 118 -10 153 -5 41 -4 62 3 62 6 0 13 -17 16 -37z
m-1379 -1377 c4 -96 4 -179 0 -186 -4 -6 -19 -9 -33 -7 -15 2 -21 2 -14 0 18
-7 15 -23 -5 -24 -10 0 -13 -2 -8 -5 12 -5 14 -178 3 -190 -5 -4 -8 -1 -9 7 0
8 -2 25 -4 39 -2 14 -9 126 -15 250 -6 124 -13 240 -16 258 l-5 32 49 0 50 0
7 -174z m-300 44 c8 7 14 -51 24 -218 6 -125 14 -256 16 -292 13 -178 14 -260
3 -266 -7 -4 -8 -3 -4 4 4 7 2 12 -3 12 -6 0 -11 14 -11 31 0 17 -4 28 -10 24
-6 -4 -10 6 -10 24 0 16 -4 32 -10 36 -9 6 -11 28 -14 194 -1 68 3 96 12 99
17 5 15 37 -4 52 -17 15 -16 76 2 73 6 -1 10 8 9 20 -2 12 -8 21 -14 20 -6 -2
-11 4 -11 13 0 8 5 12 10 9 6 -3 10 3 10 15 0 12 -4 18 -10 15 -5 -3 -10 -1
-10 4 0 6 -6 11 -14 11 -12 0 -12 5 -3 30 9 24 9 35 -1 51 -10 16 -11 24 -1
35 8 10 15 12 22 5 7 -7 15 -7 22 -1z"/>
<path d="M2209 7598 c-1 -57 -4 -75 -9 -58 l-8 25 -1 -28 c-1 -15 -6 -36 -13
-47 -10 -15 -10 -26 0 -53 15 -40 16 -107 2 -107 -5 0 -10 -12 -10 -26 0 -23
-2 -25 -16 -13 -14 12 -15 6 -10 -62 3 -40 9 -170 12 -286 4 -128 10 -213 16
-213 5 0 8 17 7 38 -2 21 0 43 4 49 4 7 7 24 7 40 -1 15 2 40 5 54 4 16 2 31
-7 40 -13 14 -26 140 -13 127 4 -4 7 -26 7 -49 -1 -23 3 -38 7 -33 19 21 27
98 25 224 l-2 135 8 -110 c5 -60 20 -373 34 -695 14 -322 30 -686 36 -810 6
-124 17 -387 25 -585 8 -198 17 -400 20 -450 6 -91 23 -468 50 -1099 8 -192
14 -351 12 -352 -1 -2 -14 -8 -27 -14 l-25 -10 25 4 c14 3 55 8 91 12 l66 6
-2 37 c-3 42 -14 71 -26 71 -15 0 -10 40 5 46 8 3 17 19 20 36 10 50 14 30 18
-85 l3 -107 46 0 c40 0 102 -14 149 -34 13 -5 15 9 12 109 -3 67 0 115 5 115
5 0 8 -26 7 -57 l-3 -58 9 64 c5 35 12 66 16 70 4 3 4 -14 1 -39 -4 -25 -9
-70 -12 -100 -6 -54 -6 -55 9 -25 l15 30 -2 -30 c-1 -16 -6 -33 -12 -37 -6 -5
-2 -8 8 -8 24 0 22 -21 -3 -27 -28 -7 -25 -16 11 -32 40 -17 134 -104 168
-156 27 -39 71 -145 71 -169 0 -26 -46 -33 -181 -30 l-136 4 -49 49 c-55 55
-97 71 -186 71 -59 0 -75 -10 -70 -43 3 -14 -3 -17 -27 -15 -38 3 -63 -20 -92
-85 -19 -43 -23 -70 -23 -162 -1 -183 42 -273 157 -329 134 -65 272 -34 326
73 40 78 45 75 -131 76 -86 0 -160 3 -164 7 -4 4 -9 52 -12 106 -4 96 -4 98
20 114 21 14 47 16 134 14 60 -2 187 -4 282 -5 l173 -1 -3 -153 c-3 -147 -4
-154 -35 -219 -18 -38 -43 -83 -57 -101 -14 -19 -23 -37 -18 -42 4 -5 2 -5 -4
-2 -6 4 -22 -5 -34 -18 l-23 -25 128 0 128 0 -7 218 c-3 119 -9 361 -12 538
l-7 321 25 6 c14 4 140 7 280 7 231 1 261 -1 313 -19 31 -11 71 -31 89 -44 45
-34 61 -42 52 -29 -4 7 -3 12 2 12 5 0 12 9 15 20 3 11 1 18 -4 14 -13 -8 -12
3 12 97 26 105 27 129 2 149 -41 33 -82 102 -89 148 -3 26 -12 57 -20 69 -12
20 -12 22 1 17 11 -5 15 0 14 17 0 13 -3 18 -6 12 -11 -29 -21 -9 -21 45 -1
31 -3 118 -6 192 -3 74 -3 127 0 118 6 -19 19 -23 28 -9 4 5 0 12 -6 14 -8 3
-6 6 5 6 9 1 17 -6 17 -14 0 -8 4 -15 8 -15 5 0 6 14 4 31 -3 17 -7 27 -11 23
-14 -20 -31 -14 -27 8 14 71 19 89 27 94 5 3 9 10 9 16 0 7 -5 6 -14 -1 -12
-10 -13 -8 -9 8 3 12 0 28 -7 36 -7 9 -12 37 -12 63 1 26 -2 81 -6 122 l-7 75
-6 -100 -5 -100 -2 108 c-2 80 1 107 11 107 8 0 9 3 1 8 -6 4 -14 30 -17 57
-5 34 -4 43 2 30 5 -11 10 -30 10 -42 1 -12 6 -23 13 -25 10 -4 34 -183 42
-305 1 -28 16 -31 16 -3 0 11 5 20 10 20 6 0 15 11 20 25 5 14 17 28 25 31 11
4 15 22 16 63 1 31 4 46 6 34 2 -13 12 -23 21 -23 15 0 15 -2 2 -10 -21 -14
-9 -12 38 4 29 10 42 11 44 4 3 -7 10 -8 17 -4 11 7 11 10 0 17 -11 6 -9 12 5
28 16 17 18 32 14 86 -3 36 -2 68 3 71 5 3 9 -3 9 -13 0 -19 18 -43 32 -43 4
0 8 7 8 15 0 8 -4 15 -9 15 -5 0 -13 9 -16 20 -3 11 -13 20 -21 20 -8 0 -14 7
-14 16 0 8 5 12 11 9 7 -5 7 -2 0 11 -6 12 -18 280 -31 679 -22 701 -60 2148
-60 2278 l0 77 -110 0 -111 0 5 -97 c6 -101 7 -132 31 -1028 16 -599 27 -952
51 -1650 9 -259 14 -482 11 -495 -2 -14 -5 13 -7 60 -1 47 -4 101 -7 120 -2
19 -4 43 -4 53 0 9 -4 17 -10 17 -5 0 -9 9 -9 20 0 29 -40 144 -52 151 -12 8
-15 116 -4 174 5 28 4 36 -3 26 -7 -11 -8 -2 -4 30 3 24 11 47 17 51 8 5 7 11
-2 20 -8 8 -13 52 -14 132 l-2 121 -7 -115 c-6 -112 -6 -111 -5 40 1 85 -1
144 -4 130 -4 -14 -10 81 -14 210 -4 129 -11 348 -16 485 -13 341 -20 754 -14
732 3 -9 10 -15 15 -12 5 4 9 -12 9 -34 0 -21 -5 -41 -10 -43 -7 -2 -8 -51 -4
-145 4 -78 11 -140 15 -138 4 3 10 -3 12 -12 4 -17 5 -17 6 0 0 9 6 17 12 17
8 0 8 5 -1 15 -12 15 -10 114 5 175 4 20 4 21 -3 5 -11 -25 -22 57 -22 175 0
47 -5 92 -10 100 -7 11 -10 5 -10 -22 0 -21 -4 -38 -9 -38 -11 0 -26 122 -18
142 3 7 6 3 6 -10 1 -13 5 -20 11 -17 6 3 10 -4 10 -16 0 -17 3 -19 14 -10 11
10 15 8 19 -6 3 -12 5 -8 6 10 0 15 -5 37 -11 48 -10 17 -10 23 0 26 6 3 12 9
12 14 0 6 -5 7 -10 4 -6 -4 -10 7 -9 27 1 18 3 25 6 16 2 -10 9 -18 15 -18 14
0 4 90 -12 100 -6 4 -17 18 -24 31 -7 13 -18 23 -24 22 -8 -2 -12 14 -11 50 1
31 4 44 7 31 8 -24 50 -79 57 -73 7 8 -7 79 -16 79 -5 0 -12 18 -15 39 -4 27
-12 41 -25 44 -15 4 -19 14 -19 44 l0 38 14 -26 c16 -31 52 -69 65 -69 14 0 0
44 -17 54 -12 7 -12 10 -1 17 12 8 12 11 -1 19 -13 8 -12 10 3 10 12 0 17 8
18 28 2 43 -2 85 -8 107 -6 18 -7 18 -14 -5 -6 -22 -7 -22 -8 -4 -1 18 -8 21
-56 23 l-55 2 0 -71 c0 -45 -4 -69 -10 -65 -5 3 -10 15 -10 26 0 11 -4 17 -10
14 -11 -7 -13 2 -10 58 1 33 -1 37 -23 37 -22 0 -24 -3 -20 -37 2 -21 8 -39
13 -41 6 -2 10 -21 10 -43 0 -26 5 -42 15 -45 8 -4 15 -12 15 -20 0 -7 6 -17
14 -21 16 -9 21 -80 31 -398 3 -104 10 -338 15 -520 26 -871 30 -1046 23
-1015 -3 14 -8 27 -12 30 -19 15 -30 54 -29 106 0 33 -3 88 -7 124 -7 58 -6
63 8 52 9 -8 18 -28 20 -45 2 -18 5 9 5 59 1 49 -2 94 -6 100 -5 5 -19 37 -31
70 -23 62 -25 121 -5 117 17 -3 8 66 -10 86 -9 10 -16 33 -15 52 0 32 1 33 10
10 6 -15 13 -21 19 -15 12 12 -9 146 -22 138 -4 -3 -6 -10 -3 -15 4 -5 3 -9
-2 -9 -35 1 -40 38 -48 385 -10 420 -17 660 -20 705 -2 25 -4 78 -4 118 l-1
72 -30 0 c-29 0 -30 -1 -30 -52 0 -33 -6 -58 -16 -69 -9 -10 -14 -28 -11 -46
l4 -28 9 25 8 25 7 -25 c4 -14 7 -59 8 -101 1 -61 -2 -76 -14 -76 -12 0 -15
14 -15 61 0 53 -3 63 -27 83 -14 13 -28 21 -30 19 -2 -2 1 -24 7 -50 6 -26 8
-51 5 -57 -4 -5 5 -24 19 -42 15 -19 26 -42 26 -53 1 -19 1 -19 15 0 14 18 15
16 15 -32 0 -29 -4 -52 -10 -52 -11 0 -13 -42 -4 -77 4 -13 10 -21 14 -18 4 2
10 -96 14 -218 10 -348 18 -497 27 -492 4 3 18 1 32 -4 l24 -9 7 -224 c3 -122
13 -405 21 -628 16 -434 17 -659 5 -600 -7 35 -7 35 -9 5 -1 -24 -3 -27 -12
-15 -8 11 -9 2 -5 -35 3 -33 2 -43 -4 -30 -5 11 -9 30 -9 43 -1 12 -7 22 -15
22 -21 0 -24 17 -31 220 -3 102 -10 284 -15 405 -5 121 -12 303 -15 405 -3
102 -8 226 -11 275 -3 57 -2 85 4 77 7 -10 11 -4 16 21 4 21 14 37 24 40 13 4
12 5 -5 6 -12 0 -24 -3 -28 -8 -3 -6 -15 -8 -28 -5 -123 25 -168 23 -252 -10
l-40 -15 90 1 c95 1 121 7 89 19 -16 6 -15 8 9 8 15 1 27 -3 27 -7 0 -5 8 -9
18 -9 52 1 82 -4 82 -13 0 -5 -7 -10 -16 -10 -8 0 -13 -4 -10 -9 9 -14 -78
-20 -364 -26 -146 -3 -303 -8 -349 -11 l-84 -6 7 -112 c13 -240 47 -1196 43
-1242 -2 -27 -4 -6 -5 48 -1 53 -6 100 -12 103 -6 4 -10 -7 -10 -25 0 -17 -4
-29 -9 -25 -5 3 -9 -10 -8 -30 2 -37 13 -46 20 -17 4 15 5 15 6 0 0 -9 -3 -20
-9 -23 -5 -3 -10 -15 -10 -26 0 -10 -4 -19 -9 -19 -14 0 -25 263 -13 299 9 25
8 31 -4 31 -11 0 -14 -16 -14 -75 0 -43 -4 -75 -10 -75 -5 0 -10 12 -10 26 0
22 -3 24 -14 15 -11 -9 -15 -9 -19 1 -4 10 -6 10 -6 0 -1 -7 6 -15 14 -18 19
-8 19 -24 0 -38 -10 -7 -18 -38 -23 -91 -8 -76 -9 -70 -15 100 -4 99 -9 201
-11 228 -2 26 1 47 5 47 5 0 8 15 8 33 l-1 32 -7 -30 c-8 -36 -12 29 -51 1000
-29 723 -43 1173 -31 1000 3 -49 9 -81 12 -70 4 11 7 -20 8 -70 1 -59 4 -85
10 -75 6 8 7 18 5 22 -3 5 -2 18 2 31 7 21 8 20 14 -8 4 -17 7 11 6 61 0 80
-3 93 -19 104 -18 11 -19 9 -15 -14 3 -14 1 -23 -4 -20 -5 3 -7 64 -6 135 2
71 6 121 10 112 3 -10 9 -27 12 -37 4 -10 8 -17 11 -14 2 2 -1 21 -7 42 -10
33 -10 40 5 51 38 28 19 35 -95 35 l-111 0 8 -207 c4 -115 9 -224 11 -243 1
-19 3 -66 3 -103 1 -47 4 -66 12 -61 6 3 9 17 6 30 -2 14 0 27 5 30 5 3 7 13
4 21 -3 8 1 25 10 38 13 20 16 57 16 207 0 239 13 191 22 -77 3 -115 15 -406
26 -645 10 -239 24 -561 30 -715 6 -154 15 -359 20 -455 5 -96 11 -281 14
-410 5 -218 4 -228 -7 -140 l-13 95 -7 -137 c-5 -75 -12 -152 -18 -170 -5 -18
-10 -91 -10 -163 -2 -172 -6 -139 -24 240 -17 369 -18 428 -6 421 5 -3 11 20
13 50 3 39 10 59 22 66 13 7 16 22 15 74 -2 63 -11 81 -23 47 -4 -9 -1 -20 6
-25 10 -6 9 -8 -4 -8 -12 0 -18 -12 -23 -47 -7 -54 -16 -83 -20 -68 -2 6 -8
134 -15 285 -6 151 -22 529 -35 840 -40 923 -45 1051 -45 1143 l0 87 -30 0
-30 0 -1 -82z m1715 -533 c9 -319 23 -794 31 -1055 17 -559 26 -1081 16 -960
-4 47 -9 74 -11 60 -2 -14 -2 -33 -2 -43 1 -10 -2 -16 -7 -12 -17 10 -21 -12
-6 -25 17 -14 20 -50 4 -50 -6 0 -9 -6 -6 -12 2 -7 -5 -26 -15 -41 -16 -22
-19 -37 -13 -77 4 -28 10 -50 15 -50 4 0 4 19 -1 43 -12 60 -10 67 6 28 17
-37 21 -126 6 -116 -14 8 -21 -8 -25 -54 -2 -23 1 -42 7 -44 6 -2 8 -11 3 -23
-17 -45 -24 27 -35 386 -6 206 -14 422 -16 480 -3 58 -7 177 -10 265 -38 1181
-42 1437 -24 1433 6 -2 14 3 17 11 3 10 0 12 -12 8 -10 -4 -16 -1 -16 8 0 8 5
15 11 15 5 0 7 5 4 11 -4 6 2 17 14 25 33 24 27 44 -9 34 l-30 -9 2 102 2 102
3 -88 c3 -64 7 -87 16 -84 7 2 11 18 10 38 -2 27 -1 30 6 14 8 -18 10 -18 10
-2 1 10 8 20 16 23 8 4 15 10 15 15 0 14 -38 11 -43 -3 -3 -8 -6 -6 -6 5 -1
12 7 17 25 17 23 0 25 3 24 38 -3 62 0 176 4 171 2 -2 12 -265 20 -584z m-564
-884 c0 -5 -23 -12 -51 -16 -59 -8 -49 -25 14 -25 23 0 36 -4 32 -10 -10 -16
-167 -12 -188 4 -18 14 -18 14 0 19 22 7 -373 -2 -404 -9 -13 -2 -23 0 -23 6
0 5 -1 13 -2 18 -3 7 201 16 465 20 89 1 157 -2 157 -7z m-202 -171 c1 -34 5
-67 9 -73 11 -17 22 34 12 54 -6 11 -3 21 6 29 16 13 17 11 20 -30 3 -31 13
-82 17 -84 2 0 12 -6 23 -13 11 -7 44 -26 73 -43 43 -26 52 -36 51 -58 0 -15
-3 -22 -5 -15 -3 7 -12 9 -21 6 -11 -4 -14 -2 -9 5 7 12 -29 36 -44 27 -5 -3
-12 1 -17 8 -12 21 -51 39 -58 27 -3 -5 -26 -10 -51 -10 -32 0 -44 -4 -44 -15
0 -32 -19 -13 -23 23 l-4 37 -1 -42 c-2 -35 -5 -43 -22 -43 -10 0 -24 8 -29
18 -9 15 -12 15 -21 2 -8 -13 -10 -13 -10 3 0 14 -9 17 -49 17 -28 0 -52 3
-54 8 -3 4 17 5 44 4 44 -4 49 -2 49 16 0 43 10 52 60 52 50 0 60 -9 60 -52 0
-14 5 -18 16 -14 9 3 29 6 45 6 33 0 32 14 -1 23 -11 3 -18 1 -14 -4 9 -15
-12 -10 -25 5 -9 11 -9 14 1 13 51 -2 53 2 15 41 -32 32 -36 43 -35 82 2 42
13 64 28 55 4 -2 7 -32 8 -65z m-318 -255 c0 3 10 -1 23 -9 31 -20 78 -28 94
-14 11 9 12 7 7 -8 -6 -16 -5 -17 7 -7 11 11 15 8 26 -15 8 -17 11 -19 8 -6
-4 14 0 24 10 28 17 6 30 -16 22 -37 -3 -8 3 -14 16 -14 11 -1 23 -6 26 -12 3
-5 23 -12 43 -16 20 -4 39 -13 42 -21 3 -8 10 -14 15 -14 6 0 8 7 5 15 -4 8
-1 15 5 15 6 0 11 -9 11 -20 0 -11 5 -20 11 -20 6 0 16 -6 24 -13 7 -7 38 -19
69 -26 31 -7 56 -17 56 -22 0 -6 5 -7 10 -4 6 3 10 1 10 -4 0 -7 -41 -11 -117
-11 -65 0 -202 -3 -305 -7 -164 -5 -188 -4 -188 9 0 18 88 29 210 26 72 -1 73
-1 25 -8 -27 -4 -43 -8 -35 -9 34 -6 206 1 213 9 10 9 -95 60 -123 60 -10 0
-21 6 -23 13 -4 9 -7 9 -15 -1 -7 -11 -12 -10 -26 3 -14 15 -16 15 -16 1 0 -9
-7 -16 -15 -16 -14 0 -18 10 -12 28 1 4 7 6 12 4 7 -2 7 -1 0 5 -10 9 -85 39
-157 64 -35 12 -38 16 -38 51 l0 38 35 -20 c19 -11 35 -17 35 -15z m801 -299
c0 -6 4 -2 8 9 6 14 10 2 14 -45 11 -109 30 -731 23 -737 -3 -4 -6 21 -6 54 0
116 -12 214 -26 209 -20 -7 -22 10 -28 200 -4 99 -9 220 -11 269 -4 81 -3 88
10 71 8 -11 15 -25 16 -30z m-293 -201 c2 -87 5 -102 23 -117 17 -15 18 -18 5
-18 -12 0 -16 -10 -16 -39 0 -22 -5 -43 -11 -47 -8 -4 -7 -9 2 -15 11 -6 14
-40 14 -136 1 -175 -5 -264 -16 -257 -5 3 -9 -6 -9 -20 0 -15 7 -27 19 -31 22
-7 31 -44 31 -131 l0 -64 -232 -2 c-128 0 -249 -1 -268 -1 l-35 0 -3 88 c-3
92 2 105 42 105 20 0 56 27 56 41 0 4 -10 5 -22 1 -19 -5 -20 -3 -8 9 18 20
49 19 43 -1 -3 -9 3 -6 15 7 11 12 23 19 28 15 5 -4 2 1 -5 11 -12 15 -12 20
-1 30 7 7 10 7 7 1 -3 -6 3 -17 13 -24 16 -12 18 -22 13 -55 l-6 -40 24 30
c13 16 23 33 21 37 -1 5 3 8 8 8 6 0 5 8 -2 20 -9 14 -14 16 -20 7 -5 -8 -8
-4 -8 11 0 14 -4 20 -10 17 -7 -4 -9 2 -4 19 8 32 -8 34 -29 4 -13 -19 -16
-20 -16 -5 -1 22 -17 22 -29 1 -12 -22 -26 -1 -15 23 5 10 6 47 2 83 l-6 65
-1 -74 c-1 -41 -5 -72 -8 -68 -4 3 -13 -1 -22 -9 -12 -13 -16 -13 -23 -2 -5 8
-9 -17 -9 -61 0 -136 -11 -66 -18 117 l-7 180 25 -10 c14 -5 33 -17 43 -25 9
-9 20 -14 23 -10 3 3 -13 16 -36 29 l-41 23 3 55 c3 51 1 55 -21 58 l-24 4 6
-109 c13 -221 16 -363 7 -293 -5 36 -11 149 -15 253 l-6 187 70 1 c90 2 91 2
91 14 0 5 -35 8 -84 6 l-85 -3 -3 96 c-2 53 -3 97 -3 97 0 3 380 16 455 15
l85 -1 3 -100z m-748 -518 c10 -120 6 -247 -7 -209 -3 6 -8 12 -11 12 -7 0 -7
-21 -2 -92 2 -32 2 -32 10 -8 8 24 8 24 9 2 1 -12 -6 -33 -14 -45 -10 -16 -14
-45 -12 -99 2 -83 13 -110 23 -60 14 71 32 6 25 -90 -1 -16 5 -31 18 -40 27
-19 34 -166 8 -192 -9 -10 -17 -28 -17 -42 0 -13 -10 -46 -22 -72 l-23 -47 -6
120 c-3 66 -9 194 -13 285 -3 91 -11 277 -17 413 -6 137 -8 251 -5 254 3 4 6
-16 6 -43 0 -27 3 -72 6 -101 5 -41 10 -51 25 -50 10 1 15 5 13 9 -3 5 -10 6
-15 3 -5 -4 -9 5 -9 19 0 14 5 26 10 26 6 0 10 14 10 30 0 21 -5 30 -16 30
-13 0 -15 7 -10 33 4 17 10 47 13 65 3 18 7 32 8 30 2 -2 9 -65 15 -141z
m-105 -295 c9 -194 13 -357 10 -362 -13 -21 -23 1 -15 34 4 19 5 46 3 60 -4
21 -8 24 -19 15 -15 -12 -19 -65 -6 -73 10 -6 4 -153 -9 -219 -12 -62 -3 -77
26 -42 21 24 23 34 20 118 -4 85 -3 87 4 27 10 -77 22 -410 15 -393 -9 21 -56
-16 -49 -37 3 -10 1 -21 -5 -25 -5 -3 -10 -34 -10 -67 0 -216 -25 190 -44 707
-3 83 -1 132 4 120 7 -16 9 -17 9 -3 1 9 -3 20 -9 23 -5 3 -10 23 -9 43 0 30
2 33 9 17 6 -14 9 5 9 57 1 43 8 97 16 122 8 24 12 51 9 60 -3 9 -2 16 3 16 5
0 8 24 8 53 -1 51 5 110 10 105 2 -2 11 -162 20 -356z m242 -432 c3 -8 5 -24
4 -35 -3 -16 -1 -17 13 -6 9 7 16 20 16 28 0 8 4 12 9 9 13 -9 5 -87 -10 -98
-11 -7 -11 -11 -1 -15 17 -7 15 -43 -2 -43 -11 0 -14 -22 -14 -107 1 -60 3
-98 5 -85 2 12 9 22 14 22 15 0 10 -56 -6 -70 -10 -8 -14 -28 -13 -61 1 -28 6
-43 10 -36 5 7 6 29 2 50 -4 26 -2 37 7 37 14 0 6 -109 -10 -138 -14 -25 -18
19 -30 298 -11 236 -13 400 -4 305 2 -22 6 -47 10 -55z"/>
<path d="M2510 7673 c0 -5 9 -195 20 -423 10 -228 22 -500 25 -605 10 -282 8
-268 40 -271 l27 -3 -6 167 c-33 833 -35 887 -24 893 13 8 13 82 0 87 -4 1 -6
38 -4 82 l4 80 -41 0 c-23 0 -41 -3 -41 -7z"/>
<path d="M2613 7605 c2 -41 1 -75 -3 -75 -4 0 -5 -13 -2 -30 2 -16 8 -30 12
-30 17 0 17 -38 -1 -51 -11 -7 -19 -25 -18 -39 l1 -25 8 25 c7 21 8 22 10 5
l1 -20 9 20 c8 19 9 19 9 -2 1 -12 -4 -25 -10 -29 -8 -4 -7 -9 2 -15 12 -8 12
-10 0 -18 -9 -6 -13 -23 -11 -48 1 -21 3 -54 2 -73 0 -35 0 -35 10 -7 5 15 14
27 19 27 6 0 9 8 7 18 -1 9 1 23 5 30 5 7 3 12 -7 12 -8 0 -17 -6 -19 -12 -4
-8 -6 -7 -6 4 -1 9 6 23 14 32 12 12 14 44 12 183 -5 214 8 172 17 -58 4 -96
11 -255 16 -354 5 -99 12 -272 15 -385 3 -113 8 -229 11 -258 5 -52 6 -53 36
-50 28 3 31 7 34 43 2 21 0 42 -5 45 -5 3 -13 114 -17 248 -7 191 -6 242 4
242 8 0 12 19 12 62 0 74 -17 68 -23 -7 -2 -28 -4 -8 -5 47 -1 56 2 99 8 103
6 3 10 30 9 58 0 41 -2 47 -9 30 -14 -35 -20 -27 -20 28 0 31 4 48 10 44 6 -4
10 22 10 72 -1 75 -2 77 -15 48 -13 -29 -14 -28 -13 38 1 37 5 70 9 73 5 3 9
33 8 67 -1 46 -3 56 -9 37 -8 -24 -8 -24 -9 -2 -1 18 -7 22 -35 22 -19 0 -37
-6 -39 -12 -4 -10 -6 -10 -6 0 -1 6 -10 12 -21 12 -19 0 -20 -5 -17 -75z"/>
<path d="M2820 7658 c0 -13 4 -120 10 -238 5 -118 12 -296 15 -396 4 -99 8
-203 10 -230 2 -27 6 -130 10 -229 l7 -180 30 -2 29 -2 -6 147 c-21 507 -35
860 -34 887 l1 30 8 -28 c5 -16 7 -37 5 -49 -3 -15 0 -18 12 -13 16 5 16 5 0
-12 -10 -12 -13 -23 -7 -33 5 -8 6 -18 4 -22 -6 -9 26 1 44 15 8 7 12 5 12 -7
0 -9 -7 -16 -15 -16 -20 0 -19 -39 1 -90 16 -40 12 -68 -6 -40 -15 23 -13 -16
1 -42 11 -21 12 -21 25 8 8 16 12 21 9 11 -3 -10 -5 -28 -5 -39 0 -14 -5 -18
-15 -14 -9 3 -15 0 -15 -9 0 -25 38 -18 43 8 2 12 5 -8 6 -44 0 -36 6 -191 12
-344 8 -227 8 -280 -3 -286 -8 -5 6 -9 35 -9 27 0 46 3 44 8 -3 4 -8 102 -12
217 -3 116 -9 224 -12 240 l-5 30 21 -19 c17 -16 21 -16 16 -4 -4 9 -13 19
-21 22 -10 4 -14 21 -13 58 0 40 2 48 9 32 9 -24 30 -41 30 -26 0 18 -27 62
-33 55 -4 -3 -7 18 -7 48 0 30 -3 64 -6 77 -9 32 9 27 24 -7 7 -16 24 -42 38
-57 l26 -29 -7 40 c-3 22 -14 47 -23 55 -48 41 -60 73 -63 167 -4 83 -3 90 13
82 22 -12 34 -32 22 -36 -6 -2 -9 -17 -6 -33 2 -16 8 -27 13 -24 5 3 9 -4 9
-15 0 -11 10 -27 22 -35 21 -15 23 -26 29 -163 7 -149 23 -582 23 -638 1 -35
11 -45 38 -37 20 5 20 10 14 146 -3 78 -7 276 -9 441 -2 165 -2 258 0 206 2
-52 8 -100 14 -107 5 -7 7 -23 5 -36 -3 -12 -2 -39 2 -58 8 -31 10 -26 18 50
4 47 8 110 7 140 -2 53 -2 53 8 20 6 -19 9 -47 6 -63 -2 -19 0 -26 9 -23 8 3
14 -8 18 -32 7 -49 16 -672 10 -649 -3 9 -11 17 -17 17 -7 0 -6 4 3 10 8 5 11
12 8 15 -10 10 -28 -4 -28 -21 0 -8 5 -14 11 -14 5 0 7 -4 4 -10 -10 -15 -25
-12 -25 6 0 24 -25 11 -28 -15 -3 -22 -2 -22 80 -20 l85 3 -13 25 c-7 17 -14
102 -18 231 -3 113 -10 356 -16 540 -7 184 -10 355 -8 380 l3 45 18 -37 c26
-56 38 -47 35 25 l-3 62 -179 3 c-137 2 -181 -1 -188 -10 -6 -10 -8 -10 -8 0
0 8 -21 12 -69 12 -46 0 -71 -4 -74 -12 -4 -10 -6 -10 -6 0 -1 7 -14 12 -31
12 -24 0 -30 -4 -30 -22z"/>
<path d="M4066 7638 c2 -24 8 -252 14 -508 11 -488 24 -985 40 -1530 5 -179
12 -448 16 -599 4 -151 8 -286 9 -300 1 -14 3 -42 4 -61 2 -32 3 -33 12 -12 9
23 9 23 47 -15 21 -21 61 -57 89 -80 28 -23 65 -66 81 -95 23 -40 32 -49 37
-36 4 9 20 21 37 27 16 6 27 15 23 20 -3 6 3 19 15 31 24 24 34 26 26 4 -3 -9
-2 -12 5 -9 6 4 8 13 5 21 -3 8 -1 14 4 14 6 0 10 6 10 13 0 6 10 32 22 57 20
43 21 44 28 20 5 -16 8 4 9 59 1 46 3 82 5 80 2 -2 6 -55 9 -117 4 -76 2 -110
-5 -106 -6 4 -6 -1 1 -14 6 -11 11 -30 11 -41 0 -24 34 -45 63 -37 13 3 25 -1
33 -12 12 -16 13 -15 14 6 0 12 4 22 9 22 14 0 24 71 12 83 -8 8 -11 5 -11
-10 0 -34 -24 -78 -42 -79 -15 -2 -18 6 -17 45 0 35 2 41 9 26 6 -14 9 5 10
60 1 59 4 75 11 60 7 -14 8 -6 5 31 -3 29 0 56 6 62 9 9 8 20 -8 85 -1 4 -2
17 -3 29 -2 41 -12 9 -17 -54 -2 -34 -8 -88 -13 -118 -7 -48 -8 -38 -10 70 -1
69 -8 388 -16 710 -8 322 -19 875 -25 1230 -6 355 -13 727 -16 828 l-6 182
-75 0 -76 0 7 -85 c5 -57 4 -85 -3 -85 -7 0 -11 32 -11 85 l0 85 -35 0 c-35 0
-35 -1 -35 -42 0 -24 7 -320 15 -658 14 -580 17 -907 7 -795 -3 38 -6 45 -12
30 -8 -19 -9 -19 -9 2 -1 12 5 24 12 27 6 3 1 4 -12 3 -20 -2 -24 3 -25 26 -1
17 3 27 12 27 8 0 12 -6 8 -15 -3 -8 -1 -15 4 -15 13 0 13 23 1 35 -12 13 -19
245 -7 245 5 0 4 6 -2 13 -6 7 -9 37 -7 67 4 59 -2 80 -16 59 -6 -10 -9 -8 -9
9 0 26 25 30 39 5 7 -12 11 -13 11 -5 0 7 -7 20 -15 28 -12 12 -13 35 -10 117
3 56 8 110 11 120 3 9 1 17 -4 17 -10 0 -8 77 3 104 5 10 3 57 -3 103 -7 56
-8 92 -1 110 6 16 6 30 0 37 -6 7 -9 79 -6 179 l3 167 -74 0 c-53 0 -74 -4
-74 -12 0 -7 5 -166 10 -353 5 -187 12 -477 16 -645 3 -168 14 -595 23 -949
l18 -645 -30 -25 c-16 -14 -38 -39 -48 -56 l-19 -30 0 78 c0 43 -5 220 -10
395 -26 833 -49 2045 -33 1752 6 -108 18 -87 15 26 -2 71 1 104 8 99 5 -3 10
2 10 14 0 10 3 27 6 36 5 13 8 14 15 3 6 -8 9 0 9 25 0 20 -4 37 -10 37 -5 0
-10 5 -10 11 0 5 5 7 10 4 6 -3 10 1 10 9 0 22 -27 20 -33 -1 -3 -10 -3 20 -1
67 2 47 8 86 14 88 5 2 10 19 10 38 0 27 -4 34 -19 34 -12 0 -21 -8 -24 -22
l-4 -23 -2 23 c-1 19 -6 22 -45 22 l-44 0 4 -42z m498 -688 c9 -382 18 -794
21 -915 9 -342 25 -1077 24 -1110 0 -29 0 -29 -15 10 -25 66 -26 71 -12 86 9
10 11 28 7 59 l-6 45 -2 -45 c-1 -25 -6 -52 -11 -60 -5 -8 -10 -10 -10 -5 0 6
-11 23 -25 39 -14 16 -25 37 -25 47 0 15 -14 616 -34 1429 -17 683 -19 950 -7
950 7 0 10 -4 7 -9 -3 -5 1 -14 9 -21 13 -11 15 -8 15 14 0 14 5 26 11 26 8 0
10 -14 6 -42 -3 -24 -3 -35 0 -25 2 9 9 17 14 17 6 0 10 32 9 78 -2 94 1 162
6 142 2 -8 10 -328 18 -710z m-134 -2059 c13 -1 13 -2 0 -11 -13 -9 -13 -10 0
-10 27 -1 45 -17 33 -32 -8 -9 -5 -25 8 -57 19 -43 19 -44 63 -39 42 5 44 4
48 -23 3 -16 1 -32 -4 -37 -16 -16 -53 -1 -70 28 -12 21 -22 27 -36 23 -23 -6
-32 21 -28 85 2 23 0 42 -3 42 -3 1 -26 5 -50 9 -44 9 -95 -1 -116 -22 -7 -6
7 -8 40 -4 l50 5 -40 -12 c-56 -18 -57 -41 -4 -65 30 -14 49 -17 66 -10 33 12
28 0 -20 -51 -31 -33 -48 -44 -66 -42 -21 3 -23 1 -19 -23 l6 -27 -22 22 c-13
14 -17 24 -9 27 8 3 9 14 2 36 -15 53 -11 129 9 162 18 29 22 30 83 29 35 -1
71 -2 79 -3z"/>
<path d="M4710 7633 c0 -49 9 -522 35 -1808 8 -401 18 -893 21 -1092 l7 -362
41 -38 c22 -21 35 -31 29 -23 -14 19 -40 1124 -58 2475 -3 237 -8 484 -10 550
-3 66 -5 171 -5 233 l0 112 -30 0 c-29 0 -30 -1 -30 -47z"/>
<path d="M4874 7248 c3 -238 8 -534 11 -658 16 -649 36 -2295 28 -2260 -3 14
-15 38 -27 55 -11 16 -26 41 -33 55 -10 22 -11 22 -12 5 0 -11 3 -27 9 -35 5
-9 5 -19 -2 -27 -7 -9 -7 -13 2 -13 8 0 10 -8 7 -21 -3 -12 0 -22 8 -26 11 -3
11 -9 3 -22 -8 -13 -3 -33 21 -87 18 -38 30 -58 28 -44 -3 14 -1 36 3 50 5 17
7 2 8 -45 1 -64 51 -287 81 -368 21 -54 15 -75 -24 -83 -42 -8 -47 -32 -7 -40
33 -7 58 -39 40 -50 -7 -5 -8 -3 -3 6 5 8 4 11 -3 6 -6 -4 -9 -13 -5 -21 3 -8
0 -15 -6 -15 -11 0 -15 12 -12 40 1 11 -2 10 -10 -4 -8 -13 -8 -25 -1 -40 20
-41 20 -53 3 -102 -9 -27 -19 -53 -22 -59 -8 -12 -23 -105 -21 -121 1 -6 -5
-17 -13 -24 -8 -7 -15 -20 -15 -30 0 -19 -29 -36 -39 -23 -12 16 -30 13 -24
-3 5 -13 2 -15 -15 -9 -13 4 -22 2 -22 -4 0 -6 5 -11 12 -11 6 0 4 -7 -5 -18
-18 -20 -22 -42 -9 -42 5 0 16 16 25 35 16 34 37 47 37 23 0 -6 9 -3 20 7 11
10 20 13 20 7 0 -7 -4 -12 -10 -12 -5 0 -10 -15 -11 -32 0 -20 -3 -27 -7 -18
-4 8 -15 16 -24 18 -25 4 -23 -29 2 -35 17 -5 18 -8 8 -21 -10 -12 -10 -14 0
-8 7 4 12 2 12 -4 0 -6 4 -9 9 -6 11 7 21 -17 21 -49 0 -13 7 -30 15 -39 17
-16 21 -51 5 -41 -5 3 -10 -1 -10 -10 0 -9 4 -14 8 -11 4 2 4 -32 1 -76 -7
-81 -3 -184 8 -202 3 -5 1 -6 -5 -2 -9 5 -12 -29 -13 -128 -2 -165 -1 -158
-17 -164 -8 -2 -10 3 -6 15 5 17 5 17 -7 -1 -6 -10 -14 -35 -16 -55 -3 -20 -9
-44 -15 -54 -6 -12 -4 -33 7 -68 l17 -49 55 0 56 0 -7 148 c-3 81 -6 263 -7
405 0 191 -3 257 -12 257 -7 0 -6 4 3 10 13 8 8 14 -11 12 -3 -1 -5 9 -4 21 2
12 7 21 12 20 6 -1 10 37 9 100 l-1 102 131 3 131 3 7 -148 c3 -81 7 -301 7
-488 1 -187 4 -364 7 -392 l5 -53 188 0 189 0 0 53 1 52 146 135 c161 148 257
261 306 360 28 57 32 74 32 147 0 64 -4 86 -17 99 -22 22 -100 34 -127 20 -30
-17 -73 -78 -67 -98 2 -10 0 -21 -5 -24 -5 -3 -9 -15 -9 -28 0 -22 -4 -23
-120 -30 -67 -4 -125 -4 -130 -1 -16 10 -12 116 6 176 36 122 99 200 197 245
57 27 71 29 182 29 102 0 127 -3 167 -22 71 -32 140 -102 178 -180 28 -59 34
-81 38 -164 9 -190 -62 -333 -272 -546 l-91 -93 181 0 c135 0 184 -3 192 -13
6 -7 12 -35 14 -62 l3 -50 98 0 c53 -1 97 0 97 2 0 2 -14 28 -31 58 -18 33
-35 52 -43 49 -8 -3 -16 4 -19 15 -5 20 7 30 16 14 2 -5 2 -1 0 7 -3 8 -7 27
-10 41 -4 21 -9 25 -34 21 -24 -4 -29 -1 -29 17 0 23 34 30 44 9 3 -7 4 3 2
22 -26 203 -30 275 -18 388 6 64 19 146 28 182 34 133 109 244 199 291 l44 24
-2 132 c-1 72 -5 135 -10 139 -10 10 -9 86 1 80 11 -6 15 72 5 88 -4 6 -8 17
-8 25 0 7 -10 17 -23 22 -19 7 -24 4 -32 -16 -5 -14 -5 -36 0 -56 5 -17 7 -36
4 -41 -3 -4 5 -13 18 -18 22 -10 21 -10 -4 -5 -29 6 -39 -11 -13 -21 8 -4 15
-17 15 -30 0 -18 -4 -22 -17 -17 -14 4 -15 3 -7 -6 7 -7 9 -46 7 -102 -2 -60
0 -88 7 -84 5 3 10 2 10 -4 0 -5 -10 -9 -22 -8 l-21 1 6 1321 c12 2270 24
3030 36 2268 1 -81 14 -112 23 -54 2 17 1 28 -4 25 -5 -3 -7 37 -5 88 4 94 21
153 41 141 6 -4 3 3 -6 14 -20 22 -23 33 -8 33 6 0 10 -7 10 -15 0 -8 4 -15 8
-15 4 0 9 106 10 235 l3 235 -40 0 c-22 0 -42 -5 -44 -12 -4 -10 -6 -10 -6 0
-1 7 -14 12 -31 12 -28 0 -30 -2 -30 -39 0 -22 -5 -43 -10 -46 -6 -4 -10 -3
-9 2 1 4 1 25 0 45 l-1 37 -75 0 -75 0 0 -997 c0 -548 -3 -1244 -7 -1545 l-6
-549 -18 59 c-11 32 -19 66 -19 75 0 20 -39 50 -53 41 -7 -4 -8 423 -3 1278 5
855 10 1285 17 1290 6 3 12 33 14 66 3 39 15 82 35 127 19 41 29 74 25 84 -6
13 -9 11 -16 -13 -5 -16 -18 -47 -29 -67 -12 -21 -25 -57 -29 -80 -7 -33 -9
-10 -10 95 l-1 137 -35 0 -35 0 0 -57 c0 -67 -11 -65 -15 4 -3 47 -4 48 -39
51 l-35 3 -4 -163 -3 -163 -2 163 -2 162 -34 0 -34 0 5 -1419 6 -1418 -24 -5
c-14 -2 -38 3 -54 12 l-30 17 1 1147 c0 776 4 1150 11 1154 6 4 16 24 24 45 7
21 21 46 31 57 13 14 18 36 18 81 0 60 -8 76 -14 28 -4 -32 -13 -54 -44 -119
l-27 -55 -3 53 c-3 59 15 100 29 65 6 -13 8 -10 6 12 -1 33 32 107 45 99 4 -3
8 34 7 83 l-1 88 -34 -105 c-20 -58 -39 -109 -45 -114 -5 -6 -9 17 -9 62 0 73
15 99 23 40 4 -30 4 -29 5 7 1 57 12 97 32 120 10 11 21 30 25 43 6 20 3 22
-28 22 -30 0 -34 -4 -44 -37 l-10 -38 -2 38 c-1 35 -3 37 -33 37 l-31 0 6
-1161 c5 -1000 4 -1159 -8 -1143 -8 11 -15 15 -15 9 0 -5 -4 -4 -9 3 -6 10
-10 7 -13 -12 -3 -14 -1 -23 3 -20 5 3 9 -4 9 -14 0 -26 -19 -32 -66 -22 -22
4 -69 7 -106 6 -52 -1 -68 2 -68 12 0 10 8 13 25 10 14 -3 36 3 52 13 16 11
36 16 50 13 13 -4 23 -2 23 4 0 16 -46 23 -75 12 -18 -7 -33 -7 -46 0 -11 6
-24 8 -29 5 -5 -3 -11 -1 -15 5 -3 5 -26 10 -50 10 -34 0 -47 -5 -59 -22 -9
-12 -16 -17 -16 -10 0 22 60 102 76 102 8 0 24 -5 35 -10 12 -7 19 -7 19 -1 0
16 50 62 61 56 5 -4 13 5 19 19 11 30 10 30 55 12 35 -15 50 -40 18 -30 -16 5
-16 4 0 -6 10 -7 21 -9 24 -6 3 3 14 -5 25 -17 11 -12 17 -16 13 -9 -3 6 -1
12 5 12 7 0 -8 18 -31 40 -30 28 -38 40 -26 40 16 0 17 67 17 1050 l0 1050
-35 0 c-35 0 -36 -1 -31 -32 3 -18 7 -490 8 -1048 l3 -1015 -42 1 c-24 0 -43
-3 -43 -8 0 -4 -3 -8 -7 -8 -5 0 -9 433 -9 963 -1 529 1 944 5 922 l7 -40 12
29 c7 15 11 33 10 40 -4 19 12 69 20 61 12 -11 10 -67 -4 -117 -11 -43 -11
-49 4 -58 9 -5 12 -10 7 -10 -6 0 -11 -8 -11 -17 0 -10 -4 -38 -8 -62 -6 -30
-5 -41 2 -37 6 4 9 13 5 21 -3 8 0 15 6 15 6 0 11 -8 12 -17 0 -15 1 -15 8 2
4 11 8 74 10 140 1 91 -2 127 -14 149 -17 32 -20 92 -5 101 23 14 -5 25 -66
25 l-65 0 7 -1067 6 -1068 -46 -39 c-33 -27 -45 -43 -41 -55 4 -11 3 -13 -4
-6 -7 7 -11 293 -12 825 -2 448 -5 949 -7 1113 l-4 297 -31 0 -30 0 7 -787 c3
-434 9 -1087 12 -1453 l6 -665 -46 -29 c-26 -15 -49 -27 -51 -24 -2 2 -7 485
-11 1073 -3 589 -8 1079 -9 1090 -2 11 -4 194 -4 408 l-1 387 -50 0 -49 0 6
-30 c3 -19 1 -30 -6 -30 -6 0 -11 7 -11 16 0 14 -3 14 -16 3 -13 -11 -14 -9
-9 14 5 18 3 27 -5 27 -9 0 -11 -14 -6 -52 3 -29 8 -80 11 -113 4 -53 8 -92
13 -117 4 -17 22 -6 22 13 0 11 -4 17 -10 14 -5 -3 -10 -1 -10 4 0 6 4 11 8
11 5 0 9 14 10 30 0 17 -4 30 -10 30 -5 0 -8 7 -4 15 3 8 1 15 -5 15 -6 0 -9
6 -6 13 2 6 10 11 16 10 15 -4 14 14 -1 20 -10 4 -9 8 2 16 12 9 16 3 21 -32
4 -26 7 -33 8 -17 2 23 3 23 10 5 5 -11 11 -324 15 -695 4 -371 11 -1010 16
-1420 5 -410 6 -748 2 -751 -4 -4 -18 -10 -32 -14 -20 -6 -23 -5 -12 6 7 8 12
40 11 88 -1 75 -2 75 -9 26 -5 -27 -11 -70 -15 -95 -5 -37 -22 -67 -32 -57 -1
2 -7 432 -12 957 -6 525 -13 1081 -16 1235 -2 154 -5 409 -5 568 l0 287 -64 0
c-61 0 -64 -1 -58 -22 3 -14 2 -19 -6 -14 -7 4 -12 15 -13 24 0 14 -2 13 -9
-3 -7 -17 -9 -17 -9 -2 -1 12 -9 17 -30 17 -20 0 -31 -6 -34 -17 -4 -17 -5
-17 -6 0 -1 15 -12 17 -77 17 l-77 0 7 -432z m160 -228 c3 -327 3 -588 -1
-580 -3 8 -16 29 -29 45 -13 17 -26 51 -30 75 -3 25 -13 55 -20 67 -8 12 -14
33 -13 45 1 22 2 21 12 -4 6 -16 14 -28 19 -28 4 0 8 -6 8 -13 0 -8 11 -19 25
-25 32 -15 31 -9 -4 36 -17 20 -33 50 -37 65 -5 21 -9 25 -15 15 -5 -8 -9 6
-8 37 0 41 2 46 10 27 8 -21 69 -90 69 -79 0 3 -11 27 -24 54 -17 32 -26 70
-29 116 -4 71 1 82 23 42 17 -31 34 -33 24 -2 -10 33 -32 75 -44 82 -5 3 -10
17 -10 31 0 13 -4 24 -10 24 -5 0 -10 10 -9 23 0 16 7 8 25 -30 41 -83 70 -80
40 4 -8 22 -11 46 -6 53 6 10 9 9 14 -1 3 -8 3 2 0 21 -4 19 -13 44 -21 56 -9
15 -11 24 -4 29 6 3 12 -2 12 -12 1 -10 5 -4 9 12 4 17 8 117 9 224 0 107 3
192 5 190 2 -2 7 -272 10 -599z m90 533 c5 -5 6 9 3 32 -4 27 -3 35 3 25 5 -8
10 -32 10 -52 0 -21 4 -38 8 -38 5 0 13 -12 19 -27 l11 -28 1 33 c1 22 -4 32
-14 32 -9 0 -12 6 -9 15 4 8 10 13 14 10 5 -3 10 7 12 22 2 16 7 -231 11 -547
4 -316 12 -892 17 -1280 12 -921 14 -1339 6 -1370 -16 -66 -36 -308 -36 -450
0 -152 1 -160 30 -230 29 -71 30 -76 30 -248 0 -96 -2 -173 -4 -171 -3 3 -6
81 -7 174 -3 152 -15 245 -31 229 -3 -3 -5 3 -5 13 1 10 -2 17 -8 16 -13 -2
-15 27 -17 210 -1 81 -5 144 -9 140 -5 -5 -10 -76 -12 -158 -2 -126 -3 -115
-5 69 l-2 219 21 -19 22 -19 -7 30 c-4 16 -12 33 -18 36 -6 4 -7 12 -3 19 5 8
4 11 -3 6 -17 -10 -21 96 -32 864 -28 1952 -33 2425 -23 2328 2 -21 8 -38 14
-38 5 0 9 -7 9 -17 0 -9 2 -14 5 -11 3 2 -1 44 -8 92 -7 48 -16 84 -20 80 -4
-4 -7 13 -6 37 l1 44 11 -32 c7 -17 16 -35 21 -40z m1529 -931 c-1 -1072 -15
-3338 -21 -3304 -5 34 -30 27 -34 -10 -2 -17 -7 -33 -13 -35 -30 -9 -35 16
-41 212 -7 193 -7 198 12 191 44 -19 54 -19 48 -2 -4 9 -14 16 -23 15 -49 -4
-51 14 -16 136 14 49 16 84 11 195 -3 74 -12 177 -20 228 -12 79 -13 335 -9
1610 3 835 9 1533 14 1552 6 26 7 20 2 -23 -3 -38 -1 -62 7 -72 9 -11 9 -15 1
-15 -7 0 -9 -10 -7 -22 13 -62 15 -107 3 -112 -9 -5 -9 -7 1 -12 15 -7 16 -34
1 -34 -8 0 -8 -4 0 -14 8 -9 8 -16 2 -20 -6 -4 -7 -15 -1 -30 5 -14 5 -27 0
-32 -14 -14 0 -56 16 -50 8 3 14 1 14 -4 0 -6 4 -10 10 -10 5 0 7 12 5 28 -7
42 -13 223 -7 244 10 39 18 15 21 -59 3 -109 11 -105 11 5 0 75 -3 90 -14 86
-21 -8 -43 35 -25 47 10 6 15 3 17 -11 2 -11 8 -20 13 -20 5 0 9 63 9 147 0
80 3 143 7 139 4 -3 6 -428 6 -944z m-338 -1841 c-3 -3 -14 0 -23 6 -10 6 -32
14 -49 17 -25 6 -32 4 -35 -11 -3 -16 -5 -15 -17 5 -11 21 -10 23 6 20 17 -3
18 46 23 1232 3 679 6 1226 8 1215 1 -12 8 -27 14 -33 10 -10 10 -15 -1 -21
-11 -7 -11 -9 0 -13 11 -4 11 -10 1 -32 -21 -47 -15 -85 20 -119 29 -29 33
-30 36 -13 2 10 -3 23 -11 28 -26 14 -47 66 -37 91 8 21 9 20 9 -5 1 -16 6
-28 12 -28 7 0 8 11 4 30 -4 19 -3 30 4 30 6 0 11 -4 11 -10 0 -5 5 -10 10
-10 13 0 13 67 0 75 -7 4 -8 24 -4 52 5 33 4 44 -5 39 -7 -5 -11 3 -11 23 0
17 5 31 11 31 6 0 8 -9 4 -22 -5 -21 -5 -21 6 -4 8 13 9 42 5 90 -4 40 -3 76
1 80 5 4 9 -610 11 -1365 1 -755 0 -1375 -3 -1378z m-1345 1697 c0 -10 7 -18
15 -18 8 0 25 -19 37 -42 21 -41 22 -56 24 -278 1 -129 1 -228 -1 -220 -2 8
-6 32 -10 53 -4 28 -12 40 -31 47 -14 6 -24 16 -23 22 3 20 -12 49 -22 42 -5
-3 -9 29 -8 73 1 57 3 70 9 48 14 -55 30 -86 40 -80 6 4 8 11 4 16 -3 6 -8 25
-11 42 -2 18 -13 39 -24 49 -14 12 -19 28 -18 60 l1 43 9 -38 c8 -36 67 -122
77 -112 2 2 -8 28 -23 56 -15 29 -29 77 -33 108 -5 45 -7 51 -13 31 -6 -22 -7
-20 -7 10 1 19 -3 58 -6 85 -6 37 -5 46 3 35 6 -8 11 -23 11 -32z m46 -708 c5
-23 10 -28 19 -20 20 16 23 -17 24 -220 1 -285 11 -1000 16 -1140 2 -77 1
-117 -5 -105 -5 11 -9 82 -9 158 -1 76 -5 136 -9 133 -4 -3 -17 11 -27 30 -13
25 -21 31 -27 22 -13 -22 -9 -70 9 -90 21 -23 14 -31 -12 -12 -19 14 -20 27
-22 357 -1 188 -4 410 -7 492 -4 118 -3 137 5 90 5 -33 11 -76 13 -95 6 -55 7
-57 17 -25 9 32 2 102 -12 111 -13 8 -11 62 2 70 15 9 29 -14 29 -48 0 -33 9
-58 21 -58 5 0 6 19 3 43 -7 43 -58 137 -76 137 -5 0 -2 7 6 16 18 17 22 64 6
64 -6 0 -8 -10 -4 -24 3 -13 1 -27 -5 -30 -8 -5 -10 16 -9 66 0 40 3 58 5 40
2 -18 8 -30 13 -27 12 7 23 -13 29 -54 4 -19 12 -36 19 -39 23 -7 10 93 -15
120 -12 13 -25 35 -28 51 -4 15 -11 27 -16 27 -5 0 -9 15 -9 32 l0 33 25 -37
c14 -21 28 -51 31 -68z m959 -1012 c-6 -170 -7 -176 -58 -351 -31 -109 -48
-128 -57 -66 l-6 34 -8 -30 c-6 -24 -4 -33 12 -45 16 -13 18 -20 9 -35 -6 -11
-11 -68 -13 -126 l-2 -107 64 -7 c62 -6 63 -7 59 -33 -3 -15 -14 -87 -24 -160
-11 -74 -21 -136 -24 -138 -5 -5 -225 21 -231 27 -2 2 6 75 17 163 l21 158 53
-4 53 -5 0 96 c0 92 -2 99 -56 233 -41 103 -53 142 -45 152 8 9 7 18 -4 32
-13 18 -14 18 -9 -6 4 -21 3 -22 -4 -5 -5 11 -17 61 -26 110 -10 50 -24 115
-32 146 -18 73 -17 91 4 53 26 -47 58 -84 74 -84 7 0 29 -10 47 -23 l34 -23
53 50 c54 53 84 101 84 136 0 11 5 20 10 20 7 0 8 -56 5 -162z"/>
<path d="M5591 7576 c1 -58 6 -111 11 -118 7 -10 8 -8 4 5 -3 9 -1 17 4 17 6
0 11 -17 11 -37 1 -22 3 -30 6 -18 3 11 10 23 16 27 6 4 12 54 15 117 l3 111
-36 0 -36 0 2 -104z"/>
<path d="M6817 6228 c-9 -1912 -16 -2372 -34 -2356 -10 8 -11 13 -3 18 7 5 6
11 -5 20 -13 10 -15 9 -15 -7 0 -10 -9 -25 -20 -33 -27 -19 -25 -27 11 -45 30
-16 56 -12 30 4 -10 7 -9 10 3 14 14 6 16 -21 16 -254 l0 -261 38 8 c20 5 82
8 137 6 91 -2 107 -5 175 -38 41 -19 87 -47 103 -61 l27 -27 2 115 c5 323 4
428 -3 423 -5 -2 -4 9 2 25 6 16 9 46 6 68 -3 36 -4 36 -5 -9 -1 -26 -6 -50
-12 -53 -13 -8 -13 37 1 94 6 29 6 46 0 50 -5 4 -13 84 -17 178 -6 157 -8 170
-23 156 -12 -12 -13 -17 -3 -21 14 -4 17 -72 2 -72 -5 0 -10 -8 -10 -17 0 -14
2 -15 9 -5 9 15 23 -195 14 -227 -8 -32 -33 0 -32 41 0 27 2 30 9 13 6 -13 8
7 8 60 -1 73 -2 75 -8 30 -11 -81 -11 330 1 1170 15 1099 21 1341 37 1357 9
10 12 -9 12 -91 0 -75 -3 -100 -12 -95 -7 5 -8 3 -3 -7 5 -7 8 -92 8 -189 -1
-136 1 -164 8 -125 5 28 10 165 12 307 1 147 6 254 11 251 5 -4 6 7 2 23 -12
45 -7 107 9 124 13 12 15 12 15 -8 0 -13 -4 -20 -10 -17 -6 4 -10 -11 -10 -39
0 -24 4 -46 9 -48 5 -2 4 -26 -2 -56 -8 -39 -8 -55 0 -60 7 -5 9 -29 4 -75 -4
-38 -4 -70 -1 -72 9 -5 20 123 20 222 0 47 -4 73 -11 73 -8 0 -8 4 -1 13 6 7
9 49 7 97 -4 111 -3 109 -20 80 -19 -34 -19 -18 1 28 16 36 20 80 31 292 3 58
7 107 10 110 6 7 -8 -1279 -27 -2415 -15 -906 -20 -1256 -21 -1496 l0 -226 41
-79 c65 -127 83 -241 75 -479 -7 -224 -8 -244 -16 -240 -3 2 -13 -22 -23 -55
-10 -32 -29 -79 -42 -104 l-24 -46 85 0 85 0 2 53 c0 28 1 58 1 64 -1 7 3 10
8 7 12 -7 120 86 113 97 -3 5 1 7 8 4 19 -7 242 211 232 227 -4 7 -4 10 1 6 9
-9 35 9 35 24 0 6 -8 4 -17 -3 -14 -12 -13 -9 2 16 26 41 29 43 21 18 -13 -41
8 -24 51 40 67 99 89 208 59 281 -14 33 -57 59 -63 39 -2 -6 -14 -8 -26 -6
-45 9 -107 -67 -107 -131 0 -47 -18 -53 -147 -51 -65 2 -126 6 -135 10 -12 5
-18 18 -18 39 0 55 21 149 44 197 21 44 21 46 2 65 -18 19 -18 19 -7 -3 8 -16
7 -29 -4 -57 -20 -46 -26 -46 -21 2 3 20 8 321 11 667 3 347 10 873 15 1170 5
297 14 851 21 1230 6 380 13 692 15 694 2 2 4 -53 4 -122 0 -70 4 -127 8 -127
4 0 7 18 5 39 -1 25 4 44 13 51 16 14 19 30 5 30 -5 0 -12 -8 -14 -17 -4 -17
-5 -17 -6 -1 0 10 8 26 19 36 17 16 19 24 11 45 -8 21 -7 25 4 20 8 -3 15 -15
16 -27 0 -11 4 -30 9 -41 7 -15 9 -5 8 35 0 30 3 142 6 248 6 135 4 192 -3
192 -6 0 -11 5 -11 11 0 5 5 7 10 4 6 -4 10 11 10 37 0 24 3 118 7 211 l6 167
-255 0 -256 0 -6 -627 c-3 -346 -10 -1004 -16 -1463 -6 -459 -13 -1155 -17
-1547 -5 -598 -8 -710 -20 -706 -8 3 -13 13 -12 22 1 9 1 35 0 58 -1 36 -5 44
-31 56 l-29 15 -4 -71 c-7 -105 2 1668 10 2203 6 395 9 446 19 385 6 -38 12
-59 14 -45 l2 25 8 -25 c6 -18 8 -5 8 45 1 48 -2 64 -8 50 -8 -18 -9 -18 -9
-2 -1 10 -8 20 -16 23 -24 9 -18 20 11 19 l26 0 4 295 c2 162 6 401 9 530 2
129 4 245 5 257 0 16 4 21 16 16 13 -5 15 4 14 53 0 33 2 143 6 247 l6 187
-86 0 c-80 0 -86 -1 -86 -21 0 -12 -4 -17 -11 -14 -6 4 -8 13 -5 21 4 11 -10
14 -73 14 l-78 0 -6 -1452z m170 125 c-10 -1900 -21 -3002 -28 -2963 -3 19 -8
31 -9 25 -5 -17 -8 -30 -9 -41 0 -7 -17 -14 -37 -16 l-37 -4 8 1490 c4 820 8
1518 9 1551 1 33 3 240 4 459 1 220 5 397 8 393 3 -3 6 -60 5 -126 0 -66 4
-132 10 -148 7 -20 7 -34 -3 -52 -10 -18 -10 -25 -1 -28 9 -3 9 -12 2 -29 -13
-36 -11 -48 6 -30 8 8 15 28 15 44 0 16 3 32 7 35 3 4 8 56 9 116 2 70 9 123
19 147 8 20 14 46 14 58 -1 17 -2 17 -6 4 -8 -31 -18 -19 -17 20 3 80 6 90 14
52 l7 -35 2 42 c0 24 -4 44 -11 47 -10 5 -10 7 0 12 7 3 12 24 11 52 l-1 47
-13 -40 c-13 -39 -13 -39 -12 45 0 64 2 74 6 40 4 -28 9 -40 14 -32 5 7 5 21
2 32 -7 21 2 80 12 80 4 0 3 -561 0 -1247z m519 75 c-3 -216 -8 -526 -11 -688
-3 -162 -7 -497 -10 -745 -3 -247 -8 -484 -10 -525 -2 -41 -7 -367 -11 -725
-4 -357 -10 -672 -14 -700 -4 -27 -5 93 -3 268 3 221 1 317 -6 317 -6 0 -11 5
-11 11 0 5 5 7 10 4 6 -3 10 3 10 14 0 12 -6 21 -12 22 -10 0 -10 2 0 6 6 2
12 15 12 28 0 13 -6 25 -12 28 -10 3 -10 9 0 26 14 25 15 34 3 26 -6 -3 -9 4
-8 15 1 11 4 20 8 20 4 0 6 16 5 36 -1 20 2 38 6 40 5 3 8 32 8 65 0 38 -4 58
-10 54 -6 -4 -10 11 -9 37 0 33 2 38 9 23 7 -17 9 -15 9 12 1 24 -3 31 -13 27
-11 -4 -13 5 -12 42 1 37 -2 47 -16 50 -16 2 -21 -11 -17 -42 0 -4 -5 -11 -13
-15 -9 -6 -6 -9 12 -9 l25 -1 -25 -11 c-25 -11 -25 -11 -2 -15 25 -5 30 -23 6
-23 -8 0 -13 -4 -10 -9 3 -5 -1 -11 -9 -15 -13 -5 -15 15 -15 139 l0 145 45 0
45 0 -2 68 -1 67 -6 -58 c-6 -59 -21 -75 -33 -35 l-6 23 -7 -22 c-4 -12 -13
-24 -21 -27 -11 -4 -14 6 -14 48 0 50 1 53 23 49 21 -4 23 -2 19 31 -5 41 -22
49 -22 10 0 -14 -4 -23 -9 -20 -5 3 -8 50 -6 103 2 54 4 133 6 176 1 62 5 80
19 87 15 8 16 5 12 -18 -2 -15 -9 -33 -15 -39 -7 -9 -5 -13 5 -13 19 0 52 36
44 49 -4 5 -2 13 4 16 7 4 7 11 2 18 -5 7 -6 38 -2 71 4 43 3 59 -6 63 -20 8
-35 -7 -29 -27 4 -12 -1 -22 -12 -29 -16 -9 -16 -12 -3 -21 12 -8 12 -12 2
-18 -7 -5 -10 -16 -6 -25 4 -10 1 -17 -6 -17 -10 0 -11 103 -5 493 4 286 11
498 17 507 6 11 8 4 4 -22 -3 -28 -1 -38 9 -38 18 0 28 16 30 49 3 48 5 51 23
51 13 0 14 2 4 9 -14 8 -8 76 8 86 4 2 8 136 10 297 2 161 4 305 5 321 2 15 3
65 4 112 0 47 4 85 7 85 3 0 3 -177 0 -392z"/>
<path d="M7686 7418 c-10 -451 -16 -799 -26 -1553 -6 -401 -14 -966 -20 -1255
-5 -289 -12 -714 -16 -945 l-7 -420 -25 -35 c-24 -34 -24 -34 -1 -9 13 14 47
44 76 66 47 37 56 53 31 53 -5 0 -6 -6 -2 -12 5 -10 4 -10 -6 -1 -10 9 -10
173 -1 830 6 450 13 881 16 958 3 77 8 268 11 425 4 196 10 290 18 300 20 25
36 70 26 70 -6 0 -10 6 -10 14 0 8 -6 16 -12 19 -10 3 -9 8 3 18 23 20 43 76
34 96 -7 17 -8 16 -15 -2 -7 -16 -9 -13 -9 15 -1 20 6 46 15 58 8 12 14 30 11
40 -3 14 -6 13 -13 -6 -7 -16 -9 6 -6 75 2 54 8 102 13 108 5 5 10 18 11 30 1
11 4 -17 7 -63 8 -117 26 -109 28 13 1 64 -1 93 -7 80 -7 -16 -9 -17 -9 -3 -1
9 4 20 10 24 8 4 7 9 -2 15 -12 8 -12 10 0 18 9 6 15 42 19 122 5 105 4 113
-11 100 -15 -11 -17 -11 -17 1 0 8 5 19 11 25 6 6 15 62 19 124 12 157 -2
-916 -25 -1881 -2 -124 -10 -532 -17 -907 -6 -376 -15 -683 -18 -683 -3 0 -15
-7 -26 -16 -19 -15 -19 -16 1 -9 20 7 35 10 92 21 18 3 30 11 28 17 -3 7 0 28
4 47 8 30 9 31 11 10 2 -25 2 -25 15 4 12 28 13 28 19 9 4 -12 4 -33 0 -47 -6
-27 -10 -26 104 -41 23 -3 70 -19 103 -35 34 -16 66 -27 72 -23 5 3 7 1 4 -4
-7 -11 30 -50 38 -41 3 3 9 124 14 269 l10 264 -4 -280 c-4 -279 -4 -280 20
-320 52 -89 70 -226 44 -330 -6 -27 -27 -80 -46 -117 -18 -37 -33 -78 -34 -90
0 -13 -3 -17 -6 -10 -3 9 -17 -4 -38 -35 -18 -26 -51 -66 -74 -88 -31 -29 -41
-47 -41 -70 0 -24 -4 -31 -20 -31 -18 0 -18 1 -2 20 9 11 -12 -5 -48 -35 l-66
-54 171 -5 c189 -6 209 -12 220 -67 3 -18 10 -33 16 -33 6 0 7 5 4 10 -3 6 -2
10 4 10 5 0 11 -4 13 -9 2 -5 34 -11 71 -13 105 -4 90 -18 -17 -16 -53 1 -99
-1 -103 -5 -3 -4 44 -7 105 -7 l112 0 -24 38 c-35 51 -54 112 -62 188 l-7 64
50 0 49 0 2 93 c1 74 -1 88 -10 70 -12 -24 -28 -31 -28 -12 0 6 -7 8 -16 5 -9
-4 -13 -2 -8 6 4 6 6 66 6 134 l-1 123 29 6 c16 4 34 3 40 0 8 -5 9 -68 4
-217 l-7 -209 79 2 c86 2 124 -12 124 -44 0 -25 24 -80 44 -100 37 -37 133
-12 161 43 19 37 19 132 0 169 -16 32 -34 38 -115 40 -30 1 -68 6 -83 13 l-28
11 3 121 3 121 63 7 c76 8 132 34 149 68 17 35 16 115 -2 150 -17 32 -55 42
-55 14 0 -8 -5 -12 -10 -9 -6 4 -8 10 -5 15 3 4 -4 6 -15 3 -27 -7 -66 -60
-75 -100 -6 -28 -11 -33 -35 -33 -16 0 -31 -6 -33 -12 -4 -10 -6 -10 -6 0 -1
7 -15 12 -38 12 -28 0 -34 -3 -23 -10 13 -9 13 -10 0 -10 -11 -1 -10 -4 4 -15
19 -14 19 -15 -7 -15 -24 0 -27 3 -23 25 4 23 2 25 -30 25 -30 0 -34 -3 -34
-25 0 -14 -5 -25 -11 -25 -7 0 -9 10 -5 25 6 23 4 25 -26 25 -57 0 -63 9 -50
84 15 91 52 167 109 222 62 61 132 92 223 102 49 5 75 12 78 21 3 10 0 12 -12
8 -12 -5 -16 -1 -16 16 0 17 2 19 10 7 5 -8 12 -11 16 -7 4 3 8 87 9 184 1 98
7 201 13 228 8 37 9 -14 5 -201 l-6 -251 55 -6 c30 -3 91 -20 134 -38 44 -19
83 -32 87 -31 5 1 6 -2 3 -6 -3 -5 3 -17 14 -27 18 -17 19 -16 23 31 l3 49 2
-56 c2 -41 10 -70 32 -110 l30 -54 1 50 c0 28 3 70 4 95 2 25 7 162 12 305 6
196 9 239 14 175 l5 -85 2 82 c1 45 -2 84 -7 87 -4 3 -6 72 -3 153 3 111 8
150 18 156 8 4 14 16 13 25 0 14 -2 13 -9 -3 -5 -12 -9 43 -9 143 -1 90 3 161
8 158 4 -3 6 6 3 19 -5 27 12 34 22 9 3 -9 6 -32 6 -52 0 -34 -1 -35 -16 -16
-15 18 -15 18 -9 -6 4 -14 9 -35 12 -47 7 -28 23 -30 23 -3 0 11 5 20 10 20 7
0 9 -35 5 -102 -3 -62 -9 -102 -15 -101 -5 2 -10 -6 -10 -17 0 -18 3 -19 20
-10 16 8 20 22 21 63 3 137 7 222 13 332 17 322 18 330 6 319 -6 -6 -11 -51
-11 -108 -1 -77 -4 -96 -14 -92 -9 3 -15 -4 -17 -17 -8 -43 -20 137 -14 196 8
76 -4 68 -15 -10 -10 -72 5 579 26 1117 2 74 9 281 15 460 6 179 15 448 20
597 6 150 10 350 10 445 0 94 2 169 5 166 3 -3 6 -67 7 -142 1 -112 3 -136 15
-136 12 0 14 10 11 40 -2 22 0 40 4 40 5 0 8 14 8 30 0 17 5 30 10 30 17 0 23
-29 10 -45 -8 -9 -8 -15 -2 -15 6 0 12 -8 15 -17 2 -10 5 44 5 120 l1 137 -74
0 -75 0 0 -72 c-1 -51 -3 -68 -10 -57 -5 9 -9 41 -7 70 l2 54 -162 3 -162 2
-4 -92 -3 -93 -2 93 -2 92 -79 0 -80 0 -4 -42 -4 -43 -1 43 -2 42 -80 0 -79 0
-4 -107 -3 -108 -2 108 c-2 95 -4 107 -20 107 -14 0 -17 -8 -15 -47 3 -53 -2
-49 -12 10 -3 22 -11 37 -20 37 -10 0 -15 -18 -18 -67 l-3 -68 -2 68 -2 67
-115 0 -114 0 -4 -122 -3 -123 -2 123 -2 122 -80 0 -80 0 -1 -132 c-1 -109 -3
-126 -11 -93 -5 22 -7 81 -3 133 l6 92 -160 0 -160 0 -4 -42 -4 -43 -1 43 -2
42 -79 0 -79 0 -6 -262z m974 -53 c1 -27 2 -28 11 -10 10 20 5 -384 -8 -657
-5 -112 -9 -136 -19 -127 -7 6 -23 8 -35 4 -19 -6 -20 -4 -16 22 3 15 9 76 12
135 4 60 11 106 16 102 5 -3 9 -14 9 -25 0 -10 4 -19 9 -19 15 0 23 18 11 25
-13 8 -13 48 0 61 12 12 1 206 -11 198 -5 -3 -7 14 -5 38 2 23 9 44 15 46 16
5 14 62 -9 208 -11 71 -20 140 -19 154 1 32 38 -114 39 -155z m-644 -142 c-3
-148 -9 -380 -11 -518 -3 -137 -10 -448 -15 -690 -5 -242 -10 -523 -11 -625
-1 -190 -5 -234 -20 -224 -5 3 -9 -6 -9 -20 0 -14 5 -26 10 -26 6 0 10 -67 10
-181 0 -157 -2 -180 -15 -175 -8 3 -15 1 -15 -3 0 -5 6 -11 13 -14 9 -3 11
-68 6 -298 -4 -162 -7 -377 -8 -479 -1 -122 -5 -180 -11 -170 -8 14 -7 152 5
510 3 100 3 101 -4 22 -4 -46 -11 -86 -17 -90 -13 -9 -17 -62 -4 -62 6 0 9
-22 8 -49 -1 -27 -5 -48 -8 -46 -3 2 -7 -8 -8 -23 -1 -14 -9 -30 -17 -35 -9
-4 -13 -13 -10 -18 4 -5 10 -7 15 -4 5 3 2 -9 -7 -26 -11 -22 -18 -27 -23 -18
-6 8 -10 3 -14 -17 -2 -16 -2 72 1 196 2 124 4 240 4 258 -1 28 2 32 24 32 21
0 25 4 25 31 0 24 -4 30 -15 25 -10 -4 -15 1 -15 14 0 11 5 20 10 20 6 0 10 6
10 14 0 8 7 22 16 30 18 18 10 38 -11 29 -17 -6 -17 -5 -16 122 0 55 -2 74 -9
60 -11 -25 -12 241 -3 602 4 166 10 260 16 256 6 -4 7 11 3 39 -8 50 0 79 18
72 7 -3 17 5 23 18 9 19 11 12 14 -46 5 -78 -2 -96 -25 -77 -14 12 -16 10 -16
-13 0 -14 -4 -26 -10 -26 -6 0 -9 -36 -8 -92 1 -84 2 -88 8 -38 7 54 7 54 8
12 2 -37 4 -41 16 -29 14 14 19 90 5 81 -17 -10 -16 29 1 46 28 28 32 25 29
-25 -2 -24 0 -47 3 -51 4 -3 7 76 7 175 1 115 -3 181 -9 181 -5 0 -10 -4 -10
-10 0 -5 -9 -19 -20 -30 -11 -11 -20 -27 -20 -35 0 -8 -5 -15 -11 -15 -9 0
-10 125 -4 483 4 265 9 500 11 522 1 22 4 137 6 255 2 197 3 202 5 62 3 -135
5 -151 18 -138 8 8 15 28 15 45 0 17 4 31 8 31 5 0 7 15 4 33 -3 22 -1 29 6
22 20 -18 15 -79 -10 -128 -13 -26 -27 -45 -30 -41 -4 3 -6 -34 -5 -82 2 -74
5 -89 19 -92 9 -2 18 5 21 15 3 10 4 -22 3 -72 -3 -78 -6 -95 -30 -129 -21
-32 -26 -50 -26 -102 0 -52 3 -62 15 -58 8 4 15 3 15 -1 0 -3 -7 -13 -15 -21
-10 -11 -15 -35 -15 -77 0 -44 3 -58 10 -47 5 8 10 23 10 33 0 9 5 17 10 17 6
0 10 -16 8 -35 -1 -19 -5 -35 -9 -35 -12 0 -21 -43 -25 -120 -2 -41 -6 -83 -8
-92 -2 -10 1 -18 6 -18 16 0 37 32 38 55 0 17 2 17 10 5 7 -11 10 -6 9 20 0
19 -3 28 -6 20 -12 -30 -43 -35 -43 -7 0 7 4 6 10 -3 8 -12 10 -11 10 8 0 12
5 22 10 22 6 0 10 10 10 23 0 18 2 19 10 7 5 -8 10 -10 10 -4 0 18 -27 37 -35
24 -3 -6 -11 -8 -16 -4 -5 3 1 14 13 24 21 17 24 17 29 2 4 -9 9 36 10 101 2
64 1 117 -3 117 -5 0 -8 8 -8 18 0 14 2 15 10 2 8 -12 10 -11 10 7 0 12 -5 25
-10 28 -6 4 -8 10 -5 15 3 4 -2 11 -11 14 -8 3 -12 10 -9 16 4 6 11 8 16 5 5
-4 9 2 10 12 0 10 2 77 4 148 2 72 6 189 9 260 3 72 8 226 12 343 3 116 9 212
11 212 3 0 2 -120 -1 -267z m74 76 c-1 -79 -2 -157 -2 -174 -2 -58 2 -86 12
-80 6 3 10 -4 10 -17 0 -17 3 -19 9 -9 15 24 22 -6 15 -68 -5 -45 -10 -58 -20
-54 -8 3 -14 1 -14 -5 0 -5 7 -13 16 -16 17 -7 17 -10 -1 -148 -3 -21 -1 -38
4 -38 6 0 13 21 16 48 4 26 10 63 15 82 4 19 9 67 10 105 1 39 5 135 9 215 6
103 7 50 4 -185 -2 -181 -6 -347 -8 -367 l-5 -38 82 -1 c65 -1 76 -3 49 -9
-19 -5 -41 -6 -50 -2 -9 3 -13 1 -9 -3 5 -5 -2 -13 -15 -19 -12 -7 -23 -17
-23 -24 -1 -7 -2 -17 -3 -24 -1 -11 -15 -3 -17 10 0 4 -4 14 -8 23 -4 9 -6 22
-4 30 6 30 -26 12 -34 -18 -8 -32 -28 -46 -28 -20 0 8 -3 8 -9 -2 -7 -11 -10
-9 -14 10 -2 15 -5 7 -6 -19 0 -24 3 -41 8 -38 5 4 13 -8 17 -26 7 -32 8 -32
14 -8 5 20 8 16 11 -22 2 -26 1 -57 -2 -70 -6 -18 -7 -15 -8 15 -1 24 -5 36
-11 32 -6 -4 -8 -15 -5 -26 7 -21 -10 -27 -18 -6 -3 7 -6 5 -6 -5 -1 -10 4
-18 9 -18 6 0 10 -12 10 -27 0 -23 -2 -25 -11 -13 -8 12 -10 9 -6 -12 2 -15 0
-25 -4 -22 -5 3 -9 -4 -9 -16 0 -11 7 -23 15 -26 8 -4 15 -10 15 -15 0 -4 -7
-6 -15 -3 -12 5 -15 -3 -14 -42 2 -46 2 -47 8 -14 11 63 19 9 15 -104 -3 -99
-2 -110 16 -126 31 -27 25 -43 -9 -25 l-30 15 2 -48 c1 -26 -1 -58 -4 -72 -3
-14 -4 -19 -2 -12 7 21 23 13 23 -11 0 -13 -3 -26 -6 -30 -5 -5 -9 -109 -13
-327 0 -41 -5 -82 -11 -90 -13 -20 -13 78 2 813 6 334 16 607 20 607 5 0 8 -6
7 -12 -3 -25 1 -48 9 -48 4 0 8 18 7 40 0 28 -4 39 -12 35 -10 -3 -13 27 -13
134 0 176 12 592 17 587 2 -2 3 -68 3 -147z m756 -186 c-11 -445 -16 -523 -34
-523 -17 0 -62 46 -62 62 0 5 -5 6 -11 2 -8 -5 -10 27 -6 117 4 68 6 168 7
221 0 82 2 96 15 92 16 -7 20 6 6 22 -4 5 -11 24 -14 42 -8 38 9 44 23 7 5
-14 17 -25 26 -25 12 0 14 -6 9 -29 -4 -19 -2 -30 7 -33 14 -6 14 -12 21 147
7 149 6 145 13 145 4 0 4 -111 0 -247z m169 -65 c-4 -145 -9 -274 -10 -288 -1
-14 -3 -63 -4 -110 -2 -47 -6 -77 -10 -67 -4 10 -6 56 -6 102 1 46 -2 82 -7
79 -4 -3 -8 -11 -8 -17 0 -7 -12 -23 -25 -36 l-25 -23 0 41 c0 23 5 41 10 41
6 0 10 7 10 15 0 8 7 15 15 15 8 0 15 8 16 18 1 11 4 9 9 -8 7 -23 8 -23 10
10 1 19 4 47 5 62 3 21 0 26 -16 25 -10 -1 -19 -7 -19 -14 0 -7 -5 -13 -11
-13 -7 0 -9 9 -5 23 3 12 6 27 6 32 0 6 5 3 10 -5 7 -11 10 -5 10 23 0 43 -2
53 -12 50 -5 -2 -8 7 -8 20 0 18 -2 19 -10 7 -8 -13 -10 -12 -10 3 0 9 5 17
10 17 6 0 10 15 10 34 0 19 6 36 14 39 9 4 13 26 14 72 1 72 12 106 12 39 0
-29 3 -35 10 -24 5 8 10 34 10 58 0 23 3 42 6 42 4 0 3 -118 -1 -262z m-308
-485 c-21 -5 -57 -38 -57 -52 0 -5 8 -11 18 -15 9 -3 23 -9 31 -12 10 -5 13
-1 8 15 -3 11 -1 21 4 21 5 0 9 -6 9 -14 0 -21 29 -27 96 -22 100 9 328 10
347 2 18 -9 24 -46 7 -46 -6 0 -10 8 -8 18 2 13 -5 18 -32 20 -32 4 -862 -28
-867 -32 -4 -3 -12 -280 -18 -601 -13 -689 -18 -861 -25 -874 -5 -10 -9 -2
-10 22 -2 61 -2 71 6 101 11 46 -12 23 -47 -46 -21 -41 -27 -64 -20 -71 7 -7
12 -1 16 19 11 47 13 51 15 19 2 -30 2 -30 10 -5 7 20 8 16 9 -22 1 -27 -3
-48 -7 -48 -5 0 -15 -19 -23 -42 l-13 -43 -7 45 c-5 37 -6 30 -8 -40 -1 -50
-5 -79 -10 -70 -4 8 -4 161 0 340 4 179 8 360 8 403 1 43 5 76 9 73 5 -3 6 33
4 80 -4 72 -2 84 11 79 11 -5 16 3 20 37 3 24 8 57 12 73 5 27 4 26 -13 -9
-11 -22 -22 -34 -26 -27 -8 12 -7 418 1 438 3 7 9 10 14 7 5 -3 9 1 9 8 0 7 3
24 6 38 4 18 3 21 -4 11 -12 -17 -19 6 -20 64 l0 40 11 -37 c12 -44 29 -51 21
-9 -4 17 0 40 10 58 8 17 12 33 9 37 -4 3 -1 6 5 6 7 0 12 -6 12 -14 0 -8 4
-17 9 -20 5 -4 8 2 7 11 -3 17 51 52 80 53 6 0 17 7 24 15 9 11 30 15 74 14
33 -1 50 -3 36 -5 -56 -9 -98 -25 -104 -40 -5 -14 0 -15 36 -10 24 3 69 7 101
8 33 0 53 5 45 9 -10 6 -9 9 2 12 8 2 30 9 48 15 19 6 40 8 47 6 8 -3 22 -1
32 5 10 6 27 10 38 10 18 -1 18 -2 2 -6z m466 -216 c-2 -4 1 -14 7 -23 9 -9
12 -50 11 -123 -1 -62 3 -112 8 -116 6 -3 7 -13 4 -21 -3 -9 0 -20 7 -24 9 -6
12 -33 11 -94 -1 -55 2 -86 8 -86 7 0 11 -22 10 -52 0 -29 -3 -47 -6 -40 -8
19 -23 3 -23 -25 0 -21 2 -24 15 -13 12 10 15 10 15 -3 0 -8 -7 -20 -15 -27
-13 -10 -13 -14 0 -27 12 -11 13 -31 8 -91 -3 -42 -7 -79 -9 -81 -5 -5 -9 92
-6 132 1 17 -2 26 -8 22 -5 -3 -10 0 -10 9 0 8 -6 17 -12 20 -10 5 -10 7 0 12
6 3 12 12 12 20 0 9 -3 13 -7 11 -5 -3 -9 45 -11 106 -3 126 -14 160 -23 72
-10 -99 -2 -369 10 -373 6 -2 8 -8 5 -14 -3 -5 3 -16 15 -24 17 -12 19 -19 11
-35 -19 -35 -40 -23 -42 24 0 24 -4 9 -8 -38 -7 -91 -4 -115 17 -115 11 0 13
7 9 23 -18 68 -18 73 -3 55 8 -10 17 -15 20 -11 4 3 7 -3 7 -15 0 -12 4 -22 9
-22 10 0 25 -69 17 -78 -4 -3 -12 2 -19 12 -9 12 -23 17 -42 14 -24 -2 -29 -7
-27 -25 2 -12 -2 -25 -9 -29 -9 -5 -11 22 -6 117 4 68 12 309 19 534 10 312
14 381 18 290 5 -110 7 -120 25 -122 16 -2 17 -1 3 5 -14 6 -16 23 -13 125 2
68 0 117 -6 117 -5 0 -9 24 -8 53 1 49 1 50 9 17 5 -19 6 -38 3 -43z m-133 9
c0 -13 -18 -15 -380 -31 -52 -3 -141 -8 -197 -11 -85 -4 -103 -3 -103 9 0 16
60 21 370 33 91 4 167 8 169 10 2 2 35 4 73 4 50 0 68 -3 68 -14z m-329 -119
c-9 -12 -6 -16 16 -20 20 -4 31 0 41 14 24 34 40 12 40 -54 0 -79 2 -87 12
-62 4 11 5 32 3 48 -5 22 -2 27 15 27 29 0 39 -20 18 -36 -11 -8 -13 -13 -5
-16 14 -5 20 -108 6 -125 -5 -7 -31 -13 -57 -13 -41 0 -49 -3 -54 -22 -6 -23
-6 -23 -22 -3 l-16 20 4 -20 c2 -16 -3 -21 -29 -23 -31 -3 -33 -1 -34 30 -2
30 -2 31 -6 6 -4 -29 -23 -39 -23 -14 0 11 -15 16 -52 18 l-53 3 -3 58 c-2 45
0 59 13 63 14 6 14 8 -2 20 -17 12 -17 14 -1 30 20 21 41 9 35 -20 -3 -11 -1
-30 3 -41 7 -15 9 -10 9 22 1 23 6 45 12 49 8 5 7 9 -1 14 -17 10 -5 40 15 40
19 0 32 -29 17 -39 -7 -4 -6 -12 3 -24 13 -17 14 -17 17 9 2 16 12 33 23 39
13 6 19 17 17 29 -5 25 19 39 37 21 11 -11 12 -17 2 -28z m309 -546 c0 -6 -4
-12 -8 -15 -5 -3 -125 -10 -268 -15 -142 -6 -289 -13 -326 -15 -61 -3 -68 -1
-68 15 0 17 9 19 83 20 45 1 152 5 237 9 246 10 350 11 350 1z m-390 -229 c0
-5 -27 -48 -61 -98 -95 -139 -139 -218 -139 -249 0 -33 7 -30 13 5 8 40 29 80
43 80 8 0 11 6 8 15 -4 8 -2 15 4 15 5 0 13 11 16 25 4 14 13 25 22 25 8 0 13
4 9 10 -8 12 16 50 32 50 7 0 10 6 7 14 -3 8 3 20 14 27 11 8 21 19 22 24 16
59 24 62 214 65 l129 2 -7 -394 c-7 -447 -12 -618 -17 -622 -5 -4 -295 -15
-462 -18 l-118 -1 2 229 c1 126 4 355 8 509 l6 280 95 3 c83 2 125 5 153 11 4
0 7 -3 7 -7z m-585 -665 c0 -306 -4 -473 -10 -474 -7 -2 -9 156 -6 465 3 409
5 482 14 482 1 0 2 -213 2 -473z m175 -102 c0 -130 -4 -205 -10 -205 -5 0 -10
14 -10 30 0 17 -4 30 -9 30 -14 0 -23 -32 -11 -44 5 -5 10 -46 10 -91 0 -50 5
-86 12 -93 9 -9 9 -12 0 -12 -7 0 -12 -7 -12 -16 0 -9 5 -12 12 -8 19 12 446
16 453 4 4 -6 -22 -11 -72 -12 -72 -2 -73 -2 -18 -5 80 -5 91 -9 75 -28 -7 -9
-10 -18 -6 -22 3 -3 6 -1 6 5 0 18 40 15 46 -3 7 -17 43 -11 56 9 5 7 8 4 8
-6 0 -10 5 -18 10 -18 6 0 11 8 11 18 1 13 2 13 5 2 4 -13 31 -16 168 -17
l163 -1 -5 24 c-2 13 -9 27 -15 31 -6 4 -8 0 -4 -10 8 -21 -6 -22 -23 -2 -9
10 -9 15 -1 15 6 0 11 5 11 10 0 16 -27 12 -34 -5 -3 -8 -1 -15 4 -15 6 0 10
-4 10 -10 0 -11 -33 -14 -43 -4 -3 4 -2 16 4 26 10 19 8 20 -48 14 -32 -4 -64
-2 -72 3 -8 5 24 9 88 10 106 2 110 0 150 -52 12 -15 12 -17 -4 -11 -13 5 -16
3 -13 -7 3 -8 17 -14 31 -13 15 0 27 -4 27 -8 0 -7 -539 -14 -595 -8 -11 1
-23 7 -27 14 -6 8 -8 8 -8 -1 0 -7 -4 -13 -10 -13 -5 0 -10 6 -10 14 0 8 -14
15 -35 18 -43 5 -47 -8 -5 -17 71 -16 17 -24 -170 -25 -131 0 -200 3 -200 10
0 5 6 10 13 10 11 0 16 30 22 123 4 67 7 131 6 142 -3 45 11 145 20 139 21
-13 39 66 39 176 0 60 2 110 5 110 3 0 5 -92 5 -205z m-138 -580 c7 -7 8 2 4
28 -8 43 10 52 20 11 4 -15 3 -194 -1 -398 -10 -451 -8 -422 -17 -418 -5 1
-14 2 -20 2 -10 0 -10 2 -1 8 13 8 19 58 15 125 -1 23 -6 36 -12 32 -5 -3 -10
-1 -10 4 0 6 5 11 11 11 6 0 8 7 5 15 -3 8 -9 23 -13 32 -5 13 -3 15 11 10 17
-7 18 1 12 125 -3 73 -8 153 -12 178 -4 32 -2 41 5 30 8 -12 11 -12 17 5 5 11
3 20 -4 23 -7 2 -12 18 -12 36 0 18 -4 36 -9 42 -10 10 -15 78 -11 134 3 35 3
35 7 5 3 -16 9 -34 15 -40z m669 -351 c-6 -206 -13 -379 -16 -384 -4 -6 -15
-10 -26 -10 -19 0 -21 4 -23 72 -1 24 -8 42 -19 51 -17 12 -19 30 -18 230 1
119 5 227 10 239 6 15 8 -18 5 -87 -3 -91 0 -117 15 -150 l18 -40 -3 90 c-2
49 1 114 8 145 9 45 8 64 -4 106 -14 48 -14 52 3 62 14 9 17 19 13 41 -3 16
-2 31 3 34 5 3 10 -6 11 -21 1 -14 7 -31 13 -37 8 -7 10 -4 9 10 -1 11 -1 31
0 45 3 25 3 25 7 2 3 -13 0 -192 -6 -398z m-324 59 c-4 -159 -9 -389 -12 -513
-8 -331 -13 -390 -33 -390 -15 0 -15 2 -2 10 13 8 15 61 17 357 2 191 6 358 9
371 5 18 3 21 -10 16 -20 -8 -21 5 -1 20 13 10 22 160 25 389 0 15 3 27 7 27
3 0 3 -129 0 -287z m-62 217 c4 -6 6 -71 6 -145 -1 -116 1 -134 14 -129 8 4
15 1 15 -5 0 -6 -7 -11 -15 -11 -8 0 -15 -4 -15 -10 0 -5 7 -10 15 -10 8 0 15
-7 15 -15 0 -8 -9 -15 -20 -15 -16 0 -19 -5 -14 -29 4 -16 1 -32 -5 -35 -17
-11 -13 -36 7 -37 16 -1 16 -2 0 -6 -22 -5 -24 -23 -3 -23 8 0 15 -4 15 -10 0
-5 -9 -10 -20 -10 -12 0 -20 -7 -20 -16 0 -11 6 -14 18 -10 14 5 14 4 -2 -9
-14 -10 -20 -31 -23 -72 -7 -94 -13 -74 -13 44 0 278 13 563 26 563 7 0 16 -5
19 -10z"/>
<path d="M9536 7513 c-3 -93 -8 -285 -11 -428 -9 -415 -32 -1122 -70 -2130 -8
-220 -19 -537 -25 -705 -6 -168 -17 -501 -25 -740 -8 -239 -15 -472 -15 -517
l0 -83 -54 0 c-50 0 -54 -2 -66 -29 -6 -16 -23 -44 -36 -62 -14 -19 -25 -48
-25 -68 -1 -33 -2 -34 -8 -9 l-6 27 -37 -23 -36 -22 41 -22 c23 -13 58 -44 77
-69 19 -26 40 -51 45 -57 6 -6 11 -18 12 -26 1 -8 7 -33 13 -55 l10 -40 -4 52
c-2 29 1 53 5 53 5 0 9 -10 10 -22 0 -13 3 -17 6 -10 3 7 2 20 -3 30 -4 9 -6
25 -5 35 1 9 -1 17 -6 17 -4 0 -9 62 -11 137 -2 75 -6 141 -8 145 -3 4 14 8
38 8 38 0 44 -3 45 -22 2 -20 1 -21 -8 -5 -15 26 -29 21 -29 -10 0 -21 3 -24
10 -13 20 31 23 -27 16 -288 -6 -212 -5 -267 6 -273 20 -13 2 -22 -47 -23 -25
-1 -45 -5 -45 -11 0 -5 3 -10 8 -11 4 0 14 -3 22 -7 30 -12 55 -12 53 1 -4 17
14 15 21 -3 6 -16 36 -21 36 -7 0 5 16 8 35 8 35 -1 50 -15 18 -17 -16 0 -16
-1 1 -8 18 -7 18 -8 2 -14 -24 -9 -48 -9 -42 1 5 9 -152 -3 -161 -12 -4 -3 43
-6 103 -6 71 0 114 4 122 12 6 6 15 8 19 4 4 -4 1 -11 -6 -16 -10 -6 25 -28
118 -74 72 -37 137 -64 143 -60 6 4 8 3 5 -3 -3 -5 9 -17 28 -26 19 -9 35 -13
35 -7 0 5 -4 12 -10 15 -6 4 -5 13 3 26 9 14 9 22 1 27 -6 4 -9 18 -7 32 13
88 14 139 3 160 -7 12 -7 20 -2 16 17 -10 19 38 2 51 -13 11 -13 12 3 13 17 0
25 20 7 20 -5 0 -7 12 -4 28 3 15 1 38 -4 52 -7 18 -6 28 5 35 14 11 22 119
23 318 0 57 4 87 11 87 8 0 10 -44 5 -152 -3 -84 -8 -229 -11 -323 -3 -93 -8
-227 -11 -297 l-6 -126 32 -17 c17 -9 38 -14 46 -11 8 3 13 2 10 -2 -3 -5 11
-16 30 -26 26 -12 35 -13 31 -4 -2 7 -10 12 -16 10 -7 -1 -10 2 -6 8 3 6 11 7
17 4 7 -4 9 22 7 80 -2 47 0 86 5 86 4 0 5 7 2 16 -4 10 -1 14 6 12 9 -3 12
-36 9 -124 -1 -65 -4 -120 -5 -121 -1 -1 -991 -4 -2201 -7 -2351 -6 -3237 -11
-4765 -26 -1175 -12 -2684 -31 -2688 -35 -4 -4 22 -403 54 -840 14 -187 28
-382 31 -432 6 -90 9 -98 41 -94 7 1 12 -4 11 -11 -3 -24 1 -38 11 -38 5 0 7
6 4 13 -5 13 6 14 51 7 6 -1 1 -5 -10 -10 -14 -6 4 -9 55 -9 43 -1 81 -6 87
-12 9 -9 16 -8 28 5 12 12 13 16 3 17 -7 1 3 5 22 9 33 7 31 8 -20 10 l-55 3
45 6 c25 4 53 3 62 -1 10 -5 18 -3 20 3 2 6 17 9 33 6 28 -4 29 -5 7 -12 -12
-4 -22 -12 -22 -18 0 -6 3 -7 7 -4 7 8 33 -11 33 -25 0 -5 -4 -6 -10 -3 -7 4
-7 -3 0 -20 15 -40 13 -68 -6 -61 -8 3 -13 2 -10 -3 7 -11 56 -11 56 -1 0 5
-6 11 -12 14 -10 5 -10 7 1 12 7 4 21 15 29 25 9 11 21 19 27 19 6 0 16 9 23
20 11 19 10 20 -26 20 -31 0 -38 4 -39 20 -2 17 4 20 38 20 37 0 53 -14 27
-22 -7 -3 5 -5 27 -5 31 -1 35 1 15 6 -39 11 -12 19 69 20 82 2 91 -14 11 -18
-13 -1 -13 -2 0 -11 9 -6 10 -10 3 -10 -7 0 -10 -9 -8 -22 3 -12 0 -27 -6 -35
-11 -13 -10 -14 31 -26 8 -2 -4 -7 -27 -11 -24 -4 -43 -11 -43 -14 0 -7 1429
-5 1609 2 72 3 106 8 112 17 7 11 12 11 27 2 15 -9 22 -9 31 0 8 8 11 8 11 0
0 -7 12 -10 28 -8 15 2 38 4 52 5 l25 2 -28 11 c-15 6 -27 14 -27 17 0 8 103
-6 144 -20 41 -14 53 -12 31 4 -17 12 -15 14 19 20 20 4 34 11 31 17 -8 12 -3
11 30 -1 33 -13 23 -30 -18 -31 -26 0 -28 -2 -12 -8 35 -14 313 -5 332 10 9 8
14 9 10 3 -9 -16 19 -19 158 -18 66 1 259 2 429 3 170 1 306 5 302 8 -4 4 -25
6 -46 4 -43 -3 -53 11 -21 29 14 7 21 6 24 -3 4 -9 8 -9 15 2 8 11 10 11 15 0
4 -10 8 -11 14 -3 4 7 17 14 28 16 18 4 17 7 -13 36 l-34 32 -395 -1 c-217 0
-398 2 -401 5 -3 4 127 6 289 6 162 1 470 2 684 4 215 2 433 0 485 -4 92 -7
90 -7 -43 -6 -75 1 -137 -2 -137 -7 0 -4 -9 -2 -20 5 -10 7 -23 8 -27 4 -4 -5
-2 -11 5 -13 16 -6 16 -33 -1 -33 -7 0 -21 11 -31 25 -25 34 -52 32 -59 -3 -7
-34 -1 -41 17 -17 13 17 14 17 37 -9 22 -25 28 -27 71 -22 43 6 47 5 45 -14
-1 -17 -8 -20 -57 -20 -30 0 -62 -5 -70 -10 -10 -6 82 -10 267 -10 212 0 283
4 287 13 5 9 7 9 12 0 4 -10 47 -13 165 -13 135 0 159 2 159 15 0 8 5 15 10
15 6 0 10 -7 10 -15 0 -8 7 -15 15 -15 11 0 12 5 5 25 -7 20 -6 25 5 25 8 0
15 -4 15 -9 0 -4 23 -6 51 -3 40 4 50 2 44 -8 -4 -7 -21 -10 -41 -8 -20 2 -34
0 -34 -7 0 -12 152 -19 234 -10 79 10 53 25 -43 25 -41 0 -71 3 -68 6 3 4 34
6 67 5 43 -1 66 3 76 14 14 13 14 16 0 21 -23 9 -20 23 7 33 22 9 -18 15 -153
24 -25 2 225 3 555 3 330 0 522 -2 427 -3 l-174 -3 18 -28 c10 -15 25 -32 33
-39 22 -17 61 -16 61 1 0 21 23 26 45 9 19 -15 19 -15 -2 -10 -13 3 -26 1 -29
-4 -5 -8 37 -14 76 -11 8 1 22 -1 30 -4 38 -14 -25 -22 -183 -23 -94 -1 -173
-4 -176 -7 -2 -2 247 -4 555 -5 307 -1 611 -2 674 -4 491 -10 1555 -3 1569 10
2 3 -31 5 -75 5 -54 1 -85 5 -98 15 -11 8 -14 15 -7 15 7 0 9 5 6 10 -4 6 17
10 57 10 44 0 59 3 48 10 -12 8 -12 10 -1 10 8 0 11 3 7 7 -3 4 -41 9 -84 11
-132 7 -93 12 91 12 108 0 177 -4 177 -10 0 -5 -8 -6 -17 -3 -12 5 -15 2 -11
-9 4 -9 1 -21 -5 -27 -9 -9 -8 -15 6 -22 28 -16 19 -28 -25 -32 -37 -3 -34 -4
16 -5 l58 -2 -17 26 c-9 15 -12 24 -7 20 6 -3 13 3 17 14 3 11 10 20 15 20 5
0 7 -7 4 -15 -5 -12 2 -15 32 -14 34 1 36 2 14 9 l-25 8 28 1 c39 1 30 25 -13
32 -20 4 12 7 74 8 60 0 106 -2 102 -6 -4 -4 -35 -7 -69 -6 l-62 1 60 -9 c33
-5 66 -7 73 -4 8 3 26 2 40 -2 25 -7 25 -8 -13 -14 l-40 -6 40 -2 c22 0 53 6
68 14 15 8 25 9 21 3 -5 -8 0 -9 17 -4 13 4 68 15 123 25 l98 17 4 235 c3 129
9 396 14 594 6 199 10 404 10 458 l0 97 75 -7 c56 -4 75 -3 75 6 0 9 9 11 30
6 l30 -7 -1 554 c-1 304 -4 541 -6 526 -2 -16 -7 -28 -11 -28 -4 0 -6 57 -5
127 1 82 -1 122 -7 113 -7 -11 -10 -8 -10 12 0 17 5 27 13 25 6 -1 12 5 12 13
0 8 -6 14 -12 13 -21 -5 -20 85 0 100 9 6 9 10 0 14 -7 2 -13 15 -13 29 0 18
4 22 16 17 15 -5 16 0 11 42 -3 27 -1 60 4 74 7 17 6 27 -3 33 -8 5 -9 8 -2 8
8 0 11 47 11 158 0 88 -3 146 -7 132 -7 -23 -8 -23 -9 -3 -1 12 4 25 9 28 7 4
9 237 8 673 -1 367 -4 633 -8 592 -6 -75 -6 -74 -7 30 -1 58 2 94 6 81 4 -14
8 534 10 1217 l3 1242 -185 0 -185 0 -6 -122 c-3 -68 -8 -307 -11 -533 -3
-225 -8 -441 -10 -480 -3 -38 -10 -216 -15 -395 -16 -502 -50 -1372 -56 -1398
-3 -14 -9 -20 -16 -16 -6 4 -8 3 -4 -4 3 -5 3 -12 -1 -15 -5 -2 -2 -2 5 -1 9
3 12 -14 11 -59 -1 -34 -4 -52 -6 -41 -2 12 -15 26 -29 32 -25 12 -31 27 -14
37 14 9 12 25 -3 25 -7 0 -18 -9 -25 -20 -10 -17 -10 -23 3 -36 20 -20 19 -24
-5 -24 -19 0 -20 5 -16 123 3 67 8 214 11 327 3 113 7 237 10 275 2 39 7 167
10 285 3 118 7 242 10 275 2 33 7 137 10 230 16 484 25 765 25 810 l1 50 15
-35 c10 -22 11 -36 4 -38 -13 -5 -14 -182 -1 -182 12 0 21 78 24 218 2 101 0
112 -15 112 -23 0 -23 20 0 21 15 0 15 1 -1 8 -17 6 -17 8 -3 20 9 7 15 23 15
35 -1 17 -2 17 -6 4 -2 -10 -9 -18 -14 -18 -13 0 -8 52 5 62 5 3 11 50 13 105
2 54 9 103 14 108 7 7 9 -13 6 -62 -5 -70 7 -133 26 -133 5 0 7 6 4 13 -2 6
-1 24 4 39 4 14 4 55 -1 90 -4 34 -4 65 -1 68 4 3 7 32 8 65 0 33 4 86 8 118
l8 57 -160 0 -161 0 -6 -167z m480 -1125 c-19 -674 -41 -1187 -51 -1176 -1 2
-6 30 -9 63 -5 42 -4 56 3 45 8 -11 11 12 12 80 0 52 1 136 2 185 1 50 -1 101
-5 115 -3 14 -7 18 -7 9 -1 -9 -8 -19 -16 -23 -12 -4 -15 3 -15 29 0 19 4 35
9 35 4 0 6 11 3 25 -3 17 1 27 12 31 22 9 21 35 -1 28 -11 -4 -14 -3 -7 3 12
8 25 57 29 103 24 282 25 357 4 344 -5 -3 -9 5 -9 18 0 16 3 19 9 10 11 -18
21 7 21 54 0 26 -3 33 -12 28 -10 -6 -10 -4 0 8 8 10 15 59 19 122 11 190 16
112 9 -136z m160 -462 c-4 -157 -9 -297 -11 -313 -2 -15 -6 -134 -11 -263 -4
-129 -8 -242 -9 -250 -1 -8 -2 -66 -3 -129 -3 -179 -13 -124 -14 75 0 102 -4
168 -8 154 -8 -24 -8 -23 -9 7 -1 22 3 32 12 30 8 -1 12 12 13 38 1 22 2 74 3
115 4 124 3 130 -18 130 -11 0 -22 -6 -24 -12 -6 -13 1 247 8 332 2 25 4 61 4
80 1 19 5 30 9 25 5 -6 3 -91 -3 -190 -7 -99 -8 -189 -4 -200 8 -20 10 -9 13
75 5 106 20 240 27 240 5 0 9 12 9 28 0 22 -2 24 -11 12 -9 -12 -9 -11 -3 5
10 28 23 148 23 228 1 37 4 67 7 67 4 0 4 -128 0 -284z m-432 -1304 c-1 -7 -2
-22 -3 -34 -1 -22 -2 -22 -12 -4 -9 14 -13 16 -20 5 -10 -17 -2 -29 22 -29 25
0 24 -17 -1 -38 -25 -21 -40 -98 -40 -201 1 -65 2 -74 14 -58 7 9 18 17 24 17
8 0 11 34 10 103 -1 58 3 116 9 133 7 16 14 38 16 49 3 11 3 -20 1 -70 -5
-126 -14 -379 -15 -445 0 -30 -3 -49 -6 -42 -2 6 -10 12 -16 12 -8 0 -13 -27
-14 -82 -2 -75 9 -97 20 -38 2 14 5 -34 6 -107 1 -126 -9 -175 -24 -116 -4 17
-2 29 4 31 7 2 11 31 10 70 l-1 67 -10 -60 c-12 -70 -13 -81 -10 -155 2 -42 5
-51 13 -40 10 15 8 -139 -7 -460 -5 -106 -7 -117 -30 -136 -13 -12 -24 -27
-24 -33 0 -7 -6 -11 -12 -9 -7 3 -14 23 -16 46 -2 23 -6 42 -10 42 -4 0 -5 22
-4 50 2 27 8 47 13 44 5 -3 9 2 9 11 0 9 -5 13 -11 9 -16 -10 -7 262 9 278 7
7 12 17 12 23 0 5 -5 3 -10 -5 -7 -10 -9 17 -9 85 1 90 2 96 12 58 5 -24 13
-43 17 -43 5 0 9 69 9 153 2 197 1 190 23 205 15 11 17 22 12 69 -5 36 -3 57
4 62 6 4 13 27 16 51 3 26 3 35 -2 22 -4 -13 -10 -23 -14 -23 -21 2 -24 -1
-23 -26 1 -29 -11 -53 -27 -53 -5 0 -8 35 -6 78 3 71 5 77 26 80 28 4 29 22 1
22 -22 0 -22 1 -16 173 8 202 13 238 39 244 10 3 18 12 18 20 0 8 6 13 13 11
6 -3 12 -10 11 -16z m-3674 -2827 c37 -19 50 -43 50 -92 0 -31 -7 -46 -31 -69
l-30 -29 -845 -3 -845 -2 -30 29 c-38 39 -40 97 -5 138 l24 28 264 5 c144 3
523 6 841 8 501 2 581 0 607 -13z m3200 -291 c25 -6 25 -6 3 -15 -12 -4 -25
-20 -29 -34 -8 -31 4 -47 17 -22 12 20 78 24 111 6 21 -11 21 -12 -3 -25 -13
-7 -20 -13 -16 -14 4 0 3 -9 -3 -19 -6 -13 -17 -17 -30 -14 -11 3 -26 0 -34
-6 -11 -10 -17 -8 -26 6 -9 15 -10 12 -6 -16 3 -18 6 -39 6 -45 0 -6 14 -26
30 -44 25 -28 28 -37 19 -54 -6 -11 -9 -33 -7 -49 3 -21 0 -29 -10 -29 -9 0
-12 -6 -8 -16 9 -23 -21 -54 -52 -54 -17 0 -22 -4 -19 -14 4 -9 -6 -20 -26
-31 l-32 -16 30 5 c25 4 23 2 -12 -14 -24 -10 -43 -24 -43 -30 0 -6 -11 -8
-27 -4 -19 4 -24 3 -14 -4 9 -7 4 -11 -20 -14 -19 -3 -37 -1 -40 4 -3 5 -18 2
-34 -6 -16 -9 -31 -14 -33 -12 -8 9 -52 225 -52 258 0 20 6 41 13 45 21 13 29
43 11 43 -8 0 -12 -4 -9 -10 3 -5 0 -10 -8 -10 -68 0 36 185 129 230 26 13 60
26 76 29 32 7 108 4 148 -5z m-3290 -41 c0 -29 3 -34 12 -25 7 7 24 12 39 12
40 0 59 -33 59 -102 0 -55 -1 -58 -25 -58 -23 0 -25 4 -25 48 0 55 -10 75 -36
70 -16 -3 -20 -14 -22 -61 -3 -53 -5 -57 -27 -57 -25 0 -25 0 -25 105 l0 105
25 0 c22 0 25 -4 25 -37z m-1810 -10 c0 -29 3 -34 12 -25 21 21 75 15 92 -10
24 -33 20 -93 -6 -118 -24 -22 -63 -27 -74 -9 -4 8 -9 8 -17 0 -6 -6 -18 -11
-28 -11 -13 0 -17 15 -23 77 -10 127 -10 133 19 133 22 0 25 -4 25 -37z m605
24 c26 -13 35 -27 35 -56 0 -36 -28 -61 -67 -61 -31 0 -33 -2 -33 -35 0 -31
-3 -35 -25 -35 l-25 0 0 100 0 100 48 -1 c26 -1 56 -6 67 -12z m-981 -18 c40
-31 35 -49 -11 -37 -54 14 -76 11 -90 -8 -19 -25 -16 -51 7 -74 23 -23 50 -26
68 -8 20 20 14 30 -15 26 -20 -2 -29 2 -31 15 -3 14 5 17 52 17 54 0 56 -1 56
-27 0 -33 -7 -43 -40 -66 -65 -45 -161 6 -160 85 2 79 101 126 164 77z m-3122
-85 c2 -42 2 -77 0 -79 -5 -5 -173 41 -175 48 -2 8 143 105 160 106 7 1 13
-25 15 -75z m3776 63 l32 5 0 -76 0 -77 -32 0 c-18 0 -48 -1 -67 -1 -42 -1
-71 30 -71 76 0 51 44 91 84 76 12 -4 36 -5 54 -3z m483 3 c13 -8 19 -7 19 0
0 6 10 10 23 8 20 -3 22 -9 25 -79 l3 -77 -66 0 c-53 0 -71 4 -86 19 -28 28
-25 84 6 114 26 27 46 31 76 15z m389 -2 c0 -9 3 -9 12 0 17 17 49 15 76 -4
19 -13 22 -24 22 -80 0 -62 -1 -64 -25 -64 -24 0 -25 3 -25 55 0 40 -4 57 -15
61 -27 11 -45 -16 -45 -67 0 -46 -2 -49 -25 -49 -25 0 -25 1 -25 80 0 79 0 80
25 80 14 0 25 -5 25 -12z m275 -13 c14 -13 25 -33 25 -45 0 -18 -6 -20 -56
-20 -40 0 -54 -3 -51 -12 3 -9 20 -12 51 -10 50 3 55 -2 29 -30 -10 -11 -30
-18 -54 -18 -49 0 -79 30 -79 79 0 74 83 109 135 56z m285 5 c26 -26 18 -42
-16 -30 -32 12 -54 13 -54 1 0 -5 16 -12 35 -15 32 -6 55 -29 55 -55 0 -37
-77 -54 -118 -25 -36 25 -27 37 23 30 51 -8 63 8 15 19 -31 7 -60 29 -60 46 0
5 9 18 20 29 26 26 74 26 100 0z m380 8 c0 -9 3 -9 12 0 13 13 57 16 74 4 37
-24 45 -101 14 -132 -22 -22 -69 -27 -88 -8 -9 9 -12 2 -12 -35 0 -43 -2 -47
-25 -47 l-25 0 0 115 0 115 25 0 c14 0 25 -5 25 -12z m345 -13 c52 -51 15
-135 -60 -135 -46 0 -85 36 -85 80 0 44 39 80 85 80 25 0 44 -8 60 -25z m182
17 c21 -14 33 -52 33 -102 0 -50 -1 -51 -27 -48 -26 3 -28 6 -25 40 4 41 -12
78 -33 78 -21 0 -37 -37 -33 -78 3 -34 1 -37 -24 -40 l-28 -3 0 79 0 80 63 0
c35 0 68 -3 74 -6z m-2712 -27 c50 -49 15 -135 -55 -135 -40 0 -90 47 -90 85
0 38 41 75 85 75 25 0 44 -8 60 -25z m-3289 -252 l83 -48 1 -70 c0 -38 3 -79
6 -90 3 -12 52 -47 127 -91 67 -39 152 -89 188 -110 65 -38 67 -40 67 -81 1
-30 -3 -43 -12 -43 -9 0 -12 7 -9 20 4 14 -1 21 -20 25 -14 4 -34 5 -44 2 -10
-3 -4 -5 15 -6 38 -1 40 -9 8 -36 -21 -18 -21 -21 -7 -33 9 -7 -15 3 -53 22
l-68 35 3 -84 c5 -99 8 -98 -102 -32 l-68 40 -5 61 c-3 34 -7 74 -8 89 -3 23
-14 35 -59 60 -31 18 -117 68 -192 112 l-137 80 0 51 c0 28 -3 66 -6 83 -4 21
-3 31 5 31 7 0 9 -5 5 -12 -4 -7 -3 -8 5 -4 6 4 23 -1 39 -12 28 -19 139 -82
145 -82 2 0 1 38 -1 85 -3 47 -1 85 3 85 4 0 45 -21 91 -47z m6456 -20 c27
-25 22 -67 -13 -108 l-31 -35 32 0 c26 0 31 -3 28 -20 -2 -12 -6 -21 -10 -20
-5 0 -37 0 -73 0 -36 0 -65 4 -65 9 0 6 23 32 51 60 32 31 49 57 47 68 -4 23
-38 30 -38 9 0 -10 -9 -16 -25 -16 -18 0 -25 5 -25 19 0 44 85 68 122 34z
m183 -3 c11 -12 20 -41 23 -73 4 -46 1 -57 -21 -82 -27 -32 -82 -40 -111 -16
-39 33 -39 150 0 178 28 20 88 16 109 -7z m175 0 c11 -11 20 -27 20 -35 0 -25
-28 -72 -52 -89 -22 -16 -22 -16 15 -16 30 0 37 -4 37 -20 0 -18 -7 -20 -75
-20 -89 0 -95 11 -36 62 42 36 65 73 56 88 -9 15 -35 12 -41 -5 -7 -18 -54
-20 -54 -3 0 6 10 22 22 35 27 29 80 31 108 3z m174 -2 c20 -28 20 -43 0 -62
-14 -15 -14 -17 0 -32 22 -21 20 -50 -4 -74 -39 -39 -129 -13 -130 38 0 18 41
15 55 -5 15 -21 48 -10 43 14 -2 10 -13 19 -26 21 -28 4 -31 42 -3 42 24 0 36
29 15 37 -8 3 -20 1 -27 -6 -14 -14 -57 -15 -57 -1 0 6 9 19 20 30 29 29 94
27 114 -2z m-1774 -10 c27 -30 25 -38 -10 -38 -16 0 -30 5 -30 10 0 6 -9 10
-20 10 -33 0 -23 -28 15 -40 65 -22 83 -62 45 -100 -35 -35 -130 -17 -130 26
0 17 41 19 57 3 13 -13 43 -5 43 10 0 5 -17 15 -37 21 -43 14 -63 34 -63 64 0
54 89 78 130 34z m-3147 -82 c20 -49 37 -93 37 -98 0 -4 -11 -8 -24 -8 -16 0
-27 7 -31 21 -4 13 -12 18 -22 15 -8 -3 -26 -6 -39 -6 -15 0 -24 -6 -24 -15 0
-9 -9 -15 -25 -15 -14 0 -25 3 -25 7 0 16 53 169 63 181 5 7 19 11 31 10 16
-2 30 -24 59 -92z m1679 34 c44 -45 35 -65 -30 -65 -37 0 -52 -4 -52 -13 0
-11 11 -12 50 -7 53 7 60 2 33 -27 -23 -25 -87 -24 -113 2 -26 26 -27 91 -2
112 41 36 76 35 114 -2z m394 19 c4 -8 9 -8 17 0 6 6 19 11 28 11 14 0 18 -15
24 -83 8 -96 -3 -130 -46 -147 -36 -15 -85 -4 -104 23 -23 33 6 44 51 20 22
-13 37 -7 46 18 5 14 0 16 -36 12 -37 -5 -46 -2 -60 18 -23 33 -21 94 4 119
22 22 65 27 76 9z m229 -14 c14 -13 25 -33 25 -45 0 -18 -6 -20 -56 -20 -40 0
-54 -3 -51 -12 3 -9 21 -12 58 -10 l54 4 -24 -26 c-50 -53 -141 -18 -141 54 0
41 39 80 80 80 19 0 40 -9 55 -25z m102 14 c8 -8 13 -8 17 0 13 20 54 12 75
-15 15 -20 21 -41 21 -80 0 -51 -1 -54 -25 -54 -23 0 -25 4 -25 43 0 50 -19
83 -44 74 -12 -5 -16 -20 -16 -62 0 -52 -2 -55 -24 -55 -23 0 -25 3 -28 76 -2
42 -1 78 1 80 8 8 37 4 48 -7z m271 -16 l27 -28 -28 -3 c-16 -2 -35 2 -43 9
-22 18 -49 -11 -40 -45 7 -27 33 -35 53 -15 6 6 21 9 33 7 l22 -3 -22 -27
c-30 -39 -90 -39 -119 -2 -66 83 43 182 117 107z m155 18 c23 -9 36 -31 43
-68 2 -9 -14 -13 -52 -13 -42 0 -54 -3 -54 -15 0 -13 9 -15 50 -9 55 7 65 -4
28 -30 -44 -31 -101 -19 -124 26 -37 72 30 139 109 109z m419 -48 c3 -54 5
-58 28 -58 23 0 25 4 28 58 3 53 5 57 27 57 24 0 25 -2 25 -80 0 -79 0 -80
-25 -80 -14 0 -25 5 -25 12 0 9 -3 9 -12 0 -17 -17 -58 -15 -80 5 -14 12 -18
31 -18 80 0 60 1 63 25 63 22 0 24 -4 27 -57z m279 44 c14 -9 21 -9 31 1 16
16 60 15 83 -2 14 -10 20 -30 23 -80 4 -66 4 -66 -22 -66 -24 0 -26 3 -26 49
0 52 -16 76 -44 65 -12 -5 -16 -19 -16 -60 0 -51 -1 -54 -25 -54 -23 0 -25 3
-25 50 0 37 -4 52 -18 59 -31 17 -46 -3 -43 -58 2 -51 2 -51 -29 -51 l-30 0 0
73 c0 41 2 76 5 79 11 10 118 6 136 -5z m310 -3 c14 -13 18 -13 29 1 16 20 59
19 82 -2 14 -12 18 -31 18 -80 0 -61 -1 -64 -22 -61 -20 3 -23 10 -26 56 -2
35 -8 55 -18 59 -26 10 -44 -17 -44 -68 0 -46 -2 -49 -25 -49 -24 0 -25 3 -25
55 0 40 -4 57 -15 61 -27 11 -45 -16 -45 -67 0 -46 -2 -49 -25 -49 -25 0 -25
1 -25 79 l0 79 63 0 c40 0 68 -5 78 -14z m-2857 -67 c3 -38 4 -73 0 -76 -9 -9
-38 -7 -46 4 -5 6 -12 5 -20 -3 -18 -18 -42 -15 -72 9 -20 16 -26 29 -26 61 0
62 20 77 95 76 l62 -1 7 -70z m411 50 c9 -13 15 -43 15 -74 0 -50 -2 -53 -24
-53 -23 0 -25 4 -28 53 -3 48 -5 52 -28 52 -23 0 -25 -4 -28 -52 -3 -49 -5
-53 -28 -53 -23 0 -24 2 -24 74 l0 74 65 1 c55 0 67 -3 80 -22z m-870 -597
l130 -7 -122 0 c-120 -1 -123 -1 -160 -31 -21 -16 -48 -32 -60 -36 -30 -10
-63 1 -63 20 0 9 -8 14 -17 13 -10 -1 -25 -1 -33 0 -12 1 -11 4 3 12 9 6 27 7
40 3 18 -6 20 -4 10 7 -8 11 -47 15 -153 17 -125 3 -144 1 -162 -14 -16 -16
-20 -16 -28 -4 -8 13 -91 15 -592 14 -485 0 -524 1 -233 6 527 8 1293 9 1440
0z"/>
<path d="M4069 4470 c-3 -14 -1 -41 4 -60 20 -84 29 -353 12 -337 -7 6 -11 22
-9 34 1 13 -2 23 -7 23 -6 0 -5 9 2 21 8 16 8 20 0 14 -7 -4 -18 -1 -26 5 -9
8 -15 8 -15 2 0 -6 5 -12 12 -14 7 -3 8 -10 4 -17 -7 -11 -10 -11 -18 0 -8 11
-9 10 -4 -3 3 -10 1 -18 -5 -18 -6 0 -7 -4 -4 -10 3 -5 13 -10 21 -10 8 0 12
5 9 10 -3 6 -1 10 4 10 6 0 11 -7 11 -16 0 -9 9 -29 21 -45 l20 -29 -20 0
c-12 0 -21 -7 -21 -15 0 -8 -7 -15 -15 -15 -8 0 -15 -2 -15 -4 0 -9 65 -111
73 -114 4 -2 7 -11 7 -20 0 -13 -2 -14 -9 -3 -5 7 -11 9 -14 4 -3 -5 -2 -15 4
-23 5 -8 9 -23 9 -34 0 -15 -3 -16 -15 -6 -11 9 -15 9 -15 1 0 -7 -4 -9 -10
-6 -5 3 -10 17 -10 31 0 17 -5 24 -20 24 -23 0 -26 -8 -6 -24 7 -6 16 -26 20
-45 5 -29 4 -32 -9 -21 -10 8 -15 9 -15 2 0 -6 7 -15 15 -20 9 -4 17 -21 19
-36 1 -15 8 -32 14 -38 19 -19 14 -26 -15 -21 -20 3 -24 2 -15 -5 21 -14 -15
-25 -40 -11 -23 12 -39 2 -18 -11 20 -13 54 -12 83 1 25 11 46 -3 87 -55 14
-18 13 -19 -4 -13 -16 6 -17 5 -7 -7 7 -8 20 -12 28 -9 12 5 15 2 10 -10 -4
-11 1 -18 14 -22 13 -4 18 -13 15 -28 -1 -12 -1 -16 1 -9 8 23 22 12 29 -23 6
-36 24 -58 24 -31 0 18 15 21 25 6 3 -5 -15 -29 -40 -53 -51 -50 -55 -60 -22
-55 16 2 21 9 19 27 -2 17 2 22 13 17 9 -3 14 -2 11 3 -3 4 3 16 13 25 21 19
35 9 20 -14 -5 -8 -9 -24 -8 -35 0 -11 6 -2 14 20 8 22 15 41 15 43 0 1 6 2
14 2 14 0 28 34 18 44 -3 3 -27 6 -54 6 l-48 0 0 35 c0 23 -4 34 -12 32 -9 -1
-13 16 -14 61 -1 64 14 109 34 104 8 -1 12 13 12 38 0 39 0 39 -20 23 -11 -10
-20 -23 -20 -29 0 -16 -28 -26 -36 -13 -3 6 -3 20 0 32 3 14 -3 34 -14 52 -23
35 -24 26 -9 -43 9 -36 9 -54 1 -68 -11 -18 -11 -18 -12 1 -1 11 -3 27 -5 35
-2 8 -9 44 -15 79 -6 36 -13 69 -16 73 -3 5 -10 114 -14 241 -9 222 -14 291
-26 330 -8 26 15 20 26 -7 4 -13 20 -32 34 -44 14 -11 26 -25 26 -30 0 -6 5
-14 12 -18 7 -5 8 -3 3 6 -5 9 -4 11 4 6 7 -4 9 -17 6 -29 -5 -16 -4 -18 3 -8
5 7 15 11 21 7 7 -5 9 -1 4 11 -3 10 11 1 31 -20 20 -20 36 -34 36 -30 0 4
-14 22 -31 39 -19 20 -33 46 -35 66 l-4 33 30 -34 c41 -47 46 -35 6 13 -26 31
-37 37 -55 31 l-22 -7 21 -35 c11 -20 19 -38 16 -40 -8 -9 -106 95 -106 113 0
10 -5 14 -14 11 -9 -4 -16 1 -19 11 -2 12 -5 10 -8 -8z"/>
<path d="M4620 3358 c0 -7 -12 -28 -27 -45 -28 -34 -37 -73 -21 -84 6 -4 6
-15 -2 -29 -10 -19 -8 -26 12 -48 12 -15 28 -30 33 -34 6 -4 0 -8 -12 -8 -12
0 -27 8 -32 18 -6 9 -10 13 -11 7 0 -13 33 -121 55 -179 16 -42 19 -44 31 -29
7 10 14 27 14 38 l1 20 10 -20 c7 -16 9 -14 6 12 -2 18 0 30 4 27 5 -2 13 4
18 15 11 19 51 19 51 0 0 -5 9 -4 19 3 15 9 17 16 9 31 -8 15 -5 22 11 34 20
13 31 40 12 29 -5 -4 -12 -1 -14 4 -3 6 -4 5 -3 -2 1 -7 -4 -20 -13 -29 -14
-17 -15 -17 -32 2 -11 12 -20 16 -24 9 -3 -5 -1 -10 5 -10 6 0 9 -4 5 -9 -3
-5 -1 -12 5 -16 5 -3 10 -12 10 -18 -1 -7 -10 -1 -21 12 -23 28 -23 78 1 73 8
-2 12 -1 8 3 -4 4 -3 18 3 32 5 15 5 22 0 18 -5 -3 -12 -1 -16 5 -4 6 -10 8
-14 5 -16 -9 -43 33 -39 61 2 15 -2 29 -9 31 -7 3 -13 -2 -13 -11 0 -15 -11
-20 -37 -17 -7 1 -13 -4 -13 -10 0 -7 -2 -10 -5 -7 -10 10 8 39 21 34 8 -3 14
-1 14 3 0 5 -5 11 -11 13 -5 2 -7 11 -4 21 4 9 11 14 16 11 5 -3 9 6 9 20 0
14 -2 26 -5 26 -3 0 -5 -6 -5 -12z"/>
<path d="M4000 3305 c0 -6 5 -27 10 -47 8 -28 15 -36 28 -32 14 5 14 4 3 -4
-13 -9 -13 -13 0 -28 13 -16 12 -16 -18 -1 -31 16 -52 9 -38 -12 3 -5 0 -13
-6 -17 -8 -5 -8 -9 2 -14 22 -14 21 -51 -2 -57 -19 -5 -18 -7 11 -21 28 -13
29 -16 16 -31 -9 -9 -13 -26 -10 -38 6 -21 -11 -41 -24 -28 -3 3 -1 9 5 13 8
5 7 12 -3 26 -22 31 -24 15 -8 -49 17 -64 12 -169 -11 -235 -8 -24 -9 -44 -2
-63 12 -36 1 -93 -19 -101 -9 -4 -14 -13 -10 -21 3 -9 0 -15 -10 -15 -9 0 -14
8 -13 18 5 54 0 55 -51 9 -90 -81 -171 -107 -331 -107 l-89 0 0 -107 c0 -60 3
-125 6 -145 l7 -38 213 0 212 0 11 33 c7 19 8 42 5 52 -5 11 -4 16 3 12 6 -4
19 21 30 61 129 422 168 552 212 700 l52 173 -32 27 c-18 15 -45 35 -60 44
-25 16 -30 16 -44 2 -8 -9 -15 -14 -16 -12 0 2 -2 11 -4 22 -4 20 -25 46 -25
31z"/>
<path d="M6950 3043 c-40 -13 -78 -34 -92 -50 -44 -49 -68 -278 -49 -458 8
-82 14 -102 31 -115 13 -10 19 -22 15 -32 -20 -52 156 -56 203 -5 43 46 57
127 57 327 -1 151 -4 195 -19 237 -27 80 -84 118 -146 96z"/>
<path d="M3427 2983 c-11 -3 -16 -11 -13 -20 3 -8 6 -68 6 -134 l0 -119 95 0
c52 0 105 5 119 11 33 15 51 62 50 126 -2 56 -20 93 -57 117 -22 15 -166 29
-200 19z"/>
<path d="M1420 2682 c0 -21 -5 -43 -11 -49 -6 -6 -10 -30 -7 -52 3 -34 1 -41
-14 -41 -15 0 -18 9 -19 48 -1 26 -1 54 0 63 1 9 -5 19 -14 23 -14 5 -16 0
-10 -34 4 -26 3 -40 -4 -40 -6 0 -11 19 -11 44 0 35 4 45 20 49 15 4 22 -1 26
-18 3 -13 12 -26 20 -29 10 -4 14 4 14 29 0 33 -2 35 -34 35 -19 0 -38 -6 -43
-12 -11 -18 -32 -162 -24 -168 3 -3 38 -4 78 -2 l72 4 6 56 c3 31 8 74 10 95
5 36 4 37 -25 37 -28 0 -30 -2 -30 -38z"/>
<path d="M4198 2232 c-21 -2 -30 -11 -36 -35 -5 -18 -8 -33 -7 -34 4 -7 435
11 435 18 0 4 -4 19 -10 34 l-10 26 -172 -3 c-95 -1 -185 -4 -200 -6z"/>
</g>
</svg>
