<?xml version="1.0" standalone="no"?>
<!DOCTYPE svg PUBLIC "-//W3C//DTD SVG 20010904//EN"
 "http://www.w3.org/TR/2001/REC-SVG-20010904/DTD/svg10.dtd">
<svg version="1.0" xmlns="http://www.w3.org/2000/svg"
 width="640.000000pt" height="400.000000pt" viewBox="0 0 640.000000 400.000000"
 preserveAspectRatio="xMidYMid meet">
<metadata>
Created by potrace 1.16, written by Peter Selinger 2001-2019
</metadata>
<g transform="translate(0.000000,400.000000) scale(0.100000,-0.100000)"
fill="#000000" stroke="none">
<path d="M38 3978 c-2 -13 -10 -23 -18 -23 -13 0 -15 -33 -17 -225 l-2 -225
69 -73 c77 -81 74 -82 84 23 6 63 35 300 41 340 3 17 8 56 11 88 4 32 11 60
15 63 11 6 11 -27 0 -84 -6 -30 -5 -42 3 -39 6 2 12 26 14 53 2 27 9 55 17 63
11 12 13 7 9 -30 -3 -24 -9 -69 -14 -99 -5 -30 -14 -101 -20 -158 -6 -56 -18
-142 -25 -190 -25 -150 -27 -144 80 -257 104 -111 99 -97 83 -244 -9 -74 -8
-95 2 -101 11 -7 9 -34 -9 -142 -25 -154 -25 -151 -9 -142 8 5 9 0 4 -17 -4
-13 -11 -71 -17 -129 -5 -58 -18 -175 -29 -260 -11 -85 -53 -461 -95 -835 -65
-586 -88 -789 -122 -1073 l-6 -52 934 0 c514 0 1078 -1 1255 -2 l321 -3 6 239
c4 132 7 285 7 342 0 107 14 155 16 54 1 -45 6 -62 23 -79 15 -15 20 -28 15
-43 -4 -14 -2 -18 5 -14 7 5 11 -5 11 -28 0 -20 -4 -36 -10 -36 -5 0 -10 -14
-10 -31 0 -20 4 -28 12 -23 8 5 9 0 5 -17 -4 -13 -7 -28 -7 -32 0 -5 -4 -5
-10 -2 -5 3 -10 2 -10 -4 0 -5 -3 -16 -6 -25 -4 -12 0 -16 15 -16 12 0 21 -4
21 -10 0 -5 -7 -7 -15 -4 -8 4 -15 1 -15 -5 0 -6 4 -11 9 -11 5 0 5 -21 0 -47
-6 -32 -6 -49 1 -51 6 -2 7 -9 3 -15 -7 -10 -11 -53 -14 -139 0 -24 -19 -34
-19 -11 -1 17 -1 17 -11 0 -5 -9 -7 -22 -4 -27 3 -6 1 -10 -4 -10 -6 0 -11 7
-11 15 0 8 -8 15 -17 15 -286 3 -979 -2 -983 -8 -3 -4 -18 -14 -33 -22 -16 -8
-42 -29 -58 -47 -26 -30 -59 -47 -44 -23 3 5 0 7 -9 4 -8 -3 -32 0 -53 7 -40
14 -45 15 -65 18 -7 2 -4 6 6 10 30 12 29 38 -3 39 -14 0 -29 -5 -33 -12 -6
-8 -8 -7 -8 2 0 21 -49 13 -72 -13 -11 -13 -26 -22 -31 -18 -6 3 -7 1 -3 -5 4
-8 2 -10 -8 -6 -9 3 -12 12 -8 22 5 15 3 14 -13 -1 -13 -13 -20 -15 -25 -7 -5
8 -11 2 -17 -16 -10 -29 -11 -29 -94 -31 -175 -3 -450 -3 -611 -1 -91 2 -164
0 -161 -4 2 -5 16 -8 31 -9 15 -1 38 -5 52 -10 17 -6 5 -7 -35 -3 -33 3 -66 6
-72 7 -7 0 -13 4 -13 9 0 4 -12 8 -27 8 -19 0 -24 -3 -15 -8 7 -5 10 -15 7
-24 -3 -8 1 -21 10 -28 18 -15 21 0 3 18 -9 9 -9 12 -1 12 7 0 15 -4 18 -10 3
-5 11 -10 16 -10 6 0 8 4 5 9 -3 4 6 6 19 3 17 -3 25 -11 25 -24 0 -14 5 -18
16 -14 9 3 19 6 22 6 4 0 0 5 -8 10 -9 6 -10 10 -3 10 6 0 15 -4 18 -10 3 -5
16 -10 28 -9 21 0 21 1 2 9 -17 7 -15 9 13 9 17 1 32 -3 32 -9 0 -5 6 -7 14
-4 8 3 17 1 21 -5 4 -8 115 -11 344 -11 l338 0 63 75 c35 41 70 75 79 75 9 0
50 -34 91 -75 l74 -75 73 0 73 0 0 79 c0 73 2 79 23 85 12 4 104 9 205 12 157
5 182 3 182 -9 0 -9 5 -17 12 -19 7 -3 11 -28 9 -76 -2 -71 -2 -72 23 -72 24
0 25 2 28 73 3 70 4 72 31 75 15 2 27 6 27 10 0 8 318 5 397 -4 l53 -5 -7 -75
-6 -74 351 0 351 0 6 34 c4 19 5 42 3 52 -2 10 -110 94 -247 191 -134 95 -246
175 -249 177 -12 13 97 170 126 181 9 3 57 -26 126 -78 127 -95 286 -200 286
-189 0 5 -28 28 -62 52 -35 24 -139 102 -233 174 -93 72 -206 157 -250 190
-44 33 -83 65 -87 70 -4 6 5 21 21 33 22 17 27 28 23 48 -3 18 3 36 17 55 28
39 27 44 -15 37 -25 -4 -37 -2 -41 8 -3 8 -10 12 -15 9 -7 -5 -9 14 -6 54 l4
61 -76 20 c-115 31 -179 25 -163 -16 4 -11 8 -10 19 4 12 16 13 16 14 2 0 -9
-14 -35 -30 -57 -17 -23 -26 -42 -21 -42 6 0 13 5 16 11 4 5 17 14 30 19 17 6
22 14 18 29 -3 10 0 28 6 38 9 14 10 8 7 -32 -3 -27 -5 -51 -5 -52 -1 -1 -16
-6 -34 -11 -73 -20 -256 4 -312 41 -46 30 -101 144 -113 232 -16 115 11 342
48 416 40 77 127 203 166 241 66 62 147 118 172 118 13 0 21 4 18 8 -3 5 -20
7 -38 4 -32 -4 -32 -3 -13 12 20 15 20 15 -2 16 -19 0 -23 -5 -23 -30 0 -16
-4 -30 -8 -30 -12 0 -85 77 -129 136 -71 95 -125 154 -142 153 -11 0 -10 -3 5
-9 28 -11 38 -38 16 -44 -42 -12 -114 -17 -152 -11 -23 4 -39 9 -37 12 3 2 36
8 74 13 l68 9 -65 -3 c-50 -2 -77 3 -117 21 -29 12 -53 28 -53 34 0 8 7 6 18
-4 22 -20 49 -22 54 -5 3 7 -17 22 -44 35 -37 17 -48 27 -48 45 0 39 12 68 24
61 6 -3 3 3 -7 14 -14 16 -15 22 -4 31 7 6 19 28 26 49 7 21 20 46 28 55 10
11 13 26 9 43 -5 18 1 39 21 73 17 30 21 42 10 33 -9 -7 -28 -37 -43 -67 -15
-30 -30 -57 -35 -60 -5 -3 -9 -14 -9 -25 0 -10 -5 -19 -10 -19 -6 0 -9 -3 -9
-7 1 -5 1 -10 -1 -13 -1 -3 -3 -16 -6 -30 -2 -14 -11 -63 -20 -110 -9 -47 -13
-101 -11 -120 3 -19 2 -44 -3 -55 -4 -11 -4 -30 1 -42 11 -30 1 -28 -40 7 -19
16 -39 26 -44 23 -6 -3 -7 -2 -4 4 3 5 -21 36 -55 69 -33 32 -57 52 -53 44 5
-8 -14 5 -41 30 -28 25 -49 48 -47 53 2 4 -3 7 -12 7 -9 0 -14 4 -11 9 3 5 -2
15 -11 22 -12 10 -15 10 -9 1 9 -15 -52 20 -82 48 -15 14 -22 32 -22 56 0 36
25 155 41 189 4 11 22 54 38 95 33 85 108 241 135 282 10 15 14 33 10 39 -4 7
-3 9 4 6 5 -4 26 16 46 43 72 100 101 93 260 -61 61 -59 112 -106 114 -105 2
3 19 336 26 541 3 81 1 107 -4 80 -7 -30 -8 -21 -4 39 2 43 4 92 4 108 0 20 5
28 18 28 19 0 19 22 -3 -291 l-5 -86 190 -2 190 -2 2 43 c0 24 2 48 3 53 2 6
3 56 4 111 1 82 4 103 17 108 8 3 13 2 9 -3 -3 -5 -7 -62 -10 -128 -3 -65 -8
-138 -10 -163 l-5 -45 47 0 c40 0 48 -3 46 -18 -1 -13 4 -17 14 -13 8 4 26 9
39 12 15 4 24 14 25 28 1 17 2 18 6 3 3 -13 10 -16 26 -11 67 21 92 33 89 43
-1 6 3 14 10 16 7 3 132 6 278 8 237 3 269 5 307 23 32 14 43 25 43 42 0 14 4
21 11 17 6 -4 8 -13 5 -21 -3 -8 0 -11 8 -8 7 3 19 -2 26 -11 7 -8 25 -15 41
-15 l29 0 2 163 2 162 3 -158 4 -159 69 7 70 7 0 -26 c0 -21 5 -26 25 -26 18
0 28 7 35 24 7 18 14 23 29 19 16 -4 21 -1 21 15 0 32 12 34 94 16 42 -10 79
-15 82 -11 5 5 6 190 1 257 -1 16 4 26 16 28 13 3 17 -4 18 -25 l1 -28 8 30 8
30 2 -30 c10 -129 9 -189 -2 -197 -10 -6 -10 -8 0 -8 7 0 11 -12 11 -27 -2
-24 -2 -25 -6 -5 -5 26 -16 28 -34 6 -11 -14 -11 -18 5 -29 16 -12 15 -14 -12
-20 -55 -12 -139 -73 -175 -128 -46 -70 -77 -157 -77 -217 0 -43 4 -54 35 -85
92 -92 193 -98 307 -18 62 42 91 90 112 181 24 107 17 141 -39 198 -28 28 -39
44 -29 44 14 0 15 19 9 165 -6 136 -5 165 6 165 11 0 14 -33 14 -168 l0 -167
33 -3 32 -3 -6 173 c-4 95 -4 171 -1 168 8 -7 15 -118 16 -237 1 -86 4 -103
16 -103 14 0 15 21 9 170 -7 163 -6 170 12 170 14 0 16 -2 6 -9 -10 -6 -12
-25 -8 -72 3 -35 5 -108 6 -161 l0 -98 73 0 73 0 13 -312 c7 -172 16 -343 20
-380 6 -58 4 -72 -12 -98 -16 -26 -22 -29 -35 -18 -8 7 -16 11 -18 8 -1 -3 -5
-2 -9 2 -4 3 2 11 13 17 15 8 21 8 24 -1 5 -15 28 -1 28 16 0 8 -8 16 -17 20
-10 3 -24 9 -32 12 -9 4 -11 2 -7 -5 5 -7 -2 -11 -18 -11 -16 0 -26 6 -26 15
0 9 6 12 18 9 14 -5 15 -4 2 5 -22 16 -50 13 -50 -5 0 -8 -5 -12 -11 -9 -6 4
-26 7 -45 7 -29 0 -33 2 -23 14 9 12 5 14 -25 14 -46 0 -48 -21 -3 -42 31 -15
34 -15 45 1 10 15 11 14 11 -2 1 -13 6 -17 20 -12 13 4 20 0 24 -16 4 -16 3
-19 -6 -10 -6 6 -18 11 -26 11 -11 0 -10 -4 5 -16 19 -16 -91 41 -114 59 -10
8 -9 15 4 36 10 14 24 36 32 49 8 12 12 22 9 22 -6 0 -67 -94 -67 -103 0 -4
19 -19 43 -34 23 -15 44 -31 47 -34 3 -3 39 -25 81 -48 l77 -42 18 25 c11 13
24 32 30 42 9 15 13 0 20 -81 5 -63 10 -89 13 -71 8 37 24 43 50 17 31 -31 26
-49 -17 -57 -43 -8 -132 -51 -149 -74 -7 -8 -13 -10 -13 -5 -1 26 -40 -54 -40
-82 0 -33 0 -33 -50 -33 -56 0 -118 -21 -138 -47 -14 -20 -99 -44 -125 -37
-14 5 -13 -1 8 -33 15 -20 28 -39 30 -41 2 -2 16 10 32 27 37 41 120 62 208
54 63 -6 65 -6 59 -32 -6 -25 -6 -25 9 -6 14 18 14 23 1 43 -8 13 -14 33 -12
45 3 19 7 15 30 -24 15 -25 34 -52 43 -59 9 -8 25 -31 36 -52 17 -33 17 -37 2
-31 -11 4 -14 3 -9 -5 5 -8 -1 -12 -17 -12 -18 0 -26 -6 -29 -24 -3 -14 -1
-29 5 -35 11 -11 -13 -25 -61 -36 -28 -6 -33 -3 -41 17 -6 13 -11 19 -12 13
-1 -5 -5 6 -10 25 -5 21 -6 -18 -3 -100 l4 -134 -37 34 c-131 120 -128 118
-104 83 12 -17 42 -50 67 -72 l46 -41 -6 -63 c-7 -60 -5 -66 19 -95 28 -33 29
-43 34 -239 1 -47 5 -63 15 -63 8 0 17 -6 19 -12 3 -7 6 -3 6 10 1 13 5 20 11
17 6 -3 13 1 16 10 4 10 13 13 24 10 10 -3 22 0 26 6 4 8 3 9 -4 5 -7 -4 -12
-2 -12 3 0 6 21 11 50 11 28 0 50 5 50 10 0 6 4 10 10 10 14 0 19 -47 28 -252
7 -164 11 -190 28 -209 10 -12 -35 22 -101 77 -225 187 -322 264 -332 264 -5
0 -59 -58 -118 -129 -60 -72 -112 -128 -117 -125 -5 3 -13 -8 -19 -24 -6 -16
-46 -61 -95 -103 -46 -40 -83 -76 -82 -80 5 -10 456 -395 516 -439 31 -23 32
-23 47 -4 13 18 19 14 117 -83 57 -56 108 -106 113 -110 19 -15 -41 53 -120
135 -77 80 -99 109 -77 101 26 -10 232 -205 232 -220 0 -9 6 -22 14 -28 9 -7
13 -26 11 -48 -2 -30 -15 -48 -73 -105 -38 -37 -74 -68 -80 -68 -6 0 -16 13
-23 29 -20 45 -29 27 -29 -60 l0 -79 293 0 294 0 11 24 c12 27 27 31 156 46
48 5 129 23 180 39 102 33 212 37 230 8 8 -13 19 -11 85 11 67 22 73 26 53 35
-18 8 -25 6 -36 -8 -13 -18 -59 -24 -101 -12 -11 3 -30 6 -43 6 -13 1 -20 5
-17 11 7 12 8 12 -73 16 -43 2 -60 -1 -56 -8 4 -7 2 -8 -4 -4 -6 4 -20 -2 -32
-14 -24 -24 -54 -21 -75 6 -8 10 -15 15 -14 9 3 -22 -2 -33 -17 -39 -10 -4
-13 -2 -8 6 5 7 2 9 -9 5 -13 -5 -166 -19 -224 -20 -7 0 -13 -5 -13 -10 0 -5
-19 -7 -42 -4 -24 2 -64 0 -90 -6 -39 -8 -51 -8 -65 5 -28 24 -56 31 -49 13 4
-13 2 -14 -14 -5 -11 6 -20 17 -20 25 0 8 -7 15 -15 15 -8 0 -15 9 -15 20 0
18 7 20 54 20 34 0 56 -5 58 -12 3 -9 9 -8 22 5 17 16 13 17 -73 17 -49 0 -92
3 -94 8 -3 4 54 7 126 7 587 1 1308 9 1382 15 50 5 155 13 235 19 80 6 157 13
173 17 l27 6 0 669 0 670 -66 -35 c-42 -22 -67 -30 -69 -23 -10 34 -55 581
-48 587 38 34 166 130 174 130 5 0 9 29 9 65 0 63 -15 115 -32 115 -13 0 2 43
19 53 11 7 13 98 13 552 -1 302 -5 547 -10 550 -5 3 -11 -5 -13 -17 -4 -21 -4
-20 -6 3 0 16 5 29 14 33 12 4 15 31 15 156 0 98 -4 149 -10 145 -5 -3 -10 -1
-10 4 0 6 -7 11 -15 11 -8 0 -12 -6 -9 -14 3 -8 -2 -17 -13 -20 -10 -4 -31
-18 -48 -33 -27 -24 -30 -32 -30 -89 0 -35 -3 -60 -7 -56 -5 6 -27 121 -30
160 -1 6 -4 12 -8 12 -4 0 -6 -35 -4 -77 2 -55 1 -69 -5 -48 l-9 30 -1 -32 c0
-18 -5 -33 -11 -33 -5 0 -6 7 -3 17 4 10 2 14 -5 9 -6 -4 -12 4 -15 21 -2 16
-3 11 -2 -9 5 -60 -12 -44 -21 20 -4 31 -7 62 -5 69 1 6 -3 14 -9 18 -12 7
-12 -38 -1 -107 4 -26 4 -53 0 -59 -4 -7 -10 8 -15 37 -6 41 -9 45 -14 24 -6
-21 -8 -18 -15 22 -4 26 -4 60 -1 75 5 22 4 25 -4 13 -9 -12 -10 -5 -8 27 2
23 -1 39 -5 36 -5 -3 -7 2 -5 11 3 15 21 17 150 19 80 1 144 -2 141 -7 -3 -4
4 -5 15 -2 16 5 21 2 25 -16 3 -17 5 -15 6 10 l1 32 -195 0 c-107 0 -195 -4
-195 -9 0 -4 -72 -9 -160 -10 -104 -1 -160 2 -160 9 0 6 -71 10 -205 10 -157
0 -205 -3 -205 -12 0 -9 -3 -8 -10 2 -8 12 -10 12 -16 -3 -8 -21 -44 -23 -44
-2 0 8 -4 15 -10 15 -5 0 -10 -7 -10 -15 0 -17 -18 -19 -39 -6 -9 6 -22 6 -33
0 -14 -8 -18 -6 -19 8 0 11 -3 13 -6 6 -2 -7 -12 -13 -21 -13 -15 0 -15 2 -2
10 13 8 12 10 -2 10 -10 0 -18 -7 -18 -15 0 -8 -6 -15 -14 -15 -8 0 -17 -8
-19 -17 -2 -10 -2 -3 0 15 3 22 0 32 -9 32 -9 0 -13 -15 -12 -52 1 -30 0 -39
-3 -20 -4 32 -33 72 -52 72 -5 0 -12 -8 -14 -17 -4 -17 -5 -17 -6 0 -1 16 -17
17 -191 17 -174 0 -190 -1 -190 -17 0 -15 -8 -18 -54 -15 -41 3 -56 8 -59 20
-4 15 -5 15 -6 0 -1 -13 -10 -18 -31 -18 -23 0 -28 4 -24 18 5 16 5 16 -9 0
-8 -10 -24 -18 -35 -18 -11 0 -23 8 -25 18 -4 16 -5 16 -6 0 -1 -22 -21 -24
-21 -3 0 8 -7 15 -16 15 -14 0 -14 -3 -4 -15 7 -8 11 -15 9 -16 -34 -7 -36 -6
-32 12 5 18 -4 19 -211 19 -185 0 -216 -2 -216 -15 0 -8 -4 -15 -10 -15 -5 0
-9 5 -7 11 1 6 -4 14 -11 16 -8 3 -10 -1 -6 -11 3 -9 1 -16 -4 -16 -6 0 -13 8
-15 18 -4 14 -5 13 -6 -4 -1 -17 -6 -20 -25 -17 -14 3 -27 13 -29 22 -3 10 -5
8 -6 -7 -1 -19 -4 -21 -20 -12 -14 7 -21 6 -24 -3 -3 -6 -6 -2 -6 11 -1 12 -5
22 -11 22 -5 0 -10 -10 -11 -22 -1 -22 -1 -22 -9 2 -8 24 -8 24 -9 3 -1 -26
-30 -21 -32 6 -1 9 -4 6 -9 -9 -8 -24 -8 -24 -9 -2 -1 12 -5 22 -9 22 -5 0
-14 -10 -20 -22 l-11 -23 0 23 -1 22 -216 0 c-186 0 -215 -2 -211 -15 4 -8 2
-17 -3 -20 -6 -4 -10 4 -11 17 -1 23 -1 23 -9 -2 -8 -24 -8 -24 -9 -2 -1 27
-21 30 -21 2 0 -11 -4 -20 -10 -20 -9 0 -14 14 -11 33 0 4 -3 7 -9 7 -5 0 -10
-10 -11 -22 0 -22 -1 -22 -9 -3 l-9 20 -1 -20 -1 -20 -8 20 -8 20 -5 -20 c-5
-17 -6 -16 -8 5 l-2 25 -8 -25 -8 -25 -7 23 c-9 26 -25 29 -25 4 0 -27 -40
-26 -41 1 0 21 -1 21 -11 -3 l-10 -25 -9 23 c-11 28 -39 29 -39 1 0 -11 -4
-18 -10 -14 -5 3 -7 12 -3 20 4 13 -27 15 -231 15 -229 0 -236 -1 -236 -20 0
-11 -4 -20 -10 -20 -5 0 -10 9 -10 21 0 14 -5 19 -17 17 -10 -2 -19 -9 -19
-16 -3 -26 -6 -26 -14 -2 l-8 25 -2 -25 -2 -25 -8 25 c-8 25 -8 25 -9 2 -1
-17 -6 -22 -18 -20 -11 2 -17 11 -15 21 2 9 -2 17 -8 17 -5 0 -10 -9 -10 -20
0 -16 -7 -20 -30 -20 -23 0 -30 4 -30 20 0 11 -7 20 -15 20 -8 0 -15 -6 -15
-14 0 -8 -4 -17 -9 -20 -5 -3 -8 2 -7 12 1 16 -18 17 -246 20 -243 2 -248 2
-248 -18 0 -11 -4 -20 -10 -20 -5 0 -10 9 -10 20 0 13 -7 20 -20 20 -13 0 -20
-7 -20 -19 0 -10 -7 -21 -15 -25 -11 -4 -15 2 -15 20 0 32 -22 27 -31 -7 -7
-24 -7 -24 -8 4 l-1 27 -250 0 c-243 0 -250 -1 -250 -20 0 -18 -4 -21 -27 -20
-5 1 -7 10 -5 20 2 14 -2 20 -17 20 -10 0 -22 -6 -24 -12 -4 -10 -6 -10 -6 0
-1 21 -21 3 -21 -19 0 -12 -4 -17 -11 -14 -6 4 -8 13 -5 21 3 7 1 16 -4 19 -5
3 -10 -5 -12 -17 -4 -29 -21 -26 -30 4 -6 22 -6 21 -7 -4 -1 -16 -6 -28 -12
-28 -6 0 -9 10 -7 23 3 17 0 23 -14 24 -10 1 -16 -2 -13 -8 4 -5 1 -9 -4 -9
-6 0 -11 5 -11 10 0 6 -4 10 -10 10 -5 0 -10 -9 -10 -19 0 -11 -5 -23 -11 -27
-6 -3 -10 1 -9 12 4 36 -1 39 -15 9 l-13 -30 -1 28 -1 27 -224 0 -225 0 -4
-27 -4 -28 -2 28 c-1 30 -21 38 -21 8 0 -11 -4 -23 -10 -26 -6 -4 -10 5 -10
20 0 21 -4 26 -16 21 -9 -3 -18 -6 -20 -6 -2 0 -4 -9 -4 -20 0 -11 -5 -20 -10
-20 -6 0 -8 11 -6 25 3 14 1 25 -4 25 -5 0 -10 -10 -12 -22z m5438 -26 c6 -8
9 -36 6 -63 -3 -30 -1 -49 6 -49 5 0 8 -9 5 -20 -3 -11 0 -20 6 -20 6 0 11 16
11 38 0 24 -3 32 -9 23 -5 -8 -7 10 -5 44 2 32 4 59 6 60 2 2 35 5 73 6 l70 3
7 -45 c6 -43 7 -63 8 -224 0 -43 4 -82 8 -85 4 -3 7 -32 7 -65 0 -33 3 -103 8
-155 4 -54 3 -86 -2 -75 -4 11 -11 63 -15 115 -9 129 -43 392 -46 355 -1 -16
-3 -41 -5 -55 -1 -14 6 -110 16 -215 20 -207 22 -231 14 -223 -3 3 -15 99 -26
214 -22 224 -41 305 -32 139 7 -141 8 -148 17 -163 4 -7 5 -19 3 -26 -3 -8 -2
-48 2 -90 4 -42 4 -76 1 -76 -4 0 -12 54 -18 121 -22 222 -35 319 -42 319 -4
0 -7 -23 -7 -52 -1 -28 2 -46 5 -40 4 5 7 -18 7 -51 0 -34 4 -116 9 -182 5
-66 6 -117 2 -114 -3 3 -8 26 -11 50 -2 24 -9 87 -16 139 -6 52 -11 104 -11
115 1 40 -10 95 -19 95 -4 0 -6 -7 -3 -15 5 -11 2 -13 -11 -8 -16 6 -17 2 -11
-38 4 -24 10 -46 14 -49 4 -3 7 -43 7 -90 1 -47 3 -111 7 -142 5 -51 4 -58
-12 -58 -15 0 -19 16 -29 113 -6 61 -16 155 -22 207 -6 52 -12 109 -14 125 -2
17 -6 76 -10 132 l-7 102 23 -6 c13 -4 29 -13 35 -21z m-837 -92 c1 -60 9
-100 20 -100 4 0 3 41 -2 90 -10 99 1 159 14 80 4 -25 8 -76 10 -115 1 -53 3
-62 8 -35 3 19 4 60 1 90 -3 30 -4 65 -2 78 6 38 22 24 24 -20 1 -41 1 -41 5
-8 5 42 13 52 33 40 10 -7 11 -10 3 -10 -7 0 -13 -9 -13 -21 0 -12 4 -17 11
-13 8 4 7 0 -1 -15 -6 -12 -10 -38 -8 -58 3 -27 9 -37 24 -39 20 -3 21 1 20
79 -1 77 0 82 19 79 27 -5 26 -3 32 -74 6 -78 11 -97 22 -80 4 7 3 39 -2 72
-12 72 -5 95 22 81 10 -6 20 -8 23 -6 5 6 9 -18 9 -59 0 -16 4 -37 10 -48 7
-12 7 -18 1 -14 -10 6 -26 -23 -17 -32 3 -3 5 1 5 8 0 9 3 10 9 4 11 -10 46
-486 38 -506 -3 -7 -6 10 -7 37 -1 47 -2 49 -16 30 -9 -12 -11 -21 -4 -23 5
-2 10 -14 10 -27 0 -21 -4 -23 -60 -24 -41 0 -60 3 -60 12 0 8 -4 7 -10 -3 -5
-8 -11 -12 -14 -10 -2 3 -8 58 -11 123 -4 65 -8 125 -10 135 -2 9 -4 41 -4 70
-1 38 -5 52 -15 52 -8 0 -17 8 -19 18 -4 15 1 -136 8 -254 1 -22 3 -61 4 -87
0 -27 5 -46 10 -42 5 3 12 2 15 -3 2 -4 -9 -9 -25 -10 -30 -2 -30 -2 -28 40 2
25 -1 43 -8 45 -7 3 -9 -4 -6 -16 3 -12 1 -21 -4 -21 -6 0 -13 48 -17 108 -15
248 -18 274 -37 293 -18 18 -18 15 -13 -84 4 -56 6 -109 6 -117 -1 -40 10 -71
24 -66 9 4 12 1 9 -5 -4 -6 -13 -8 -19 -6 -15 6 -9 -154 6 -164 5 -3 3 -9 -6
-12 -18 -7 -21 18 -37 296 -7 129 -8 202 -1 209 5 5 8 46 6 91 -2 56 0 73 5
52 5 -16 9 -55 10 -85z m700 93 c1 11 9 17 25 17 26 0 42 -28 37 -67 -1 -11 3
-24 9 -28 5 -3 8 -11 4 -16 -3 -5 -1 -49 5 -97 6 -48 13 -130 16 -182 10 -173
16 -245 21 -262 4 -14 -1 -18 -24 -18 l-29 0 -12 128 c-15 164 -20 194 -32
187 -5 -4 -9 -1 -9 4 0 6 5 11 10 11 9 0 8 55 0 80 -1 3 -2 21 -2 40 l1 35 -9
-30 c-4 -16 -8 -25 -9 -19 0 6 -4 26 -7 43 -5 24 -3 31 6 29 18 -4 14 89 -6
119 -8 12 -14 28 -13 35 0 7 4 4 9 -7 7 -17 9 -17 9 -2z m-4368 -22 c0 -12 2
-12 9 4 7 17 9 14 11 -15 l2 -35 4 33 c3 22 9 32 22 32 15 0 17 -7 13 -50 -3
-32 0 -50 7 -50 7 0 11 20 11 50 0 47 2 50 25 50 14 0 25 -5 25 -11 0 -5 -4
-7 -10 -4 -9 6 -14 -10 -13 -42 1 -7 -3 -13 -8 -13 -5 0 -6 -7 -3 -15 4 -8 11
-12 18 -8 6 4 5 -1 -3 -10 -11 -15 -11 -17 2 -17 11 0 17 16 22 60 5 41 11 60
21 60 10 0 14 -13 14 -47 -1 -84 -18 -184 -33 -196 -18 -14 -26 -56 -37 -195
-8 -108 -5 -146 11 -120 6 9 9 5 9 -13 0 -45 -12 -89 -25 -89 -8 0 -10 16 -7
55 3 38 1 55 -7 55 -7 0 -10 3 -8 8 3 4 10 75 17 157 7 83 16 152 21 155 5 3
10 27 13 53 4 41 2 47 -14 47 -15 0 -19 -10 -24 -62 -4 -35 -8 -83 -10 -108
-3 -25 -5 -53 -5 -62 -1 -10 -5 -18 -11 -18 -5 0 -7 12 -5 28 10 55 12 113 4
105 -4 -4 -10 -53 -12 -108 -3 -55 -3 -85 0 -67 2 17 8 32 13 32 10 0 1 -106
-12 -135 -6 -15 -7 -11 -5 18 2 20 -1 37 -5 37 -4 0 -8 -18 -8 -41 0 -22 -4
-38 -8 -35 -5 3 -2 71 5 152 7 81 11 149 9 152 -12 11 -24 -12 -24 -49 -1 -23
-4 -44 -8 -48 -4 -3 -4 28 -1 69 3 41 3 66 0 55 -6 -20 -6 -20 -13 -1 -4 11
-12 -41 -19 -120 -15 -163 -33 -264 -25 -144 4 72 7 102 20 206 4 32 2 44 -5
39 -14 -8 -14 16 1 141 9 76 15 101 25 97 7 -3 13 -13 14 -22z m259 -11 c5 0
7 6 4 14 -3 7 2 16 11 20 15 5 16 -3 10 -81 -4 -49 -9 -95 -11 -103 -1 -8 -3
-25 -3 -38 -1 -13 -5 -20 -11 -17 -6 3 -11 -5 -11 -19 -1 -14 -2 -29 -3 -33
-2 -5 -6 -48 -10 -98 -8 -109 -17 -168 -22 -162 -2 2 3 86 12 186 8 100 13
187 11 194 -3 6 -6 -7 -6 -31 -1 -24 -5 -41 -10 -38 -4 3 -14 -50 -20 -117
-19 -190 -20 -199 -30 -211 -11 -13 -11 -14 -11 -61 0 -29 -4 -35 -21 -35 -15
0 -19 4 -15 16 3 9 6 34 6 56 0 35 3 40 19 35 21 -5 23 7 36 188 4 44 8 94 11
110 4 20 2 26 -4 17 -14 -21 -22 8 -15 59 3 24 6 69 8 99 1 30 3 60 4 67 0 6
13 13 29 15 19 2 28 -2 30 -14 2 -10 7 -18 12 -18z m-877 8 c3 -11 1 -15 -5
-11 -8 4 -9 -8 -5 -35 3 -24 1 -40 -4 -36 -5 3 -9 0 -9 -5 0 -6 5 -11 12 -11
9 0 9 -3 0 -12 -14 -14 -16 -28 -4 -28 13 0 33 69 35 117 1 24 6 43 11 43 11
0 -2 -117 -15 -143 -9 -15 -8 -18 3 -15 15 5 25 44 27 105 0 23 6 45 11 48 9
6 15 -8 11 -29 -1 -4 -4 -25 -6 -45 -2 -20 -15 -119 -29 -221 -14 -102 -28
-210 -32 -240 -12 -102 -24 -143 -18 -60 3 41 7 91 10 110 19 162 23 197 23
210 0 8 2 36 4 63 1 26 -1 47 -5 47 -4 0 -8 -3 -9 -7 -4 -50 -21 -192 -33
-288 -26 -192 -27 -200 -32 -204 -7 -7 -4 43 5 100 5 30 12 86 16 124 3 39 8
82 10 97 10 52 11 128 3 140 -5 8 -8 -3 -9 -27 -2 -56 -6 -93 -29 -230 -11
-66 -20 -133 -20 -150 0 -42 -15 -64 -23 -33 -11 40 -8 76 8 82 8 3 15 16 14
28 0 22 -1 22 -10 3 -9 -19 -6 35 7 150 10 90 -10 4 -26 -114 -10 -69 -18
-112 -19 -96 0 17 4 62 10 100 5 39 12 95 14 127 5 69 40 360 44 364 1 0 14 0
30 0 20 0 31 -5 34 -18z m110 -25 c-3 -7 0 -13 5 -13 6 0 13 12 15 28 2 15 2
-15 0 -67 -4 -75 -2 -92 8 -89 8 3 15 17 17 32 2 16 -1 26 -6 22 -5 -3 -5 13
0 42 6 26 12 57 14 70 9 44 21 21 13 -25 -4 -27 -10 -76 -12 -111 -2 -34 -7
-65 -11 -69 -3 -3 -6 0 -6 9 0 8 -6 15 -13 15 -9 0 -14 -13 -15 -36 -2 -37 -6
-69 -23 -181 -6 -36 -14 -103 -20 -149 -9 -85 -31 -127 -37 -74 -2 15 0 29 5
30 4 2 7 24 6 51 -1 37 0 41 5 17 4 -18 8 17 8 85 1 103 0 109 -8 55 -5 -33
-7 -70 -5 -82 2 -13 1 -23 -3 -23 -4 0 -11 -37 -15 -82 -5 -55 -10 -76 -15
-63 -4 11 -6 23 -4 27 6 9 45 348 43 367 -1 9 0 27 4 41 3 14 11 66 17 115 7
50 15 94 18 99 7 13 21 -25 15 -41z m1353 -50 c-5 -109 0 -99 9 20 4 42 11 77
17 77 5 0 7 -8 4 -17 -3 -10 -8 -65 -11 -123 -4 -58 -13 -175 -20 -260 l-14
-155 5 145 c3 80 7 161 10 180 3 29 2 31 -6 13 -5 -13 -14 -23 -20 -23 -6 0
-10 -25 -10 -57 0 -41 -3 -54 -10 -43 -8 12 -10 10 -10 -8 0 -13 4 -20 10 -17
6 3 11 -2 12 -12 1 -10 4 16 8 57 l6 75 1 -70 c0 -38 -3 -104 -7 -145 l-7 -75
-1 63 c-1 34 -5 62 -9 62 -5 0 -7 -26 -5 -57 2 -39 0 -53 -7 -44 -7 11 -10 9
-14 -10 -2 -13 -5 -2 -6 24 0 27 2 46 7 44 4 -3 7 49 8 116 0 84 4 122 12 125
8 2 12 27 12 68 0 44 4 64 13 64 9 0 9 2 0 8 -7 4 -10 16 -8 27 2 11 4 26 4
33 1 6 8 12 16 12 13 0 15 -15 11 -97z m111 -25 c-4 -66 -7 -143 -7 -170 0
-36 -4 -48 -15 -48 -12 0 -15 -16 -17 -77 l-2 -78 -3 73 c-4 68 -13 87 -29 60
-4 -7 -3 -8 4 -4 9 5 12 -10 12 -52 0 -78 -9 -122 -26 -122 -13 0 -13 35 1
215 3 33 8 120 11 193 l7 132 35 0 35 0 -6 -122z m549 45 c10 -4 14 -25 14
-85 0 -50 -4 -77 -10 -73 -15 10 -12 -19 5 -41 11 -14 15 -15 14 -4 -6 58 3
210 11 205 6 -4 10 10 10 34 0 23 3 41 8 41 12 0 2 -193 -11 -209 -9 -12 -9
-13 1 -7 10 6 11 1 6 -20 -5 -19 -4 -25 5 -20 7 4 12 43 13 99 l2 92 4 -80 c2
-44 0 -118 -5 -165 l-8 -85 -6 65 -6 65 -1 -56 c-1 -40 -6 -59 -17 -63 -12 -4
-15 4 -16 37 -1 23 -3 34 -6 24 -2 -9 -8 -15 -12 -13 -4 3 -8 -7 -9 -21 -1
-15 -4 -29 -7 -31 -3 -3 -2 68 1 159 5 129 4 162 -6 152 -12 -11 -14 -42 -18
-230 -2 -68 -5 -83 -18 -83 -9 0 -12 5 -8 12 4 7 9 74 10 150 1 112 5 142 18
157 9 10 17 31 18 47 1 23 2 21 5 -9 2 -21 11 -41 19 -44z m147 0 c4 10 7 27
7 38 0 10 7 19 15 19 8 0 15 5 15 10 0 6 5 10 11 10 5 0 7 -5 3 -11 -4 -6 -9
-88 -11 -182 -2 -94 -6 -173 -8 -176 -3 -2 -5 65 -5 149 0 242 -19 174 -32
-115 -1 -27 -5 0 -8 60 l-6 110 -2 -106 c-2 -85 -5 -108 -17 -113 -13 -5 -15
16 -15 150 0 128 3 156 15 160 9 4 16 21 17 43 1 31 2 29 7 -14 4 -36 8 -45
14 -32z m2657 -611 c0 -16 2 -65 4 -108 4 -56 3 -67 -3 -39 l-8 40 -2 -48 c-1
-34 3 -49 14 -53 10 -4 15 -20 15 -49 0 -26 6 -47 15 -55 18 -15 18 -17 5 121
-18 196 -20 225 -10 204 7 -17 9 -18 9 -2 1 9 5 17 9 17 5 0 14 -62 21 -137 6
-76 16 -183 21 -238 17 -189 21 -230 25 -280 4 -35 2 -46 -5 -35 -5 8 -10 33
-10 56 0 22 -9 128 -20 235 -11 107 -22 230 -25 274 -3 44 -9 82 -12 85 -3 3
-1 -44 3 -105 5 -60 9 -157 8 -215 0 -74 1 -92 6 -60 5 32 6 22 4 -32 -2 -43
-6 -113 -8 -155 -3 -59 -2 -67 4 -33 l8 45 -2 -50 c-1 -43 -4 -50 -23 -53 -20
-3 -21 2 -27 85 -4 48 -10 124 -15 168 -4 44 -4 82 1 83 4 2 7 29 6 60 l-1 57
-6 -55 c-5 -48 -8 -36 -19 90 -7 80 -15 160 -19 178 -4 28 -2 32 16 32 16 0
21 -6 21 -28z m-113 -645 c-3 -24 6 -35 85 -97 50 -40 88 -77 88 -87 0 -20
-68 -123 -81 -123 -5 0 -9 3 -9 8 0 4 -9 12 -19 17 -11 6 -83 59 -161 118 -79
60 -153 114 -166 119 -13 6 -24 16 -24 22 0 7 24 36 54 65 53 53 54 53 83 38
16 -9 53 -34 81 -56 28 -23 54 -41 57 -41 4 0 4 42 1 93 l-5 92 10 -70 c6 -38
8 -82 6 -98z m512 -403 c18 -14 31 -35 31 -48 0 -66 -236 -378 -399 -527 -106
-97 -143 -117 -185 -100 -69 28 -71 28 -152 -48 -43 -40 -83 -70 -90 -67 -8 3
-13 0 -11 -7 1 -7 -6 -11 -15 -11 -10 1 -16 -3 -15 -8 2 -11 -69 -55 -77 -48
-11 12 -24 126 -15 140 7 13 8 12 9 -2 0 -10 3 -18 8 -18 11 0 32 -52 25 -63
-3 -6 -1 -7 5 -3 7 4 12 24 12 44 0 33 5 41 48 69 28 20 69 36 102 42 44 8 33
9 -60 5 -63 -3 -124 -8 -135 -10 -11 -3 7 10 40 28 224 123 346 274 431 529
31 94 28 92 229 113 181 19 180 19 214 -10z m-3644 -71 c127 -45 190 -71 183
-78 -1 -2 -6 -3 -9 -2 -10 3 -59 -55 -61 -72 -1 -9 -2 -23 -4 -31 -1 -8 -2
-21 -3 -27 -1 -7 -6 -13 -12 -13 -5 0 -7 5 -4 10 3 6 -3 10 -13 10 -11 0 -35
7 -55 15 -19 8 -37 11 -40 8 -4 -3 -12 -1 -19 4 -17 14 -125 53 -130 48 -2 -3
-27 4 -56 14 -36 13 -52 16 -55 7 -7 -20 -19 2 -19 36 0 35 36 128 54 139 13
8 64 -6 243 -68z m-1582 -147 c17 -13 17 -25 -9 -307 -15 -162 -28 -295 -29
-297 -2 -2 -39 15 -82 37 l-80 40 8 60 c11 78 59 525 59 546 0 15 44 -11 133
-79z m4207 -460 c0 -7 -22 -34 -49 -60 l-49 -49 -56 48 c-30 26 -57 53 -59 59
-3 7 12 12 37 14 84 5 139 12 144 17 7 7 32 -15 32 -29z m-217 -1081 c4 -142
3 -188 -3 -141 -5 39 -7 74 -4 78 3 4 -2 8 -10 8 -9 0 -17 5 -17 10 -1 6 -2
16 -3 23 0 6 -8 12 -16 12 -9 0 -16 10 -16 23 -1 12 -2 27 -3 33 -1 7 -12 8
-31 4 -22 -5 -30 -3 -28 5 2 7 -3 15 -11 18 -9 3 -11 0 -6 -9 4 -8 -7 1 -25
19 -24 23 -34 43 -36 73 -4 42 -5 41 160 241 l31 37 6 -112 c4 -62 9 -206 12
-322z"/>
<path d="M2826 3544 c-3 -9 1 -36 9 -60 8 -24 17 -63 20 -87 4 -23 15 -60 25
-82 10 -22 21 -48 24 -57 7 -22 49 -24 66 -3 16 19 22 55 25 154 3 78 1 86
-22 109 -22 21 -31 24 -76 19 -29 -3 -44 -3 -34 0 9 2 15 9 12 14 -10 15 -42
10 -49 -7z"/>
<path d="M2500 3133 c-8 -3 -31 -13 -51 -23 -33 -17 -41 -17 -78 -4 -29 10
-47 11 -59 4 -14 -8 -12 -9 11 -10 16 0 37 -5 47 -10 19 -10 19 -11 -1 -45
-12 -19 -28 -39 -38 -45 -9 -5 -11 -10 -4 -10 8 0 5 -15 -8 -45 -22 -49 -20
-84 8 -140 31 -61 97 -115 141 -115 11 0 30 -8 41 -17 19 -15 22 -30 25 -101
2 -45 -1 -85 -6 -88 -4 -3 -8 12 -8 34 0 21 -7 53 -16 70 -8 18 -12 37 -8 43
4 7 3 9 -3 6 -6 -4 -14 0 -17 9 -3 9 -11 14 -17 12 -10 -3 -16 -52 -20 -168
-1 -25 -4 -39 -6 -32 -6 17 -23 15 -23 -3 0 -8 4 -15 8 -15 5 0 7 -13 4 -29
-4 -28 27 -103 48 -116 5 -3 19 -25 30 -49 10 -23 27 -49 36 -57 10 -8 15 -9
11 -3 -10 17 90 29 109 13 12 -10 14 5 12 102 l-2 114 -7 -90 c-4 -53 -5 1 -3
131 2 122 8 233 14 248 5 14 21 31 35 36 30 12 34 24 4 15 -12 -4 -38 -23 -58
-43 -20 -20 -30 -32 -22 -28 9 6 12 5 7 -2 -8 -13 -45 -1 -86 28 -15 11 -29
17 -32 15 -3 -3 -20 -7 -39 -9 -44 -5 -90 14 -112 47 -20 31 -22 41 -5 31 7
-5 25 -7 41 -6 15 1 41 -4 58 -13 16 -8 43 -22 59 -31 17 -8 36 -12 42 -8 7 4
28 10 48 14 22 3 35 11 35 20 0 10 12 16 33 18 18 2 36 10 39 18 3 7 9 12 13
9 5 -3 21 8 38 24 44 45 41 86 -12 158 -45 60 -99 109 -145 130 -27 12 -84 16
-111 6z"/>
<path d="M2765 2809 c-8 -12 2 -60 13 -57 4 1 30 -10 57 -26 28 -16 85 -49
129 -74 87 -50 136 -88 136 -105 1 -15 52 -72 78 -86 38 -20 35 -11 -9 32 -65
62 -86 91 -94 127 -8 36 15 70 47 70 17 0 16 3 -7 27 -16 18 -23 35 -19 48 5
20 5 20 -10 1 -9 -11 -16 -28 -16 -38 0 -10 -4 -18 -9 -18 -5 0 -18 -14 -29
-31 l-20 -32 -18 21 c-10 12 -20 19 -24 17 -3 -2 -17 6 -30 16 l-25 20 25 -11
c25 -12 25 -12 -2 14 -16 15 -28 33 -28 41 0 11 -5 10 -20 -5 -11 -11 -26 -20
-32 -19 -7 0 -3 7 10 16 12 8 22 20 22 26 0 6 -3 8 -6 4 -3 -3 -28 3 -55 14
-58 22 -56 22 -64 8z"/>
<path d="M3020 2243 c-8 -3 -23 -12 -32 -21 -13 -10 -18 -11 -18 -3 0 7 -4 9
-10 6 -5 -3 -10 -11 -10 -16 0 -6 5 -7 12 -3 8 5 9 0 6 -14 -4 -12 -2 -20 3
-16 5 3 9 0 9 -5 0 -23 -38 -11 -44 14 -4 14 -14 25 -22 25 -13 0 -15 -7 -10
-30 4 -22 2 -30 -9 -30 -11 0 -15 -13 -15 -50 l0 -49 32 6 c18 4 46 14 63 23
16 10 52 18 80 19 51 2 54 4 98 71 27 41 25 65 -3 50 -11 -6 -23 -9 -27 -8 -4
1 -18 -3 -31 -10 -12 -7 -26 -11 -31 -8 -4 3 -22 1 -39 -3 -17 -5 -33 -7 -36
-4 -7 7 45 50 69 56 l20 5 -20 0 c-11 0 -27 -2 -35 -5z"/>
<path d="M2514 2040 c-46 -14 -121 -85 -135 -128 -17 -47 -13 -101 12 -167 30
-81 84 -127 147 -124 24 1 23 3 -8 9 -37 8 -36 8 40 15 14 1 38 7 53 14 34 13
37 14 37 2 0 -5 -10 -12 -22 -16 -13 -3 -18 -8 -11 -11 17 -7 106 33 99 45 -4
5 7 22 23 39 29 28 29 29 10 45 -21 19 -26 42 -6 31 6 -4 1 5 -13 21 l-25 28
24 -13 c13 -7 21 -8 17 -1 -4 5 2 15 13 21 17 8 19 8 15 -4 -4 -11 0 -13 15
-9 17 4 21 13 21 47 -1 52 -27 85 -75 93 -28 4 -35 10 -35 28 0 18 -7 24 -32
29 -73 12 -135 15 -164 6z"/>
<path d="M3251 1590 c-22 -22 -38 -41 -35 -41 2 -1 8 -2 13 -3 15 -2 26 -16
12 -16 -8 0 -7 -9 4 -30 8 -16 15 -33 15 -37 0 -10 -48 -33 -69 -33 -13 0 -13
-2 -2 -9 20 -13 -5 -24 -36 -16 -23 6 -24 5 -9 -10 19 -20 12 -36 -12 -29 -13
5 -14 4 -3 -4 11 -8 8 -13 -13 -27 -14 -10 -32 -28 -39 -42 -6 -13 -31 -35
-54 -49 l-42 -24 16 31 c19 38 12 99 -18 162 -21 42 -24 45 -65 45 -24 1 -46
-3 -49 -8 -4 -6 5 -10 19 -10 58 0 97 -42 110 -118 6 -36 -16 -92 -36 -92 -28
0 11 -21 41 -22 17 -1 34 -5 37 -10 3 -5 16 2 28 15 12 13 32 22 46 22 27 -2
112 -55 89 -55 -8 -1 0 -9 18 -18 18 -9 31 -20 30 -23 -4 -10 48 -64 77 -79
29 -15 28 -15 -49 -20 l-78 -5 66 -56 c36 -31 116 -89 179 -129 62 -40 192
-125 288 -190 96 -65 179 -116 184 -113 5 3 0 10 -10 16 -11 6 -63 46 -116 89
-53 43 -101 78 -106 78 -5 0 -136 128 -291 285 l-283 285 31 35 c41 47 87 87
138 119 36 22 46 24 62 14 15 -9 25 -9 48 2 15 7 41 14 57 16 16 1 34 8 40 16
6 8 19 17 29 21 28 11 20 23 -18 25 -21 2 -42 -3 -51 -12 -12 -13 -19 -13 -46
-2 -26 11 -35 11 -58 -2 -25 -14 -28 -14 -47 5 -12 12 -19 24 -15 27 3 3 -2 6
-12 6 -14 0 -15 2 -4 14 7 8 16 12 20 10 13 -8 37 8 31 22 -8 22 -19 17 -62
-26z"/>
<path d="M3789 563 c-11 -13 -11 -15 -1 -9 8 5 21 1 33 -10 10 -9 19 -14 19
-10 0 4 12 -5 27 -19 l28 -25 -23 -22 c-14 -14 -22 -18 -22 -9 0 10 -3 11 -14
2 -10 -8 -16 -9 -21 -1 -3 5 1 13 9 16 9 3 14 10 11 15 -3 4 -12 6 -20 2 -9
-3 -22 0 -30 7 -18 15 -20 34 -3 24 7 -4 8 -3 4 4 -10 16 -14 15 -26 -7 -15
-30 -4 -46 68 -94 105 -69 108 -71 126 -46 13 19 13 24 0 36 -19 19 -18 24 4
16 15 -6 16 -5 2 13 -14 18 -14 18 6 1 11 -9 24 -14 29 -10 10 10 -2 -14 -27
-49 -22 -32 -23 -48 -3 -48 8 0 15 4 15 9 0 4 11 25 25 46 15 20 25 39 23 40
-7 7 -219 145 -222 145 -2 0 -10 -8 -17 -17z"/>
<path d="M5996 212 c-26 -3 -28 -6 -22 -34 3 -17 6 -64 6 -104 l0 -74 46 0
c44 0 45 1 40 27 -2 16 -10 60 -17 98 -14 86 -17 91 -53 87z"/>
</g>
</svg>
