<?xml version="1.0" standalone="no"?>
<!DOCTYPE svg PUBLIC "-//W3C//DTD SVG 20010904//EN"
 "http://www.w3.org/TR/2001/REC-SVG-20010904/DTD/svg10.dtd">
<svg version="1.0" xmlns="http://www.w3.org/2000/svg"
 width="1920.000000pt" height="1080.000000pt" viewBox="0 0 1920.000000 1080.000000"
 preserveAspectRatio="xMidYMid meet">
<metadata>
Created by potrace 1.16, written by Peter Selinger 2001-2019
</metadata>
<g transform="translate(0.000000,1080.000000) scale(0.100000,-0.100000)"
fill="#000000" stroke="none">
<path d="M9519 9935 c41 -20 72 -37 70 -40 -8 -7 -122 14 -199 37 l-75 23
-1625 3 c-1098 2 -1651 -1 -1705 -8 -44 -5 -116 -21 -160 -34 -44 -13 -101
-29 -126 -36 -25 -6 -63 -27 -84 -46 -21 -19 -42 -34 -47 -34 -4 0 -8 -7 -8
-16 0 -10 6 -14 14 -11 8 3 -6 -24 -29 -59 -47 -70 -76 -138 -103 -243 -16
-61 -17 -344 -17 -4066 0 -3722 1 -4005 17 -4066 26 -101 56 -174 95 -231 l36
-53 -40 37 c-21 21 -42 38 -46 38 -9 0 4 -32 20 -48 7 -7 13 -21 13 -31 0 -39
160 -168 253 -203 164 -62 325 -71 1277 -67 443 1 949 0 1125 -3 176 -3 498
-2 715 2 340 7 408 11 487 28 106 23 201 66 272 122 28 22 54 40 59 40 5 0 15
-11 22 -25 14 -27 56 -59 80 -62 8 -1 47 -13 85 -28 39 -15 90 -35 115 -44 41
-15 166 -16 1370 -16 l1325 0 109 38 c59 21 110 36 113 33 9 -8 -71 -56 -129
-76 -103 -36 -172 -40 -728 -41 -383 -1 -535 -4 -510 -11 22 -6 227 -8 570 -5
439 4 547 7 603 20 220 52 370 213 407 439 6 41 10 792 10 2188 0 1409 3 2129
10 2136 7 7 5 17 -5 30 -13 17 -14 -234 -15 -2113 0 -1442 -3 -2157 -11 -2210
-12 -92 -51 -182 -104 -238 l-37 -40 22 35 c31 50 48 92 68 163 16 58 17 263
17 3162 0 2913 -1 3104 -17 3168 -22 85 -49 139 -102 202 l-41 50 43 -34 c71
-55 109 -115 139 -218 15 -51 18 -135 22 -678 5 -520 8 -616 19 -597 9 16 10
27 3 36 -6 7 -11 224 -13 611 -3 547 -5 605 -22 655 -17 53 -55 129 -92 185
-32 49 -204 157 -247 154 -7 0 6 -8 29 -17 22 -9 52 -24 65 -33 23 -16 23 -16
-21 -9 -25 4 -74 16 -110 26 -62 18 -118 19 -1360 19 -1352 0 -1350 0 -1432
-41 l-27 -14 6 -252 c3 -139 7 -255 9 -257 2 -2 4 72 4 166 l0 170 63 29 c61
28 66 29 265 32 225 4 232 3 232 -57 1 -62 52 -141 101 -156 13 -4 26 -11 29
-14 10 -14 109 -28 114 -17 3 7 7 8 13 1 10 -13 33 -17 33 -7 0 12 243 12 258
0 6 -6 12 -6 12 -2 0 5 52 9 115 8 180 -2 163 3 168 -51 l3 -48 2 50 2 50 150
0 c123 0 152 -3 160 -15 8 -12 10 -12 10 -1 0 8 7 11 20 8 11 -3 18 -2 16 1
-2 4 70 7 160 7 90 0 164 -3 164 -6 0 -4 35 5 77 20 65 22 82 33 105 66 18 26
31 59 35 92 3 29 12 58 19 64 9 7 78 9 216 7 175 -4 211 -8 258 -26 96 -36
148 -107 172 -237 10 -57 13 -657 13 -3130 0 -2915 -1 -3062 -18 -3111 -10
-29 -33 -69 -52 -90 l-34 -39 -1 1658 0 1657 -1455 0 -1455 0 0 329 c0 280 2
330 15 341 8 7 15 18 15 25 0 7 -7 18 -15 25 -8 7 -15 17 -15 22 0 6 7 8 15 4
8 -3 15 -1 15 5 0 5 -7 12 -15 15 -20 8 -22 239 -2 248 10 5 10 7 0 12 -16 7
-17 34 -2 34 8 0 8 5 -1 15 -10 12 -10 18 0 30 9 10 9 15 1 15 -8 0 -11 42
-11 134 0 106 3 136 15 146 8 7 15 20 15 30 0 10 -7 20 -15 24 -22 8 -19 37 3
30 16 -5 16 -5 0 9 -15 12 -18 32 -18 138 0 119 1 125 23 134 33 15 35 53 3
65 -37 14 -35 43 2 34 24 -7 26 -6 13 9 -7 10 -20 17 -27 17 -19 0 -20 210 -2
228 10 10 10 17 -1 34 -11 17 -11 22 1 30 10 7 10 11 1 15 -18 7 -18 214 -1
231 10 10 10 17 -1 34 -10 16 -10 22 -1 28 9 5 9 9 1 14 -15 9 -14 109 0 123
9 9 8 18 -5 37 -9 14 -17 33 -18 43 -2 10 -5 -1260 -8 -2822 -6 -3093 -1
-2860 -59 -2990 -27 -61 -94 -150 -124 -166 l-22 -12 22 24 c34 37 91 167 111
249 16 71 17 309 17 4075 0 3872 -1 4003 -19 4080 -25 107 -78 214 -140 283
-46 51 -48 54 -16 33 122 -83 197 -218 220 -394 5 -40 10 -418 11 -842 1 -423
4 -761 6 -750 3 11 10 23 15 26 5 3 8 14 7 25 0 10 -4 359 -8 774 -6 676 -9
763 -25 835 -32 141 -93 260 -173 336 -55 53 -128 106 -171 125 -20 8 -45 20
-54 25 -10 5 -26 9 -35 9 -10 0 16 -16 56 -35z m-3816 -162 c-123 -121 -171
-245 -183 -468 -4 -77 -5 -1875 -3 -3995 5 -4118 2 -3928 52 -4060 30 -80 93
-172 151 -221 27 -23 48 -44 46 -47 -11 -10 -94 49 -144 102 -66 70 -119 178
-137 283 -21 118 -21 7959 0 8078 27 151 112 283 235 364 25 16 46 30 48 30 2
1 -27 -29 -65 -66z m3939 -38 c72 -72 121 -168 145 -285 17 -81 18 -286 18
-4045 0 -3765 -1 -3964 -18 -4045 -31 -148 -99 -260 -207 -341 -80 -60 -82
-46 -4 34 115 120 157 228 175 452 6 86 9 1453 7 4015 l-3 3885 -24 85 c-41
150 -105 248 -216 335 -11 9 0 6 24 -7 24 -13 70 -50 103 -83z m-3137 -5 c20
-18 25 -33 25 -69 0 -86 70 -185 150 -213 54 -20 1846 -19 1912 1 69 20 142
99 157 170 6 28 11 65 11 80 0 16 7 34 15 41 22 18 210 24 400 12 135 -8 170
-14 225 -36 108 -44 179 -116 224 -231 22 -56 23 -74 18 -637 l-2 -328 -90 0
-90 0 -20 -32 c-10 -18 -18 -34 -16 -36 2 -2 21 4 41 12 21 9 69 19 106 22
l69 7 0 -322 c0 -282 -2 -322 -16 -328 -9 -3 -26 5 -43 21 -15 14 -30 26 -34
26 -3 0 -17 10 -30 23 -12 12 -40 36 -60 52 -180 144 -205 185 -171 283 9 29
23 57 31 63 7 6 13 15 13 20 0 11 -121 -118 -144 -153 -13 -20 -15 -31 -7 -45
6 -10 11 -14 11 -8 0 5 7 -1 16 -13 8 -12 20 -20 25 -17 5 4 9 -6 9 -21 0 -24
3 -26 31 -22 25 4 32 1 39 -17 9 -24 36 -39 52 -28 6 3 8 2 5 -3 -9 -15 27
-55 51 -57 13 -1 30 -9 39 -19 20 -22 10 -24 -11 -2 -9 8 -16 11 -16 7 0 -12
47 -53 53 -46 3 2 13 -7 22 -21 10 -14 21 -23 26 -20 5 3 9 -1 9 -8 0 -9 3 -9
10 2 7 11 10 11 10 2 0 -8 5 -10 13 -6 9 6 9 5 0 -8 -17 -19 -4 -32 15 -15 11
8 14 8 9 0 -4 -6 -3 -14 3 -18 11 -7 14 -475 3 -475 -14 0 -53 53 -53 72 0 10
-6 18 -14 18 -8 0 -16 16 -20 40 -4 29 -17 50 -49 79 -23 22 -39 43 -35 46 4
4 17 -3 30 -16 13 -14 32 -30 43 -38 11 -8 -2 7 -29 33 -66 62 -108 93 -100
72 3 -9 12 -16 19 -16 8 0 17 -4 20 -10 9 -14 -8 -12 -29 3 -12 9 -20 31 -23
60 l-5 47 36 0 36 0 0 95 0 95 -35 0 c-19 0 -35 5 -35 10 0 6 -9 10 -20 10
-16 0 -20 -7 -20 -30 0 -28 -2 -30 -40 -30 l-40 0 0 -54 c0 -31 -5 -58 -12
-62 -7 -4 -8 -3 -4 5 5 7 -3 22 -17 37 -16 15 -28 21 -32 14 -8 -13 -54 19
-55 39 0 7 10 2 21 -13 12 -15 23 -25 26 -22 5 5 -39 51 -49 51 -4 0 -20 15
-35 33 -21 24 -32 30 -43 22 -12 -8 -11 -10 6 -10 11 0 30 -13 42 -30 27 -36
12 -41 -16 -5 -11 14 -24 25 -30 25 -5 0 -15 6 -21 14 -9 11 -9 16 0 22 8 5 9
3 4 -6 -6 -9 -4 -11 5 -5 10 6 9 11 -5 22 -24 16 -38 17 -29 1 4 -7 -2 -4 -14
6 -12 11 -22 27 -22 37 0 18 -15 32 -38 35 -6 1 -10 -2 -6 -7 3 -5 10 -6 16
-3 7 5 8 2 3 -6 -6 -9 -4 -11 5 -5 9 6 11 4 5 -5 -6 -10 -17 -4 -41 24 -18 21
-33 41 -32 45 4 38 -4 51 -31 51 -18 0 -39 10 -57 29 -37 38 -77 54 -94 38 -9
-8 -11 -8 -7 -1 8 14 -41 26 -49 13 -3 -5 -20 -8 -37 -8 l-32 2 35 7 c26 5 12
8 -52 9 l-88 1 0 30 0 30 -75 0 -75 0 0 30 c0 20 5 30 15 30 8 0 15 9 15 20 0
18 7 20 75 20 68 0 75 -2 75 -20 0 -11 -7 -20 -15 -20 -8 0 -15 -4 -15 -10 0
-5 16 -10 35 -10 32 0 35 -2 35 -30 0 -23 4 -30 20 -30 13 0 20 7 20 20 0 13
7 20 20 20 17 0 20 7 20 40 0 29 4 40 15 40 8 0 15 5 15 10 0 6 -107 10 -300
10 -193 0 -300 -4 -300 -10 0 -5 9 -10 20 -10 13 0 20 -7 20 -20 0 -16 -7 -20
-35 -20 -19 0 -35 -5 -35 -11 0 -5 -4 -7 -10 -4 -16 10 -12 29 10 53 22 23 26
37 8 26 -7 -4 -8 -3 -4 5 4 6 11 9 16 6 5 -3 11 -1 15 5 4 6 136 10 376 10
l369 0 0 -25 c0 -24 2 -25 65 -25 54 0 66 -3 75 -20 6 -11 17 -20 24 -20 8 0
19 -7 26 -15 7 -8 18 -15 24 -15 6 0 3 7 -6 14 -10 7 -18 18 -18 25 0 6 -10
11 -22 11 -12 0 -18 3 -15 7 11 10 -34 53 -55 53 -10 0 -18 -4 -18 -10 0 -5
-9 -10 -20 -10 -25 0 -27 30 -2 31 9 1 21 1 26 0 5 -1 -5 14 -23 34 -35 41
-39 54 -13 56 9 1 4 5 -13 9 -16 4 -690 8 -1497 9 l-1467 1 -16 -29 c-18 -35
-192 -241 -204 -241 -5 0 -9 210 -9 468 0 257 0 512 -1 567 -1 234 86 375 272
443 52 19 226 30 424 28 145 -2 153 -3 178 -26z m73 -1267 c22 -16 112 -89
199 -164 155 -134 405 -344 817 -688 114 -96 229 -193 254 -217 l47 -42 -19
-34 c-24 -39 -36 -53 -56 -60 -45 -15 223 -20 980 -16 l845 3 3 -407 2 -408
-893 0 c-792 0 -895 -2 -915 -16 -22 -15 -22 -18 -22 -258 0 -192 3 -246 13
-255 10 -8 269 -12 913 -13 l899 -3 0 -115 0 -115 -109 -3 c-100 -2 -107 -4
-90 -18 10 -9 13 -13 7 -9 -7 3 -13 0 -13 -7 -1 -9 -4 -8 -10 3 -14 24 -231
27 -263 3 l-22 -16 25 6 c25 6 25 6 3 -5 -28 -15 -30 -33 -3 -26 26 7 25 3 -5
-17 -21 -14 -24 -14 -19 -1 4 8 1 15 -7 15 -7 0 -9 3 -6 7 4 3 1 13 -6 21 -8
10 -8 13 -1 9 7 -4 14 -1 17 7 3 8 -4 14 -21 15 -93 9 -1244 10 -1266 1 -17
-6 -24 -14 -20 -24 5 -12 10 -13 26 -5 11 6 22 8 25 6 2 -3 -5 -8 -17 -12 -15
-5 -19 -12 -15 -25 3 -10 1 -21 -4 -25 -6 -3 -8 0 -5 8 3 8 -2 17 -11 21 -13
5 -16 0 -13 -27 2 -24 8 -32 21 -31 14 2 15 -1 6 -13 -10 -11 -14 -11 -20 -1
-5 8 -9 -6 -9 -36 0 -39 3 -47 15 -42 8 3 15 2 16 -2 0 -4 3 -19 5 -34 3 -16
0 -28 -6 -28 -6 0 -8 5 -5 10 3 6 1 10 -6 10 -8 0 -8 5 2 18 12 16 12 16 -5 1
-14 -13 -16 -21 -7 -37 6 -10 7 -22 4 -26 -3 -3 -2 -6 4 -6 5 0 10 -7 10 -15
0 -8 -4 -12 -8 -9 -4 2 -7 -4 -6 -15 0 -11 5 -17 9 -15 4 3 8 1 8 -5 0 -5 -6
-12 -12 -14 -19 -8 13 -28 34 -21 9 2 20 -1 24 -7 4 -7 3 -9 -4 -6 -12 8 -42
-2 -42 -13 0 -5 7 -10 15 -12 13 -2 12 -5 -4 -15 -17 -11 -19 -9 -17 19 2 27
1 28 -11 12 -19 -25 -16 -54 5 -55 9 0 12 -3 5 -6 -9 -3 -7 -10 7 -25 17 -19
28 -20 168 -17 109 3 154 8 166 18 14 12 19 12 29 1 10 -10 8 -12 -6 -7 -10 4
-15 3 -12 -2 7 -12 155 -11 155 1 0 5 8 5 18 0 9 -5 33 -8 52 -7 51 3 52 4 45
18 -4 6 0 4 8 -5 13 -16 58 -17 587 -18 444 0 576 -3 582 -13 4 -6 8 -60 8
-119 l0 -108 -895 0 -896 0 -24 -25 -25 -24 0 -226 0 -226 25 -24 24 -25 893
0 893 0 -1 -657 -1 -658 -895 -5 c-738 -4 -898 -7 -911 -19 -15 -12 -17 -42
-17 -251 0 -217 2 -238 18 -253 17 -15 98 -17 913 -19 l894 -3 0 -450 c1 -548
-5 -637 -44 -722 -53 -113 -141 -185 -266 -218 -52 -13 -257 -15 -1693 -15
-1804 0 -1713 -3 -1823 63 -68 41 -130 118 -160 198 l-24 64 -3 933 -2 932 37
1 c21 1 29 3 18 6 -45 10 -48 12 -35 28 9 10 9 15 1 15 -6 0 -11 12 -11 26 0
14 4 23 10 19 13 -8 13 1 -2 26 -10 17 -10 23 0 26 6 3 12 12 12 21 0 15 -2
15 -10 2 -7 -11 -9 -8 -8 15 1 17 6 36 12 44 8 11 8 13 -1 7 -9 -5 -13 0 -13
18 0 14 5 28 11 32 8 4 8 9 0 17 -18 18 -13 23 26 25 61 5 61 19 0 24 -30 2
-37 6 -37 23 0 12 6 27 13 34 10 11 10 13 0 7 -9 -5 -13 0 -13 14 0 14 4 19
13 14 8 -5 8 -2 -2 9 -11 14 -11 17 0 17 10 0 10 3 1 12 -14 14 -16 32 -4 24
5 -3 9 1 9 9 0 8 -4 15 -9 15 -4 0 -8 9 -8 21 0 13 4 18 13 13 9 -5 9 -4 0 6
-10 11 -10 17 0 29 9 12 9 13 0 7 -10 -5 -13 5 -13 38 0 30 4 46 13 46 7 0 8
3 2 8 -12 9 -18 32 -7 31 4 -1 46 -1 95 0 80 1 87 3 87 21 0 17 7 20 40 20 22
0 40 5 40 10 0 6 -38 10 -95 10 -60 0 -95 -4 -95 -11 0 -6 -16 -9 -37 -7 -31
2 -39 7 -41 27 -3 16 0 21 8 16 7 -4 5 4 -4 18 -14 20 -16 46 -14 138 l3 114
859 3 c615 1 863 5 873 13 19 17 19 491 0 508 -10 8 -258 12 -873 13 l-859 3
-3 118 -3 117 63 2 c35 1 422 2 861 2 778 1 799 1 813 20 11 16 14 66 14 248
0 215 -1 229 -20 248 -20 20 -33 20 -875 20 l-855 0 0 114 0 113 36 6 c20 3
401 4 847 1 671 -5 816 -3 837 8 l25 14 3 243 c2 217 0 246 -14 263 -16 17
-53 18 -876 18 l-858 0 0 405 0 405 648 0 647 1 -40 36 c-22 19 -278 235 -570
478 -291 244 -543 456 -558 473 l-28 29 42 44 c23 24 59 67 81 96 61 81 104
89 459 92 l226 1 41 -27z m6369 -817 c54 -60 78 -105 100 -188 15 -58 17 -290
20 -3013 3 -1818 0 -3013 -6 -3115 -11 -187 -27 -246 -90 -330 -36 -48 -106
-109 -125 -110 -5 0 14 24 42 53 57 61 95 130 120 220 16 58 17 256 17 3147 0
2977 -1 3087 -19 3155 -23 87 -63 160 -122 220 -40 42 -42 45 -13 28 17 -10
51 -40 76 -67z m-4625 -1463 l12 -48 14 48 c7 27 19 47 27 47 13 0 34 -53 36
-90 1 -16 13 18 23 63 4 15 13 27 22 27 12 0 15 -6 10 -22 -3 -13 -11 -47 -17
-75 -16 -71 -41 -73 -59 -5 l-13 47 -15 -48 c-21 -65 -41 -58 -64 23 -22 79
-22 80 -3 80 9 0 19 -18 27 -47z m785 -713 c22 0 23 -3 23 -85 0 -85 0 -85
-26 -85 -29 0 -60 -25 -44 -35 5 -3 10 -11 10 -18 0 -6 -6 -2 -14 8 -8 11 -12
23 -10 27 3 4 -5 17 -17 29 l-21 21 -19 -21 c-11 -12 -24 -21 -30 -21 -6 0 -7
-4 -4 -10 3 -5 1 -10 -5 -10 -6 0 -13 6 -16 14 -3 8 -17 17 -30 20 -26 7 -27
20 -7 89 6 21 46 39 70 31 15 -5 16 -4 3 5 -12 8 -11 10 7 8 12 0 20 -4 17 -8
-2 -4 -1 -14 2 -23 5 -13 9 -14 20 -5 11 9 11 15 3 25 -9 11 -6 14 17 14 22 0
26 -3 14 -10 -11 -7 -8 -10 15 -9 17 0 24 3 18 6 -7 2 -13 9 -13 14 0 6 5 7
10 4 16 -10 12 6 -7 29 -10 12 -11 15 -3 9 8 -7 24 -13 37 -13z m-644 -6 c-8
-21 22 -44 57 -44 27 0 31 3 27 19 -4 17 -1 18 26 10 31 -9 67 -34 37 -26 -8
2 -12 2 -7 0 4 -3 7 -12 7 -21 0 -12 4 -9 13 8 8 15 21 24 32 23 11 -1 27 3
37 8 10 6 17 6 17 2 -1 -4 3 -20 8 -34 6 -14 13 -43 14 -64 3 -32 0 -39 -16
-41 -11 -2 -25 -10 -31 -19 -10 -14 -12 -14 -18 0 -3 8 -12 15 -20 15 -17 0
-42 38 -37 59 1 7 -2 10 -8 6 -14 -8 -14 -35 -1 -35 18 0 11 -26 -12 -46 -19
-15 -20 -16 -9 -1 12 15 11 17 -5 18 -11 1 -22 1 -25 1 -4 -1 -4 19 -1 43 3
30 1 45 -7 45 -6 0 -11 -18 -11 -45 0 -38 -3 -45 -20 -45 -17 0 -20 7 -21 48
-1 26 -3 39 -6 29 -2 -9 -9 -15 -14 -12 -5 4 -9 -1 -9 -10 0 -10 5 -14 13 -9
10 6 10 4 0 -7 -7 -7 -13 -18 -13 -23 0 -6 5 -4 11 4 9 13 10 13 6 0 -2 -8
-17 -16 -35 -18 l-31 -3 -3 58 -3 58 -14 -61 c-12 -51 -18 -60 -33 -56 -14 3
-17 0 -11 -14 6 -16 5 -16 -14 2 -15 14 -17 22 -9 33 9 12 8 13 -3 7 -10 -7
-12 -2 -7 25 5 30 4 29 -10 -8 -11 -29 -22 -43 -34 -43 -10 0 -21 -8 -24 -17
-4 -15 -5 -15 -4 2 1 44 -3 56 -14 52 -7 -2 -12 -10 -10 -17 2 -10 -1 -10 -14
1 -15 12 -15 14 -2 17 21 4 30 44 18 77 -5 14 -10 31 -10 36 0 12 37 12 61 -1
13 -7 19 -7 19 0 0 5 9 10 19 10 14 0 24 -12 34 -42 l15 -43 7 43 c6 32 12 42
26 42 12 0 19 -7 19 -20 0 -16 7 -20 33 -20 17 0 27 4 21 8 -17 11 -23 49 -9
49 7 0 11 -6 8 -13z m689 -26 c2 -22 6 -25 23 -18 11 4 29 4 40 0 11 -4 34 -4
51 0 23 6 31 4 28 -4 -3 -7 -1 -23 4 -36 9 -23 9 -23 20 8 9 26 16 32 41 32
23 0 29 -4 25 -15 -4 -8 -11 -12 -17 -8 -6 4 -8 0 -4 -10 3 -10 3 -17 -2 -17
-5 0 -16 -18 -25 -40 -19 -47 -20 -68 -2 -26 12 27 13 27 19 7 3 -11 2 -19 -3
-16 -4 3 -11 -2 -14 -11 -3 -8 -10 -13 -15 -9 -5 3 -12 1 -16 -5 -3 -5 -17
-10 -31 -10 -14 0 -22 -4 -19 -10 3 -5 1 -10 -4 -10 -6 0 -11 4 -11 9 0 5 -3
18 -6 28 -4 13 -3 14 4 5 13 -19 34 66 22 87 -7 12 -9 4 -10 -25 0 -41 -1 -42
-37 -47 -65 -8 -73 3 -73 95 0 76 7 104 12 46z m-2422 -57 l0 -78 -45 -1 c-35
-1 -48 3 -60 21 l-15 21 -16 -22 c-23 -33 -73 -27 -94 11 -13 24 -13 30 0 55
19 33 63 41 91 16 18 -16 20 -16 37 -1 10 10 28 17 40 17 15 0 22 6 22 20 0
13 7 20 20 20 18 0 20 -7 20 -79z m-40 -721 c25 -25 27 -86 3 -112 -11 -13
-30 -18 -65 -18 l-48 0 0 68 c0 38 3 72 7 75 15 15 83 7 103 -13z m2402 -10
c24 -30 23 -75 -3 -101 -15 -15 -30 -19 -62 -17 l-42 3 -3 59 c-2 32 -1 65 3
74 8 22 85 9 107 -18z m3728 -1981 l0 -1660 -57 -27 -58 -27 -1315 0 c-1266 0
-1317 1 -1364 19 -27 10 -66 34 -88 54 l-38 34 0 -31 c0 -23 -5 -31 -17 -31
-47 -1 -46 -17 1 -64 36 -36 40 -43 18 -32 -15 8 -45 33 -67 55 -40 42 -83 57
-71 25 6 -15 4 -15 -11 -3 -10 7 -19 14 -21 15 -2 1 17 28 42 61 25 32 59 91
76 132 67 157 63 67 67 1666 2 798 5 1456 8 1463 3 9 303 12 1450 12 l1445 0
0 -1661z m-7040 -1755 c161 -62 75 -59 1855 -59 1779 0 1693 -3 1855 59 94 36
154 51 145 36 -10 -16 -129 -79 -189 -100 -32 -10 -84 -24 -117 -30 -42 -8
-562 -11 -1707 -11 l-1647 0 -80 21 c-90 24 -183 66 -235 105 l-35 27 35 -7
c19 -4 73 -23 120 -41z"/>
<path d="M6990 4030 l0 -50 -130 0 -130 0 0 -25 c0 -25 0 -25 95 -25 57 0 95
-4 95 -10 0 -5 16 -10 35 -10 l35 0 0 -50 c0 -38 -4 -50 -15 -50 -8 0 -15 -9
-15 -20 0 -15 -7 -20 -29 -20 -26 0 -30 4 -34 33 -3 28 -4 26 -5 -10 -2 -37
-5 -43 -24 -44 -17 -1 -19 -2 -5 -6 9 -2 17 -13 17 -24 0 -12 7 -19 20 -19 13
0 20 -7 20 -20 0 -17 -7 -20 -40 -20 -22 0 -40 -4 -40 -10 0 -5 18 -10 40 -10
33 0 40 -3 40 -20 0 -17 -7 -20 -40 -20 -35 0 -40 -3 -40 -22 0 -20 6 -23 37
-24 20 0 39 -6 41 -12 2 -8 30 -12 78 -12 l74 0 0 55 c0 48 2 55 20 55 11 0
20 5 20 10 0 6 16 10 35 10 l35 0 0 190 0 190 -35 0 c-28 0 -35 4 -35 20 0 18
-7 20 -60 20 l-60 0 0 -50z"/>
<path d="M6090 3630 c0 -23 4 -30 20 -30 11 0 20 -4 20 -10 0 -5 25 -10 55
-10 30 0 55 5 55 10 0 6 27 10 60 10 53 0 60 2 60 20 0 16 7 20 31 20 17 0 37
-6 44 -14 12 -12 11 -15 -5 -19 -18 -5 -20 -13 -18 -89 l2 -83 3 83 c3 74 6
82 23 82 14 0 20 -7 20 -22 0 -20 6 -23 40 -25 28 -1 40 3 40 13 0 10 15 14
60 14 33 0 60 4 60 10 0 6 16 10 35 10 32 0 35 2 35 30 l0 30 -320 0 -320 0 0
-30z"/>
<path d="M7140 3490 l0 -60 -75 0 c-43 0 -75 -4 -75 -10 0 -6 -32 -10 -75 -10
-73 0 -75 -1 -75 -25 l0 -25 -165 0 c-158 0 -165 -1 -165 -20 0 -17 -7 -20
-40 -20 -22 0 -40 -4 -40 -10 0 -6 138 -10 395 -10 l395 0 0 30 c0 23 -4 30
-20 30 -19 0 -20 7 -20 95 0 88 -1 95 -20 95 -18 0 -20 -7 -20 -60z"/>
<path d="M11360 3815 l0 -55 175 0 175 0 0 55 0 55 -175 0 -175 0 0 -55z m338
-2 l3 -43 -165 0 -166 0 0 38 c0 21 3 42 7 46 4 3 77 5 162 4 l156 -3 3 -42z"/>
<path d="M11022 4848 c-8 -8 -12 -53 -12 -139 0 -103 3 -131 16 -143 13 -14
57 -16 322 -16 169 0 313 4 320 8 9 7 12 44 10 153 l-3 144 -320 3 c-241 2
-324 -1 -333 -10z"/>
<path d="M9870 829 c0 -17 121 -67 190 -80 79 -14 1059 -25 1128 -13 30 6
-165 11 -533 14 -630 6 -612 5 -737 65 -26 13 -48 19 -48 14z"/>
</g>
</svg>
