<?xml version="1.0" standalone="no"?>
<!DOCTYPE svg PUBLIC "-//W3C//DTD SVG 20010904//EN"
 "http://www.w3.org/TR/2001/REC-SVG-20010904/DTD/svg10.dtd">
<svg version="1.0" xmlns="http://www.w3.org/2000/svg"
 width="1280.000000pt" height="960.000000pt" viewBox="0 0 1280.000000 960.000000"
 preserveAspectRatio="xMidYMid meet">
<metadata>
Created by potrace 1.16, written by Peter Selinger 2001-2019
</metadata>
<g transform="translate(0.000000,960.000000) scale(0.100000,-0.100000)"
fill="#000000" stroke="none">
<path d="M11080 9370 c0 -126 3 -230 8 -230 7 0 424 85 492 100 19 4 179 37
355 74 533 109 569 117 574 121 2 2 -32 4 -75 3 -53 0 -71 -3 -54 -8 15 -5 18
-8 8 -9 -28 -2 -52 11 -37 20 10 6 8 13 -5 34 -10 15 -20 24 -23 21 -15 -15
-43 29 -43 66 l0 38 -600 0 -600 0 0 -230z"/>
<path d="M4825 8689 c-77 -22 -219 -60 -315 -85 -372 -97 -607 -162 -632 -175
-10 -5 -29 -21 -43 -35 -44 -44 -86 -55 -183 -48 -92 6 -198 -11 -346 -58 -55
-17 -72 -19 -87 -10 -11 7 -19 8 -19 3 0 -6 -26 -17 -57 -27 -92 -26 -100 -31
-107 -61 -13 -50 -33 -63 -99 -63 -37 0 -69 6 -87 17 -33 19 -46 17 -260 -35
-69 -17 -147 -36 -175 -42 -147 -33 -235 -63 -235 -79 0 -23 -35 -59 -63 -66
-12 -4 -44 -1 -71 5 l-48 11 -49 -50 c-27 -28 -49 -55 -49 -61 0 -5 -12 -20
-26 -33 -23 -19 -54 -67 -54 -82 0 -3 7 -5 15 -5 8 0 15 -7 15 -15 0 -8 -6
-15 -14 -15 -11 0 -13 -24 -8 -132 5 -126 4 -131 -14 -125 -15 6 -14 3 5 -13
13 -11 34 -20 46 -20 31 0 55 -25 55 -58 0 -32 -8 -45 -35 -60 -11 -6 -15 -11
-10 -12 13 0 324 58 525 99 85 17 250 49 365 72 116 22 228 44 250 49 22 4 66
13 99 19 71 13 89 26 26 18 -25 -3 -54 -2 -64 2 -11 4 -37 5 -57 1 -20 -4 -43
-3 -51 1 -7 4 -33 9 -56 11 -23 3 -45 7 -48 11 -4 4 -19 4 -33 2 -25 -5 -25
-4 4 10 l30 15 -35 -6 c-31 -6 -33 -5 -21 10 13 15 11 16 -14 6 -42 -16 -162
-10 -178 8 -6 8 -10 16 -8 16 3 1 -1 10 -7 21 -13 21 -13 17 3 -60 4 -19 1
-25 -12 -25 -9 0 -27 -10 -40 -22 -19 -18 -34 -22 -74 -20 -51 2 -107 21 -65
22 15 0 16 3 6 15 -7 8 -19 15 -26 15 -46 0 -62 180 -22 251 12 22 27 39 33
39 7 0 20 9 29 19 19 21 109 47 126 36 5 -3 10 -2 10 4 0 12 134 81 158 81 9
0 116 25 237 55 228 57 230 58 255 68 8 3 24 8 35 11 11 3 -2 4 -29 2 -30 -3
-44 -1 -35 5 8 5 36 9 63 9 42 0 47 2 33 13 -14 10 -4 13 60 15 43 2 75 1 72
-2 -3 -4 -23 -7 -43 -8 -20 -1 -32 -4 -26 -8 6 -4 30 -3 53 1 23 5 65 12 92
18 28 5 117 25 200 45 92 23 160 34 178 30 37 -8 76 -49 98 -104 15 -37 19
-41 24 -25 3 11 19 29 35 40 16 11 27 22 25 26 -3 3 10 18 28 32 18 14 46 37
62 51 17 14 35 26 41 26 6 0 21 12 33 26 38 44 122 74 219 79 l87 4 3 107 3
106 26 -17 c57 -38 417 -245 425 -245 4 0 8 -4 8 -10 0 -5 9 -10 20 -10 19 0
20 7 20 108 0 59 -3 151 -7 205 -6 96 -6 97 -32 96 -14 0 -89 -19 -166 -40z"/>
<path d="M9308 8423 c-28 -4 -28 -4 -28 -87 0 -46 -3 -98 -7 -116 l-6 -33 52
6 c29 3 67 15 86 27 61 37 80 137 36 184 -25 26 -56 31 -133 19z"/>
<path d="M12295 8315 c-264 -40 -536 -83 -605 -94 -69 -11 -147 -23 -175 -27
-27 -3 -130 -19 -227 -35 -97 -16 -188 -29 -202 -29 -24 0 -26 -3 -26 -47 0
-27 -5 -264 -10 -528 -6 -264 -14 -750 -20 -1080 l-9 -600 33 -32 c27 -26 46
-35 97 -43 95 -14 280 -47 310 -55 l26 -6 6 293 c4 161 12 615 18 1008 6 393
14 718 18 722 3 4 42 11 86 17 44 6 197 26 340 46 279 38 593 80 716 95 41 5
87 12 102 15 l27 7 0 224 c0 173 -3 224 -12 223 -7 -1 -229 -34 -493 -74z"/>
<path d="M8647 8285 c-8 -8 -22 -47 -32 -87 -10 -40 -21 -77 -26 -82 -7 -8
-25 44 -45 127 -6 24 -31 37 -46 22 -3 -3 9 -49 27 -103 30 -93 33 -97 60 -97
28 0 30 3 61 110 19 61 33 113 34 118 0 12 -18 8 -33 -8z"/>
<path d="M8370 8241 l-35 -6 -3 -114 c-2 -101 -1 -113 13 -107 9 3 19 6 21 6
2 0 4 18 4 39 0 33 4 40 26 45 66 17 98 98 52 130 -12 9 -27 15 -33 15 -5 -1
-26 -4 -45 -8z"/>
<path d="M8197 8203 c-4 -3 -7 -35 -7 -70 0 -34 -4 -63 -9 -63 -5 0 -24 25
-42 55 -43 72 -68 74 -70 8 -1 -27 -3 -74 -4 -105 -1 -50 1 -58 17 -58 16 0
18 9 18 70 0 39 4 70 8 70 5 0 24 -27 42 -60 27 -47 39 -60 55 -58 18 3 20 11
23 111 2 85 0 107 -11 107 -8 0 -17 -3 -20 -7z"/>
<path d="M7785 8120 c-10 -16 -65 -213 -61 -217 9 -9 36 11 36 28 0 13 10 20
34 25 38 7 56 0 56 -21 0 -8 7 -11 21 -8 14 4 18 11 14 22 -4 9 -18 53 -33 99
-19 61 -30 82 -43 82 -10 0 -21 -5 -24 -10z"/>
<path d="M7657 8093 c-4 -3 -7 -24 -7 -45 0 -24 -5 -38 -12 -38 -7 0 -23 -3
-35 -6 -21 -6 -23 -3 -23 35 0 34 -3 41 -20 41 -19 0 -20 -7 -20 -105 0 -98 1
-105 20 -105 17 0 20 7 20 50 0 46 2 50 25 52 14 0 31 1 37 2 9 1 12 -13 9
-42 -2 -38 0 -43 16 -40 16 3 18 16 21 106 2 81 0 102 -11 102 -8 0 -17 -3
-20 -7z"/>
<path d="M7398 8047 l-38 -9 0 -99 c0 -93 1 -99 20 -99 63 0 130 61 130 119 0
72 -43 105 -112 88z"/>
<path d="M4276 7894 c-16 -9 -57 -45 -91 -80 -34 -35 -68 -65 -76 -65 -8 -1 4
-5 26 -9 36 -6 33 -7 -26 -9 -48 -1 -68 -5 -72 -15 -4 -9 -18 -14 -37 -14 -18
1 -36 -6 -43 -16 -9 -12 -28 -17 -67 -18 -38 -1 -48 -4 -34 -10 12 -5 5 -7
-23 -3 -46 6 -76 -2 -67 -17 4 -6 -5 -2 -19 7 -15 9 -31 14 -37 10 -7 -4 -41
-7 -78 -7 -58 0 -69 -3 -93 -28 -21 -20 -35 -26 -56 -24 -22 3 -24 3 -9 -4 19
-8 18 -9 -5 -15 -13 -4 -25 -2 -27 3 -2 5 -17 3 -34 -6 -31 -16 -32 -32 -1
-19 10 5 36 10 58 11 22 2 60 8 85 13 25 6 108 22 185 36 77 15 147 29 155 33
21 8 29 10 73 11 21 0 36 4 34 9 -3 4 11 8 30 9 19 1 71 9 116 17 45 9 143 27
217 41 74 14 145 28 158 31 20 4 22 10 21 72 0 37 -3 62 -5 55 -6 -13 -86 -8
-194 11 -23 4 -45 1 -64 -10z"/>
<path d="M6630 7858 c-6 -24 -18 -66 -26 -95 -7 -28 -14 -56 -14 -62 0 -17 28
-1 33 18 6 24 58 35 73 15 13 -16 34 -19 34 -5 0 6 -12 46 -26 90 -20 63 -30
81 -45 81 -13 0 -21 -12 -29 -42z"/>
<path d="M6308 7833 c-16 -4 -18 -17 -18 -99 0 -77 3 -94 15 -94 11 0 15 11
15 39 0 52 15 60 31 16 8 -22 20 -35 31 -35 22 0 22 5 1 41 -16 26 -16 29 0
47 17 19 22 48 11 76 -6 16 -46 20 -86 9z"/>
<path d="M10115 7604 c-49 -8 -245 -34 -435 -59 -190 -24 -464 -60 -610 -80
-382 -51 -360 -49 -360 -36 0 19 29 58 58 78 15 9 52 20 82 24 l55 6 -50 1
c-53 2 -130 -33 -169 -77 -11 -11 -25 -21 -33 -21 -7 0 -13 -7 -13 -15 0 -18
-4 -19 -210 -45 -524 -66 -703 -90 -708 -95 -7 -7 14 -1175 22 -1182 23 -24
25 46 15 580 -6 313 -9 570 -6 573 4 5 167 27 537 75 201 25 336 43 1030 134
316 42 611 80 655 85 88 11 185 32 255 54 l45 15 -35 -1 c-19 0 -75 -7 -125
-14z"/>
<path d="M10215 7585 c-16 -8 -49 -19 -72 -25 -24 -6 -51 -19 -60 -29 -13 -13
-35 -18 -78 -20 -49 -1 -78 -10 -155 -48 -159 -77 -227 -130 -285 -220 -69
-106 -108 -209 -145 -379 -22 -99 -22 -102 -5 -197 27 -150 149 -400 223 -454
16 -12 42 -42 58 -67 32 -50 46 -59 41 -23 -2 12 -2 16 0 8 4 -12 6 -12 14 0
6 10 9 4 9 -18 0 -42 17 -84 39 -100 16 -11 18 -19 10 -54 -5 -22 -8 -48 -7
-57 3 -14 -5 -16 -45 -14 -26 2 -98 -2 -160 -8 -97 -11 -317 -19 -644 -24 -50
0 -86 -5 -80 -9 7 -4 -37 -7 -98 -5 -60 1 -143 -1 -182 -6 l-73 -9 0 32 c0 43
-20 121 -31 121 -5 0 -9 8 -10 18 0 13 -3 12 -11 -5 -6 -13 -15 -23 -20 -23
-12 0 1 43 16 52 6 4 8 8 6 10 -3 2 -23 17 -45 33 -22 16 -56 44 -75 62 -19
18 -41 31 -48 28 -7 -3 -11 -1 -8 3 11 18 -11 32 -42 26 -27 -5 -30 -9 -22
-25 13 -23 13 -49 1 -49 -5 0 -11 10 -13 23 l-3 22 -23 -23 c-12 -12 -27 -20
-32 -17 -6 4 -10 0 -10 -8 0 -8 -6 -20 -14 -26 -12 -10 -20 -9 -41 5 -17 11
-29 14 -33 7 -8 -12 -43 -13 -36 -1 3 4 -1 11 -10 14 -8 3 -17 12 -20 20 -4
11 -2 11 13 2 24 -15 53 -3 49 19 -2 10 3 23 12 30 8 6 11 15 6 20 -5 4 -11 2
-13 -5 -4 -9 -11 -6 -25 10 -13 15 -22 19 -25 11 -2 -7 -10 -10 -17 -7 -8 3
-16 -2 -20 -12 -5 -13 -9 -14 -20 -5 -12 10 -15 8 -18 -10 -2 -12 -9 -24 -17
-27 -9 -3 -11 2 -6 17 6 20 5 21 -14 9 -13 -8 -22 -24 -22 -43 l-2 -30 -4 28
-4 28 -32 -30 c-17 -17 -39 -33 -49 -37 -10 -3 -18 -10 -18 -15 0 -6 -4 -7
-10 -4 -5 3 -10 -2 -10 -11 0 -10 -3 -15 -6 -11 -3 3 -20 -10 -36 -29 -40 -46
-57 -127 -58 -276 0 -108 -2 -118 -19 -118 -15 0 -19 -10 -25 -52 -9 -80 -7
-171 5 -188 8 -11 10 -2 6 35 -2 28 -2 42 0 33 3 -10 8 -18 13 -18 4 0 8 -51
8 -113 1 -115 10 -154 52 -237 18 -35 20 -51 15 -94 -4 -28 -12 -62 -17 -76
-5 -14 -12 -36 -14 -50 -6 -31 -36 -90 -46 -90 -11 0 -10 18 2 41 15 28 4 24
-44 -16 -23 -19 -87 -53 -142 -76 -112 -46 -154 -65 -271 -120 -45 -21 -98
-41 -118 -45 -58 -10 -90 -46 -124 -134 -17 -44 -31 -86 -31 -94 0 -8 -9 -31
-21 -50 -11 -19 -27 -70 -34 -113 -8 -43 -21 -98 -30 -123 -21 -59 -77 -281
-99 -395 -10 -49 -27 -117 -38 -150 -28 -85 -42 -331 -22 -389 l15 -43 -42
-61 -41 -62 2 -103 c3 -125 -24 -345 -45 -365 -4 -4 -5 9 -1 28 5 31 5 32 -6
13 -11 -24 -28 -31 -28 -13 0 6 -8 10 -17 11 -12 1 -10 4 7 9 18 6 9 8 -35 8
-51 -1 -55 -2 -25 -8 l35 -7 -40 -3 -40 -3 40 -7 40 -7 -42 -2 c-24 0 -43 -5
-43 -11 0 -5 -5 -10 -10 -10 -7 0 -7 6 0 19 5 11 10 30 9 43 0 13 -3 17 -6 11
-2 -7 -9 -13 -15 -13 -5 0 -19 -10 -29 -22 l-20 -23 7 24 6 24 -22 -21 c-13
-12 -19 -25 -14 -33 5 -9 2 -10 -11 -5 -16 6 -16 4 -4 -11 12 -15 12 -16 -5
-10 -15 6 -17 5 -7 -7 9 -11 9 -15 -1 -19 -7 -3 -3 -6 10 -6 12 -1 22 -6 22
-12 0 -6 -8 -8 -18 -5 -13 4 -19 1 -19 -9 0 -9 10 -15 26 -16 23 0 24 -1 6 -8
-19 -8 -18 -9 5 -13 25 -5 25 -5 -2 -7 -16 0 -28 -5 -28 -11 0 -5 -4 -10 -9
-10 -5 0 -7 10 -4 23 5 22 5 22 -10 2 -8 -11 -13 -23 -11 -27 3 -5 1 -8 -4 -8
-5 0 -9 -7 -9 -15 0 -11 11 -15 46 -14 l46 2 -40 7 c-43 8 -38 13 9 10 16 -1
33 4 38 12 8 10 8 9 4 -5 -4 -11 0 -17 12 -18 26 -2 -27 -17 -68 -19 -19 -1
-27 -4 -17 -7 9 -2 17 -9 17 -15 0 -5 -7 -8 -15 -5 -8 4 -17 2 -20 -3 -3 -5 3
-11 12 -13 12 -3 9 -5 -9 -6 -22 -1 -25 2 -21 20 4 16 2 20 -8 17 -8 -3 -15
-14 -15 -26 -1 -12 -7 -28 -13 -36 -10 -12 -7 -15 16 -19 26 -4 25 -4 -7 -6
-33 -3 -33 -4 -10 -11 l25 -8 -27 -1 c-20 -1 -26 -5 -22 -16 4 -10 0 -15 -14
-15 -24 0 -38 16 -20 23 9 4 10 6 1 6 -19 1 -27 -20 -12 -30 9 -5 0 -6 -22 -3
-21 4 -45 1 -55 -5 -15 -9 -6 -11 46 -9 36 1 71 -1 78 -5 7 -5 12 -3 12 5 0
10 2 10 8 1 5 -9 56 -12 177 -12 l170 1 -3 -34 c-6 -76 -24 -268 -30 -328 l-7
-65 -90 -22 c-227 -56 -504 -91 -770 -99 -110 -3 -201 -6 -202 -8 -1 -1 39
-12 89 -24 86 -21 91 -22 104 -5 12 17 13 16 23 -10 12 -32 41 -37 41 -6 0 28
23 19 30 -11 5 -22 19 -28 130 -56 69 -18 169 -43 222 -58 l97 -26 53 57 c29
31 78 83 108 116 30 32 58 65 63 73 8 15 66 48 73 42 2 -2 -7 -15 -19 -28
-112 -121 -237 -264 -237 -270 0 -5 19 -11 43 -15 23 -4 56 -11 72 -16 39 -12
339 -94 555 -151 41 -11 102 -29 135 -39 62 -19 219 -61 482 -130 152 -39 154
-40 240 -28 252 33 560 -53 671 -187 25 -31 42 -39 123 -60 143 -38 242 -64
260 -70 13 -3 23 14 47 78 17 46 33 92 36 103 3 11 26 31 51 44 25 13 57 37
70 52 23 28 23 31 24 276 1 287 -12 510 -40 673 -10 63 -19 133 -19 155 0 43
9 51 187 166 65 42 179 173 255 294 22 36 45 65 50 65 10 0 3 -251 -12 -370
-5 -41 -14 -138 -20 -215 -7 -77 -16 -156 -21 -175 -5 -19 -14 -91 -19 -160
-5 -69 -12 -140 -16 -159 -12 -58 24 -34 88 59 32 47 62 86 67 88 6 2 10 -46
10 -120 1 -91 7 -155 26 -247 14 -68 25 -128 25 -132 0 -13 -65 -11 -160 6
-47 8 -128 16 -180 16 -52 1 -86 3 -75 6 50 11 45 16 -30 34 -44 11 -85 18
-92 17 -7 -2 51 -39 129 -83 140 -79 355 -212 383 -237 8 -7 21 -19 30 -26 8
-7 15 -23 15 -36 0 -12 9 -63 19 -113 11 -50 21 -112 23 -139 l3 -48 -88 -24
c-49 -14 -83 -28 -77 -32 8 -5 4 -9 -9 -13 -12 -3 -21 -1 -21 4 0 6 -9 5 -20
-1 -11 -6 -24 -8 -29 -5 -5 3 -17 2 -26 -1 -13 -5 -14 -8 -3 -15 13 -9 -21
-13 -71 -9 -13 1 -21 -3 -17 -8 3 -5 -1 -12 -9 -16 -8 -3 -15 -1 -15 5 0 15
-42 0 -57 -20 -6 -9 -18 -27 -25 -41 -18 -35 -119 -213 -127 -225 -5 -5 -22
-36 -40 -67 l-32 -58 1915 0 1916 0 0 174 0 174 -42 16 -43 16 45 -6 c33 -4
41 -2 30 5 -10 7 -11 11 -2 11 9 0 12 39 12 160 l0 160 -52 1 c-29 0 -47 3
-40 6 18 7 15 23 -4 23 -21 0 -56 39 -47 53 3 5 0 8 -8 5 -7 -2 -21 2 -30 10
-28 25 -90 42 -170 49 -85 6 -129 0 -129 -21 0 -23 -106 -39 -221 -32 -170 9
-184 11 -190 20 -4 5 -14 -4 -23 -20 -15 -28 -15 -28 -15 46 0 43 6 92 15 115
26 68 32 103 21 114 -15 15 14 24 44 14 45 -15 74 -10 73 13 0 16 4 20 14 16
10 -3 13 -1 8 6 -11 18 5 92 21 92 15 0 32 37 30 66 -1 10 6 20 16 22 12 2 22
-7 33 -33 20 -49 50 -45 47 5 -5 67 -25 132 -36 121 -6 -6 -24 -11 -41 -11
-32 0 -26 15 8 22 11 1 21 9 24 17 3 9 -1 11 -16 7 -13 -4 -22 -1 -26 9 -3 9
-2 14 2 11 4 -2 14 -1 22 5 10 6 11 9 3 9 -7 0 -13 5 -13 11 0 5 5 7 11 3 8
-5 10 0 6 17 -7 30 5 91 19 96 7 2 23 -39 39 -97 20 -70 33 -99 41 -96 8 3 35
-10 61 -28 26 -18 71 -48 98 -66 28 -19 52 -38 53 -42 2 -4 10 -8 17 -8 7 0
15 -4 17 -8 2 -5 62 -48 133 -97 72 -48 137 -94 146 -101 8 -8 21 -14 27 -14
18 0 17 1116 0 1123 -10 4 -10 6 0 6 6 1 12 5 12 10 0 5 -9 7 -19 4 -10 -3
-30 1 -42 8 -22 11 -23 11 -10 -4 7 -10 19 -17 26 -17 19 0 6 -40 -21 -67 -21
-21 -32 -23 -139 -23 -100 0 -115 2 -115 17 0 14 -2 14 -20 -2 -13 -12 -20
-31 -20 -57 0 -31 -3 -38 -20 -38 -17 0 -20 -7 -20 -40 l0 -40 -40 0 -40 0 0
40 c0 22 -4 40 -10 40 -5 0 -10 -18 -10 -40 0 -22 5 -40 10 -40 6 0 10 -4 10
-10 0 -5 -13 -10 -30 -10 -22 0 -30 -5 -31 -17 -1 -26 -21 24 -25 62 -10 87
-10 101 -4 115 28 54 45 109 45 141 0 21 5 41 12 43 7 3 11 21 10 45 -2 23 2
43 8 45 6 3 5 8 -4 14 -9 6 -10 12 -3 16 6 4 9 13 5 21 -3 9 1 15 8 15 11 0
11 3 -1 10 -10 7 -12 12 -4 18 6 4 17 24 25 45 7 20 16 37 19 37 7 0 335 -215
397 -259 23 -17 45 -31 48 -31 3 0 5 108 5 240 0 185 -3 240 -12 240 -10 0
-297 32 -383 43 -16 1 -20 -4 -20 -25 -1 -39 -15 -48 -15 -9 0 18 -4 30 -9 27
-5 -3 -7 -15 -4 -26 5 -17 2 -19 -24 -14 -16 3 -47 1 -68 -5 -34 -9 -41 -8
-57 9 -12 12 -32 20 -52 20 -21 0 -36 6 -40 15 -3 8 -11 15 -18 15 -19 0 -79
60 -73 71 4 5 -1 9 -9 9 -9 0 -16 5 -16 10 0 6 14 10 30 10 19 0 30 -5 30 -14
0 -10 9 -14 28 -13 15 1 26 -3 25 -9 -1 -6 16 -18 38 -27 34 -14 43 -14 67 -1
15 7 33 14 39 14 7 0 12 5 10 12 -1 7 18 18 43 24 25 7 41 13 35 14 -5 1 1 5
15 9 25 7 25 8 24 111 -1 58 -6 159 -13 225 -6 66 -11 135 -11 153 0 17 -5 32
-10 32 -6 0 -10 7 -10 16 0 8 -7 22 -15 30 -8 8 -12 21 -9 28 3 7 -2 16 -11
20 -9 3 -14 10 -10 16 3 5 -3 18 -14 29 -11 11 -16 22 -13 26 4 4 -1 11 -10
16 -11 6 -15 19 -13 40 3 20 -1 32 -10 36 -8 3 -15 10 -15 15 0 6 7 8 14 5 10
-4 13 -1 9 9 -3 9 1 14 13 15 17 0 16 1 -2 9 -33 13 -42 34 -13 26 13 -3 18
-3 12 0 -16 7 -17 34 -1 34 6 0 4 6 -7 13 -10 8 -15 19 -11 26 4 7 -2 20 -16
31 -13 11 -18 19 -11 20 7 0 10 7 7 15 -4 10 0 15 12 16 14 0 10 5 -11 14 -24
11 -27 15 -13 20 9 4 14 13 12 20 -3 7 3 15 13 18 14 4 14 5 -4 6 -25 1 -29
11 -12 28 8 8 6 14 -10 22 -20 11 -20 12 -1 31 11 11 24 20 30 20 6 0 10 5 10
10 0 6 -11 10 -25 10 -14 0 -25 5 -25 10 0 6 5 10 10 10 6 0 19 9 29 19 19 19
19 19 0 24 -10 3 -22 1 -25 -4 -3 -5 -15 -9 -27 -9 -20 0 -20 0 -1 15 10 8 15
15 9 16 -5 0 1 4 15 9 25 7 25 8 -9 20 -28 11 -31 15 -17 20 10 3 16 8 14 11
-2 3 3 13 11 22 12 15 10 16 -20 10 -32 -6 -33 -5 -17 10 9 9 21 17 27 17 17
0 13 10 -11 31 -13 10 -18 18 -12 19 15 0 -6 81 -25 96 -12 9 -11 12 3 17 10
4 14 12 10 18 -3 6 0 15 7 20 11 7 10 9 -3 9 -21 0 -24 16 -5 23 8 3 6 10 -8
21 -13 10 -15 15 -6 16 7 0 11 6 7 15 -3 8 -1 15 4 15 19 0 10 19 -12 26 l-21
6 24 13 24 13 -35 10 c-23 7 -28 10 -14 11 17 1 22 7 22 29 0 15 -3 31 -6 36
-3 6 -6 30 -7 55 0 25 -3 51 -6 56 -3 6 -6 37 -8 70 -2 57 -7 92 -51 340 -11
61 -23 127 -26 148 -4 20 -10 40 -15 43 -4 2 -5 12 -2 20 4 12 1 15 -13 12
-14 -3 -18 -10 -14 -28 2 -14 4 -104 5 -200 0 -172 -16 -313 -38 -327 -6 -4
-7 5 -2 23 12 43 12 413 0 422 -5 4 -10 13 -11 20 -1 6 -2 23 -2 37 -2 26 -22
36 -22 11 0 -19 -41 -8 -58 16 -19 26 -26 23 -42 -17 -15 -39 -36 -48 -26 -12
3 12 9 33 13 47 6 25 6 25 -18 -4 -23 -26 -32 -29 -95 -31 -103 -4 -104 -4
-104 -20 0 -8 -4 -15 -10 -15 -5 0 -10 7 -10 15 0 8 -4 15 -10 15 -5 0 -10 -7
-10 -15 0 -8 -7 -15 -15 -15 -8 0 -15 7 -15 15 0 8 -7 15 -15 15 -9 0 -12 -6
-9 -15 5 -11 -1 -15 -21 -15 -14 0 -24 -4 -21 -9 3 -5 31 -7 61 -6 30 2 55 -1
55 -6 0 -5 -29 -9 -65 -9 -62 0 -65 1 -65 24 0 18 6 26 23 28 l22 3 -23 7
c-19 5 -24 2 -29 -23 -6 -30 -18 -38 -26 -16 -4 9 -8 9 -15 -2 -12 -17 -49 -6
-57 18 -3 11 -15 21 -26 24 -22 6 -22 2 -6 101 4 24 -48 130 -82 169 -21 23
-32 28 -64 25 -33 -2 -43 2 -64 26 -13 16 -27 26 -30 23 -10 -11 -33 -122 -33
-164 0 -31 -4 -43 -15 -43 -11 0 -13 8 -10 30 3 17 7 44 10 60 3 18 0 30 -6
30 -8 0 -8 4 0 14 8 10 9 16 2 21 -6 3 -16 -4 -21 -17 -11 -22 -60 -36 -60
-17 0 5 -10 9 -22 9 -20 0 -21 -1 -3 -20 18 -19 17 -20 -3 -20 -12 0 -22 -4
-22 -9 0 -5 -9 -11 -21 -14 -12 -3 -18 -10 -14 -17 5 -8 13 -7 30 4 12 8 25
12 29 9 7 -8 -36 -53 -51 -53 -7 0 -13 -10 -13 -22 0 -21 0 -21 15 -2 8 10 15
15 15 10 0 -4 9 2 19 15 11 13 23 21 27 16 4 -4 -2 -14 -14 -23 -23 -16 -30
-44 -12 -44 6 0 3 -11 -7 -23 l-17 -24 -29 39 c-21 30 -25 43 -17 52 11 14 4
46 -11 46 -5 0 -9 15 -9 33 0 18 -5 38 -11 44 -8 8 -7 20 6 45 33 61 35 68 35
93 0 14 4 25 10 25 5 0 7 13 4 30 -4 16 -2 42 4 57 6 16 13 43 16 61 l6 33
-58 -3 c-71 -4 -76 -17 -26 -82 36 -47 37 -50 24 -85 -29 -83 -109 -238 -138
-271 -20 -22 -32 -45 -32 -63 0 -16 -7 -30 -16 -34 -8 -3 -26 -28 -39 -54 -19
-40 -21 -50 -9 -57 15 -8 18 -1 -48 -122 -19 -36 -49 -101 -67 -145 -18 -44
-36 -89 -42 -100 -15 -33 -69 -198 -65 -202 2 -2 16 32 31 74 29 80 93 223
101 223 3 0 -9 -37 -25 -75 -5 -11 -14 -40 -21 -65 -7 -25 -18 -54 -25 -65
-20 -36 -123 -399 -141 -502 -2 -12 -8 -33 -14 -47 -5 -13 -6 -27 -3 -30 3 -3
1 -11 -4 -18 -6 -7 -23 -67 -38 -133 -15 -66 -37 -154 -50 -195 -23 -76 -66
-248 -65 -263 0 -5 4 -6 8 -3 5 3 8 -5 7 -17 -1 -13 -8 -22 -17 -21 -11 1 -28
-34 -58 -125 l-43 -126 7 -175 c4 -96 9 -224 11 -285 3 -60 7 -120 10 -133 5
-21 3 -23 -17 -17 -13 4 -42 16 -65 27 -28 13 -53 17 -71 13 -15 -3 -59 1 -97
10 -39 8 -81 18 -94 21 l-24 5 6 147 c3 81 11 201 17 266 5 66 9 121 7 123 -2
1 -18 -73 -37 -165 -18 -92 -36 -171 -40 -176 -15 -16 -32 32 -20 55 6 11 14
75 16 142 3 67 14 157 24 200 17 69 19 103 13 285 -4 164 -2 225 10 292 8 47
18 139 22 205 4 72 20 192 42 300 19 99 41 216 48 260 8 44 25 107 39 140 14
33 26 78 26 101 0 22 9 65 19 95 50 143 73 203 120 319 l51 124 -24 24 c-14
15 -29 21 -36 17 -7 -4 -26 -37 -42 -74 -17 -36 -42 -86 -56 -109 -14 -24 -27
-62 -29 -85 -2 -23 -15 -73 -28 -112 -24 -66 -52 -178 -95 -380 -10 -49 -28
-133 -40 -185 -11 -52 -25 -122 -31 -155 -6 -33 -14 -64 -20 -69 -5 -6 -9 -21
-9 -34 0 -21 -2 -22 -15 -12 -12 10 -16 9 -21 -4 -9 -24 -24 -19 -24 8 0 14
10 32 22 40 l22 16 -24 0 -25 1 29 25 c15 14 26 28 22 31 -9 10 -88 -47 -93
-68 -3 -10 -10 -19 -15 -19 -6 0 -8 10 -4 23 3 12 6 28 6 36 0 8 6 11 15 7 8
-3 15 -1 15 4 0 5 9 12 20 15 11 3 20 11 20 17 0 6 7 20 17 30 9 10 14 20 11
23 -9 9 -68 -29 -74 -48 -9 -28 -23 -10 -15 21 4 15 14 27 22 28 34 1 58 17
68 46 13 36 8 46 -14 28 -8 -7 -15 -8 -15 -2 0 5 9 16 19 23 18 13 19 19 10
68 -6 30 -17 63 -24 74 -12 17 -13 17 -20 -12 -4 -17 -10 -33 -14 -35 -9 -6
24 244 38 292 6 19 40 65 76 103 58 62 65 74 65 109 0 56 -25 53 -50 -5 -19
-44 -40 -60 -40 -30 0 11 -8 8 -30 -12 -17 -15 -30 -36 -30 -50 0 -12 -4 -23
-10 -23 -5 0 -10 -9 -10 -19 0 -11 -5 -23 -11 -26 -6 -4 -8 -13 -5 -21 3 -7 1
-16 -5 -20 -5 -3 -7 -14 -4 -24 3 -9 0 -30 -6 -46 -14 -37 -37 -226 -44 -369
-3 -60 -8 -127 -11 -149 -2 -22 0 -44 7 -52 8 -10 8 -14 1 -14 -6 0 -13 -27
-15 -62 -3 -35 -3 32 -1 147 2 116 9 239 14 275 17 114 24 336 11 344 -6 4
-11 3 -11 -3 0 -6 -6 -8 -14 -5 -9 3 -19 -4 -27 -17 -16 -31 -38 -126 -39
-174 -2 -39 -2 -38 -17 20 -14 56 -13 125 2 210 5 30 5 30 -11 -4 -8 -19 -23
-86 -32 -148 -15 -106 -15 -117 1 -180 9 -38 17 -78 17 -91 0 -13 6 -35 14
-50 9 -18 15 -85 20 -197 5 -127 12 -190 28 -250 16 -62 22 -115 24 -235 3
-158 -9 -182 -22 -42 -3 37 -16 99 -29 137 -20 62 -39 137 -63 255 -6 30 -17
40 -89 81 -45 26 -92 50 -105 54 -13 4 -43 20 -68 35 -25 15 -76 40 -115 55
-38 16 -82 36 -97 47 -15 11 -83 45 -151 77 -107 51 -129 66 -172 115 -111
128 -124 141 -130 134 -4 -3 1 -20 10 -38 9 -17 14 -39 12 -48 -3 -12 -8 -8
-19 15 l-14 33 -13 -38 c-8 -20 -31 -66 -51 -102 -63 -109 -221 -422 -237
-470 -16 -47 -198 -522 -229 -600 l-19 -45 -6 45 c-4 33 -1 56 13 88 11 24 17
46 15 49 -3 2 -11 -13 -18 -34 -12 -37 -13 -37 -20 -13 -20 72 -11 112 60 253
58 117 69 145 68 187 -1 38 4 54 19 65 19 15 19 15 -1 8 -16 -5 -14 0 9 25 17
18 34 32 39 32 6 0 25 11 43 25 18 14 37 25 43 25 6 0 19 17 30 38 l20 39 -42
40 c-47 45 -78 63 -122 73 l-29 6 39 23 c22 13 48 25 58 27 42 8 195 142 264
232 14 18 34 65 43 105 10 39 30 99 44 132 14 33 26 76 26 95 2 49 11 65 39
65 13 0 26 6 29 14 3 8 0 11 -6 7 -15 -9 -42 4 -42 20 0 8 9 19 19 26 16 9 17
15 9 26 -9 10 -8 16 3 22 11 7 16 2 20 -21 9 -42 17 -46 29 -14 11 30 6 60 -8
51 -5 -3 -6 9 -3 27 5 30 6 30 10 7 2 -16 9 2 17 50 16 90 13 104 -22 96 -25
-7 -26 -6 -20 34 3 22 9 58 12 80 3 22 11 40 17 40 36 0 582 18 752 25 66 3
199 8 295 11 96 3 193 9 215 13 36 6 41 10 46 41 6 33 6 32 8 -13 1 -57 12
-79 56 -121 105 -98 125 -116 133 -116 5 0 25 -17 43 -37 19 -21 57 -59 85
-85 l52 -47 -27 -11 c-51 -22 -80 -56 -109 -126 l-28 -70 40 14 c23 7 47 19
55 25 24 20 4 -73 -25 -115 -14 -20 -48 -94 -74 -164 -27 -70 -53 -130 -58
-133 -20 -12 -45 -274 -46 -471 0 -175 2 -201 20 -250 l21 -55 17 60 c9 33 46
150 81 260 35 110 73 252 85 315 39 215 113 454 148 482 12 10 14 10 8 1 -4
-7 -3 -13 1 -13 5 0 17 14 28 32 10 18 30 43 43 55 l25 23 -23 25 c-13 14 -57
45 -97 68 -40 23 -73 45 -73 49 0 17 176 144 214 154 14 3 23 10 20 15 -3 5 2
9 10 9 9 0 30 8 48 18 18 10 38 17 44 15 6 -2 19 11 28 29 10 18 28 48 42 67
13 19 24 42 24 51 0 10 7 23 16 31 36 29 57 99 30 99 -15 0 -26 -21 -26 -51 0
-10 -4 -19 -10 -19 -5 0 -10 -6 -10 -14 0 -7 -7 -20 -17 -27 -15 -13 -16 -11
-10 13 4 14 10 33 13 42 5 12 2 15 -12 9 -14 -5 -16 -3 -11 10 22 54 22 53 4
39 -8 -8 -18 -26 -20 -40 -4 -25 -4 -25 -6 4 0 18 7 42 19 57 11 14 20 38 20
54 0 15 4 23 8 17 14 -21 50 -35 58 -23 8 13 -24 41 -37 33 -9 -5 -14 25 -10
55 2 7 -2 10 -8 6 -7 -3 -8 0 -5 9 3 9 1 16 -5 16 -16 0 -14 16 5 35 12 12 19
13 24 5 5 -8 9 -7 14 5 9 23 8 25 -10 25 -10 0 -14 6 -11 14 3 7 0 19 -6 26
-9 10 -9 14 1 17 6 3 12 15 12 27 0 12 8 31 18 42 22 23 27 90 5 73 -7 -6 -13
-19 -13 -28 0 -20 -55 -45 -92 -42 -28 2 -64 -16 -67 -34 -4 -28 -13 -45 -22
-39 -5 3 -9 2 -8 -3 6 -37 -33 -46 -68 -14 -22 21 -65 45 -100 55 -20 6 -23 4
-23 -17 0 -19 -8 -26 -39 -35 -21 -7 -44 -18 -50 -26 -8 -9 -25 -12 -57 -8
-33 3 -49 1 -55 -9 -6 -11 -11 -11 -21 -1 -6 6 -23 12 -36 12 -17 0 -23 4 -18
15 6 17 1 19 -23 6 -9 -5 -28 -32 -41 -60 -13 -28 -30 -51 -37 -51 -7 0 -18
-11 -23 -25 -5 -14 -14 -25 -20 -25 -6 0 -9 4 -6 8 7 12 -15 103 -24 97 -5 -3
-11 -1 -15 5 -3 5 -21 10 -39 10 -38 0 -53 14 -57 50 -4 30 10 109 19 111 39
9 73 6 68 -6 -3 -9 2 -11 15 -8 13 4 19 1 17 -7 -2 -10 12 -13 57 -12 95 2
145 12 145 29 0 8 5 24 12 36 11 21 11 21 18 2 5 -13 8 -1 8 33 1 61 6 72 33
72 20 0 134 -84 143 -105 17 -45 124 -13 180 53 44 54 47 75 9 66 -27 -6 -27
-6 -11 12 14 14 22 15 40 7 14 -6 32 -7 46 -2 13 5 29 6 34 2 27 -16 -4 73
-41 121 -31 39 -50 54 -81 63 -35 9 -40 8 -36 -4 5 -11 -5 -14 -47 -12 -57 1
-170 -23 -193 -41 -8 -7 -14 -9 -14 -4 0 4 -6 -1 -14 -12 -8 -10 -18 -16 -22
-12 -4 4 -13 3 -21 -4 -8 -6 -38 -13 -66 -15 -102 -6 -162 -15 -182 -29 -27
-19 -45 -18 -45 4 -1 10 -9 2 -21 -20 -11 -21 -22 -38 -25 -38 -9 0 8 43 22
57 7 8 31 51 52 97 44 93 129 214 152 215 13 1 13 3 1 10 -22 14 14 77 60 108
65 43 96 41 175 -11 151 -100 177 -118 211 -149 67 -59 133 -123 133 -129 0
-11 112 -191 142 -229 28 -35 30 -44 29 -105 -1 -36 -4 -70 -7 -75 -3 -5 2
-12 11 -15 10 -4 15 -14 12 -25 -7 -28 -3 -24 29 27 16 25 43 56 60 69 41 31
97 149 119 250 9 44 24 96 32 115 24 58 33 123 22 166 -5 21 -14 77 -20 124
-16 140 -59 210 -187 312 -37 29 -76 63 -87 76 -11 13 -58 42 -105 66 -47 23
-85 48 -85 54 0 14 -36 41 -55 42 -9 0 -33 9 -55 20 -47 24 -154 26 -200 5z
m-2326 -1513 c-5 -2 0 -16 11 -31 11 -16 17 -30 15 -33 -3 -3 2 -5 10 -5 8 0
15 5 15 11 0 6 4 6 11 -1 14 -14 39 6 39 32 0 12 4 13 18 7 9 -5 24 -7 32 -5
8 2 5 -4 -7 -13 -13 -9 -23 -22 -23 -30 0 -15 77 -41 88 -29 4 4 1 10 -5 12
-10 4 -10 8 1 18 14 15 56 9 56 -7 0 -5 5 -6 10 -3 6 3 10 15 10 26 0 12 7 19
19 19 29 0 51 11 51 24 0 7 16 11 40 11 31 0 47 -8 75 -35 19 -19 43 -50 53
-70 10 -19 23 -34 30 -32 7 1 12 -10 12 -28 0 -27 -3 -30 -29 -30 -20 0 -32 6
-36 19 -6 20 -35 37 -35 21 0 -15 -42 -12 -65 4 -26 17 -75 29 -75 17 0 -13
-93 -21 -107 -9 -8 6 -13 7 -13 1 0 -12 -14 -13 -115 -13 -44 1 -84 5 -89 11
-24 23 -72 8 -136 -41 -19 -15 -43 -30 -53 -34 -17 -5 -18 -2 -12 36 5 29 25
66 60 114 43 57 60 72 92 80 25 6 42 6 50 -1 6 -5 7 -12 2 -13z m155 -460 c3
-5 7 -33 10 -63 3 -29 10 -55 16 -57 17 -6 11 -18 -16 -31 -15 -6 -24 -15 -20
-18 3 -4 17 0 31 7 20 11 27 11 40 0 29 -24 18 -39 -27 -38 -77 1 -109 -4
-104 -18 3 -8 -7 -6 -27 6 -18 11 -40 20 -50 20 -26 0 -16 22 16 38 14 7 29
23 32 35 4 12 16 46 27 75 16 42 25 52 44 52 12 0 25 -4 28 -8z m-319 -50 c6
-4 15 -16 21 -27 15 -28 71 -46 122 -39 26 3 42 1 42 -5 0 -6 -8 -11 -18 -11
-10 0 -22 -4 -27 -9 -10 -9 -78 -23 -127 -25 -14 0 -30 -4 -34 -8 -14 -15 -22
-8 -28 25 -17 80 8 130 49 99z m651 -28 c27 -7 21 -44 -8 -44 -12 0 -18 -6
-16 -16 2 -11 -11 -20 -41 -31 -37 -12 -52 -13 -90 -2 -48 13 -106 47 -96 57
3 3 28 5 56 3 28 -1 56 2 62 7 31 24 94 37 133 26z m2531 -382 c-10 -10 -17
-21 -17 -24 0 -7 -90 -141 -99 -148 -3 -3 -11 -16 -17 -30 -6 -14 -38 -66 -70
-117 l-60 -92 -13 30 c-7 16 -19 29 -28 29 -15 0 -65 48 -82 77 -13 24 -1 63
20 63 11 0 19 5 19 10 0 6 -9 10 -21 10 -11 0 -17 5 -14 10 3 6 17 10 30 10
14 0 26 7 30 19 3 11 12 22 20 25 21 8 31 -15 12 -29 -10 -7 -17 -17 -17 -23
0 -5 -7 -12 -15 -16 -24 -9 -17 -26 10 -26 18 0 23 4 19 15 -4 9 0 15 9 15 8
0 18 7 21 16 4 12 13 14 29 9 46 -14 77 -12 93 7 16 17 16 18 -16 18 -26 0
-31 3 -26 16 5 14 4 15 -9 4 -20 -17 -43 -6 -56 27 -8 21 -12 24 -19 13 -7
-11 -10 -7 -16 13 -9 37 -1 42 36 24 34 -17 60 -13 60 9 0 8 5 14 10 14 7 0 7
-6 0 -19 -14 -27 -13 -34 6 -27 9 3 25 -1 37 -9 12 -8 25 -15 30 -15 11 0 -3
43 -17 52 -8 6 -8 8 1 8 7 0 16 -7 21 -16 8 -14 10 -14 21 0 8 9 19 16 25 16
6 0 20 11 31 25 11 13 24 24 29 25 5 0 2 -8 -7 -18z m-3122 -390 c33 -51 66
-92 73 -92 29 0 8 -17 -35 -29 -26 -6 -62 -23 -80 -37 l-33 -25 0 83 c0 46 -2
121 -5 168 -5 75 -4 81 7 54 7 -17 40 -72 73 -122z m-154 -176 c-8 -47 -8 -76
0 -108 6 -24 14 -104 19 -178 5 -74 14 -178 20 -230 8 -69 8 -128 0 -215 -24
-266 -26 -295 -19 -295 4 0 17 27 29 60 12 33 23 60 25 60 1 0 3 -32 3 -72 2
-86 -30 -171 -60 -162 -14 4 -18 0 -18 -18 0 -13 -3 -34 -7 -47 -5 -19 -3 -23
9 -19 30 12 18 -123 -15 -169 -5 -7 -11 -36 -13 -65 l-5 -54 85 -47 c46 -26
89 -47 94 -47 20 0 30 -67 13 -86 -10 -10 -59 -195 -96 -364 -23 -109 -47
-189 -56 -193 -2 -1 -21 8 -42 20 -31 19 -37 28 -37 55 -3 217 -7 277 -19 292
-10 12 -10 16 -1 16 10 0 10 3 0 15 -10 12 -10 15 2 15 8 0 19 -5 26 -12 6 -6
14 -9 18 -6 3 3 -8 14 -25 24 -29 17 -41 34 -23 34 4 0 23 -10 42 -21 24 -15
30 -16 21 -5 -7 9 -29 26 -49 38 -20 12 -31 23 -24 26 6 2 22 -4 36 -14 14 -9
26 -12 26 -7 0 6 -16 18 -35 29 -42 22 -43 26 -51 118 -5 60 -3 74 10 79 10 4
13 15 10 32 -3 20 -1 25 8 19 8 -5 7 -1 -2 11 -14 17 -13 18 5 11 51 -21 52
-20 57 32 3 27 2 69 -1 93 -4 29 2 84 17 159 16 79 22 132 18 168 -4 29 -2 61
4 72 6 11 6 21 1 24 -5 4 -11 0 -14 -6 -2 -7 -8 4 -12 25 -4 21 -5 41 -1 44 3
3 0 13 -7 21 -22 27 -21 376 2 632 21 227 30 295 38 286 3 -3 0 -34 -6 -70z
m4279 -1266 c52 -11 126 -32 166 -46 41 -14 79 -22 86 -18 10 6 9 3 -1 -9 -12
-15 -11 -17 12 -17 13 0 41 -7 61 -15 20 -9 49 -14 64 -13 18 2 27 -2 30 -14
2 -11 -3 -18 -12 -18 -9 0 -16 -6 -16 -12 0 -16 -44 -37 -68 -33 -61 12 -72
17 -69 26 1 7 -20 21 -48 32 -27 12 -52 24 -55 28 -5 7 -18 11 -89 25 -20 4
-22 7 -10 15 9 6 0 7 -27 3 -26 -4 -44 -2 -48 5 -5 7 2 11 18 11 14 0 28 5 31
10 8 13 -1 12 -46 0 -24 -7 -45 -7 -60 -1 -18 7 -19 10 -6 10 9 1 17 6 17 12
0 8 -14 10 -42 6 -24 -3 -35 -3 -25 0 9 2 17 11 17 19 0 18 8 18 120 -6z m234
-257 c8 -8 -43 -55 -54 -48 -3 2 -21 -9 -39 -25 -35 -32 -57 -39 -47 -15 4 13
2 14 -14 5 -11 -6 -26 -8 -33 -3 -20 12 -51 11 -64 -3 -18 -18 -16 -24 7 -24
11 0 20 -4 20 -10 0 -5 -9 -10 -20 -10 -11 0 -20 4 -20 9 0 5 -20 9 -45 9 -25
1 -45 -3 -45 -8 0 -6 -13 -10 -30 -10 -30 0 -61 34 -43 50 8 7 152 41 189 45
11 1 26 5 33 9 11 7 143 32 182 35 9 1 19 -2 23 -6z m-2227 -236 c7 0 10 -4 7
-8 -2 -4 22 -16 53 -26 l58 -20 21 -174 c11 -96 19 -177 18 -180 -8 -15 -164
19 -225 49 -75 37 -102 61 -90 81 7 11 11 9 21 -9 l12 -22 19 31 c10 17 19 40
19 51 0 11 6 20 14 20 17 0 28 44 26 97 -1 21 -2 58 -1 82 1 37 3 42 19 36 9
-4 22 -8 29 -8z m2132 -173 c58 -12 32 -26 -69 -38 -37 -4 -54 -8 -83 -21 -9
-4 -28 -4 -41 -1 -14 3 -28 2 -31 -4 -4 -6 -31 -8 -63 -6 -31 2 -63 5 -70 5
-7 1 -10 6 -6 13 4 7 3 8 -4 4 -17 -10 -43 7 -33 22 5 8 18 10 39 6 17 -4 29
-10 26 -15 -3 -5 -1 -9 5 -9 5 0 11 4 13 9 2 5 59 15 128 21 69 6 127 13 129
16 6 6 23 5 60 -2z m-549 -199 c0 -3 -12 -10 -26 -16 -15 -5 -24 -12 -20 -16
3 -3 1 -12 -6 -20 -9 -11 -7 -12 8 -7 10 3 4 -4 -14 -16 -26 -18 -31 -27 -26
-48 3 -15 7 -43 9 -63 1 -20 5 -41 7 -45 3 -5 4 -20 3 -34 -1 -14 -2 -44 -3
-67 -2 -37 -5 -42 -31 -48 -21 -4 -28 -11 -24 -22 4 -11 0 -14 -17 -11 -29 4
-36 21 -15 41 17 17 20 37 5 37 -5 0 -7 7 -4 15 4 8 1 15 -5 15 -6 0 -8 7 -5
15 4 8 1 15 -5 15 -6 0 -11 -9 -11 -21 0 -11 -4 -18 -9 -15 -5 3 -9 22 -9 41
0 19 4 35 9 35 5 0 9 7 9 15 0 8 9 15 20 15 16 0 19 -7 18 -45 -1 -46 6 -64
19 -51 9 9 4 89 -7 100 -5 5 -6 14 -3 21 6 18 -14 55 -31 55 -13 0 -27 -28
-30 -58 -2 -18 -26 -31 -44 -24 -10 3 -13 1 -8 -6 3 -6 -2 -15 -11 -21 -15 -9
-14 -10 11 -11 23 0 27 -3 20 -17 -4 -10 -9 -38 -12 -62 -4 -40 -3 -43 17 -36
26 8 27 -2 4 -28 -10 -11 -13 -17 -6 -13 7 4 21 -2 33 -14 21 -21 26 -40 10
-40 -5 0 -10 -9 -10 -20 0 -18 2 -19 23 -8 12 7 29 11 38 10 9 -2 19 4 22 13
10 26 27 17 27 -15 0 -17 -3 -29 -7 -28 -15 4 -53 -13 -53 -23 0 -6 -4 -7 -10
-4 -5 3 -10 -4 -10 -16 0 -15 4 -19 13 -13 6 5 35 7 62 4 45 -5 47 -7 23 -14
-16 -5 -28 -12 -28 -17 0 -5 -8 -9 -18 -9 -10 0 -22 -3 -26 -7 -7 -8 -12 -9
-53 -11 -21 -2 -23 -7 -23 -52 0 -27 4 -50 8 -50 15 0 43 36 35 44 -4 4 5 6
21 4 18 -2 31 2 34 11 3 10 -2 12 -22 7 -22 -5 -26 -3 -25 16 0 22 1 22 9 3 5
-11 9 -15 9 -9 1 7 10 14 20 17 26 6 39 -39 18 -61 -11 -11 -13 -22 -6 -45 10
-34 4 -67 -13 -67 -13 0 -47 -41 -48 -58 0 -7 6 -15 14 -18 20 -8 27 -42 10
-48 -8 -3 -14 1 -14 10 0 8 -4 12 -10 9 -11 -7 -11 -72 -1 -120 6 -27 10 -30
41 -28 l35 2 -27 -11 c-23 -10 -28 -18 -28 -45 0 -19 -7 -45 -16 -59 -13 -19
-14 -30 -6 -48 10 -23 58 -41 67 -25 6 9 65 -19 65 -32 0 -5 12 -9 27 -9 21 0
24 -3 15 -12 -7 -7 -12 -25 -12 -40 0 -18 -5 -28 -15 -28 -8 0 -23 -9 -33 -21
-16 -17 -18 -27 -11 -57 12 -53 12 -54 -26 -46 -25 4 -43 1 -60 -10 -32 -21
-34 -21 -45 10 -9 23 -11 24 -26 10 -8 -9 -24 -16 -35 -16 -27 0 -62 38 -56
61 3 12 1 17 -5 13 -6 -4 -9 -1 -7 5 3 7 8 12 12 11 13 -1 33 23 53 65 10 22
25 45 34 52 13 10 12 12 -8 10 -12 -1 -24 -9 -27 -18 -3 -9 -14 -24 -25 -34
-19 -17 -20 -17 -20 3 0 11 -3 28 -7 38 -5 13 -3 16 9 11 9 -3 19 0 22 8 4 10
-5 13 -37 10 -49 -5 -107 18 -114 45 -3 12 -11 16 -24 13 -29 -8 -24 26 6 37
59 23 4 24 -112 4 l-33 -6 0 -189 1 -189 84 6 c57 5 85 3 85 -4 0 -12 -7 -14
-338 -53 -145 -17 -266 -28 -269 -26 -13 14 -22 164 -23 372 0 307 -27 791
-54 959 0 6 24 14 54 18 269 42 557 112 835 202 196 64 225 71 225 61z m333
-28 c15 -7 27 -15 27 -19 0 -5 8 -8 18 -8 10 0 23 -5 30 -12 8 -8 15 -8 25 0
10 9 19 7 37 -5 18 -13 42 -17 90 -15 44 1 73 -3 86 -12 25 -19 9 -34 -18 -17
-18 11 -20 11 -15 -3 4 -11 0 -19 -11 -22 -9 -3 -26 -9 -37 -14 -81 -33 -83
-33 -106 -11 -13 12 -29 21 -36 21 -8 0 -11 5 -8 10 3 6 -1 10 -10 10 -9 0
-31 11 -48 24 -18 13 -43 27 -56 31 -18 6 -20 9 -10 16 8 5 9 9 4 9 -6 0 -16
9 -23 21 -12 19 -12 20 10 14 13 -4 35 -12 51 -18z m-3896 -104 c21 -8 33 -47
33 -108 0 -44 -3 -53 -15 -49 -8 4 -17 -1 -21 -10 -3 -9 -10 -14 -14 -11 -4 3
-10 -5 -13 -16 -4 -14 -11 -20 -21 -16 -8 3 -25 -3 -39 -13 -13 -10 -66 -30
-119 -43 -77 -20 -98 -22 -112 -12 -15 12 -101 31 -118 27 -5 -1 -8 4 -8 10 0
9 -4 8 -10 -2 -8 -13 -10 -12 -10 3 0 9 -4 17 -10 17 -20 0 -9 21 15 30 14 5
25 14 25 20 0 15 40 12 46 -4 3 -8 20 -17 38 -20 41 -8 161 16 184 37 9 8 26
17 37 21 11 3 31 15 45 26 l25 20 -27 0 c-30 0 -79 19 -90 35 -5 6 -11 5 -17
-4 -8 -13 -31 -16 -144 -21 -5 0 -5 -4 -2 -10 3 -5 1 -10 -4 -10 -6 0 -11 5
-11 11 0 5 -5 7 -10 4 -8 -5 -8 -11 0 -20 8 -9 5 -14 -12 -19 -44 -11 -58 -7
-58 17 0 31 18 47 55 47 17 0 35 4 41 9 5 4 47 18 94 31 47 12 94 26 105 31
19 8 113 3 142 -8z m3659 -68 c16 -8 36 -15 45 -15 9 0 19 -3 22 -6 4 -4 37
-8 74 -9 76 -3 106 -12 99 -30 -3 -8 4 -10 22 -7 20 3 24 1 17 -7 -22 -23
-151 -34 -200 -16 -16 5 -17 5 -5 -4 12 -9 10 -11 -13 -11 -42 0 -76 41 -44
53 6 3 -6 3 -28 0 -32 -3 -37 -2 -22 7 21 14 22 30 2 30 -16 0 -20 12 -8 23 8
9 6 9 39 -8z"/>
<path d="M11068 2123 c-2 -71 0 -132 5 -138 14 -18 7 -24 -37 -30 -34 -5 -46
-12 -50 -28 -9 -33 -7 -57 4 -57 6 0 10 14 10 31 0 20 4 29 13 26 15 -5 14
-90 -2 -95 -6 -2 -11 -12 -11 -21 0 -16 5 -16 49 -7 43 8 50 13 55 39 3 16 3
39 0 51 -3 14 1 27 10 35 18 15 18 15 16 -56 -1 -33 3 -53 10 -53 21 0 21 29
-5 206 -31 219 -32 224 -50 224 -11 0 -14 -25 -17 -127z"/>
<path d="M11115 1785 c-22 -8 -33 -14 -24 -14 19 -1 29 -29 29 -87 0 -37 -3
-41 -35 -54 -22 -8 -38 -23 -41 -36 -4 -15 -16 -24 -40 -28 -25 -5 -34 -12
-34 -26 0 -11 7 -20 15 -20 8 0 15 6 15 14 0 7 9 16 20 19 23 6 28 -18 6 -26
-11 -4 -15 -29 -18 -91 l-3 -86 31 0 c17 0 33 3 37 6 3 3 29 8 58 10 73 6 77
11 68 96 -4 40 -13 133 -20 206 -7 72 -15 132 -18 131 -3 -1 -24 -7 -46 -14z"/>
<path d="M0 5596 l0 -1563 42 -13 c24 -7 48 -14 53 -15 6 -2 -14 -4 -42 -4
l-53 -1 0 -151 0 -150 79 7 79 6 1 -118 c1 -205 6 -308 19 -336 13 -32 19 -33
46 -13 25 19 83 19 116 0 14 -8 48 -14 77 -15 l51 0 -18 38 c-16 33 -65 291
-56 299 2 2 26 -2 54 -8 59 -14 54 0 78 -207 14 -123 21 -152 33 -152 9 0 -13
-15 -49 -33 -67 -33 -88 -57 -50 -57 12 0 19 4 16 9 -3 5 13 11 37 14 23 2 48
6 56 8 7 2 16 -2 18 -8 3 -7 -1 -13 -9 -13 -7 0 -31 -12 -52 -26 -26 -18 -47
-25 -67 -22 -26 4 -28 3 -14 -12 8 -9 12 -19 9 -23 -4 -4 9 -2 27 4 64 20 79
22 79 8 0 -7 7 -21 17 -31 21 -24 14 -30 -25 -19 -43 13 -51 -5 -13 -27 34
-19 38 -33 16 -56 -8 -8 -15 -16 -15 -19 0 -2 26 -10 58 -17 124 -27 165 -39
176 -50 7 -7 15 -1 26 22 12 26 22 34 48 36 29 3 32 6 27 32 -3 16 -1 32 5 35
5 3 12 -11 16 -33 6 -39 8 -41 71 -61 72 -24 97 -21 38 3 -20 9 -34 20 -30 26
8 13 -19 40 -40 40 -12 0 -9 8 13 30 31 30 56 37 81 21 9 -6 10 -11 2 -15 -11
-7 -7 -14 32 -57 9 -10 18 -25 20 -31 1 -7 8 -19 15 -26 10 -12 15 -12 28 -1
14 12 14 14 -1 25 -9 7 -15 18 -14 26 1 7 -1 21 -6 31 -4 10 -5 20 -2 23 3 4
-3 15 -13 27 -11 11 -18 23 -15 25 2 3 33 5 67 5 47 0 63 -4 64 -14 0 -8 4
-22 9 -32 4 -10 2 -24 -6 -34 -10 -12 -10 -15 -1 -9 7 4 14 1 18 -7 3 -9 13
-13 25 -10 16 5 18 8 7 14 -10 7 -10 9 2 9 13 1 13 2 0 13 -8 7 -16 21 -16 32
-1 11 -4 34 -8 51 -5 26 -2 33 18 42 23 10 24 8 52 -76 16 -48 30 -96 31 -107
1 -11 10 -76 21 -145 11 -69 23 -155 27 -192 4 -38 11 -68 16 -68 5 0 9 4 9 9
0 5 7 11 17 13 11 2 16 14 17 36 1 27 -3 32 -21 32 -24 0 -31 14 -13 25 5 3
10 1 10 -4 0 -6 4 -11 9 -11 4 0 7 12 5 26 -2 26 -14 47 -14 26 0 -7 -7 -12
-15 -12 -25 0 -17 20 12 31 21 8 24 12 14 19 -8 4 -11 15 -8 23 9 24 -15 100
-37 119 -19 15 -19 17 -4 23 22 9 67 -22 141 -96 31 -33 75 -71 97 -85 22 -15
40 -28 40 -29 0 -1 -11 -23 -26 -48 -37 -67 -63 -167 -75 -294 -11 -111 -11
-113 12 -142 13 -16 34 -35 47 -42 25 -14 28 -36 7 -63 -23 -30 -18 -42 5 -13
11 14 20 30 20 36 0 16 14 14 72 -14 29 -14 91 -32 138 -41 47 -8 108 -20 135
-25 131 -26 242 -39 368 -45 l138 -7 -21 -22 c-15 -16 -17 -24 -8 -33 16 -16
43 -15 58 3 7 8 23 15 36 15 15 0 24 6 24 16 0 13 13 14 89 9 97 -6 100 -4
101 65 0 20 2 22 10 10 5 -8 10 -11 10 -5 0 5 5 4 12 -3 17 -17 43 60 28 87
-5 11 -7 45 -4 78 6 57 5 59 -28 83 -18 14 -57 41 -87 60 -29 18 -73 53 -97
77 -24 23 -60 50 -80 58 -21 8 -34 18 -31 22 4 3 13 1 20 -6 20 -16 46 -4 40
20 -6 23 0 24 32 3 14 -9 25 -24 25 -33 0 -13 2 -14 9 -2 8 13 14 13 38 2 25
-12 26 -14 10 -25 -21 -16 -22 -26 -1 -26 8 0 12 5 8 11 -4 8 8 10 40 8 44 -4
46 -3 46 22 0 23 -4 26 -37 27 -21 1 -42 7 -48 15 -5 7 -28 17 -50 22 -33 8
-40 14 -40 34 0 19 -10 30 -40 45 -22 12 -43 25 -46 30 -4 4 -10 3 -13 -3 -10
-15 26 -72 41 -67 10 4 10 1 0 -16 -9 -16 -9 -22 1 -25 6 -3 12 -12 12 -21 0
-14 -2 -14 -9 -3 -5 8 -15 11 -23 9 -19 -8 -78 18 -78 34 0 7 8 27 18 43 10
17 23 49 30 72 8 27 32 61 68 98 l56 57 47 -8 c93 -17 156 -6 325 56 33 12 78
31 100 43 l41 21 -45 8 c-59 10 -149 38 -155 48 -3 4 7 29 21 54 14 25 22 46
17 46 -5 0 -20 -23 -33 -50 -27 -58 -34 -60 -145 -34 -128 30 -153 20 -180
-72 -17 -60 -24 -63 -87 -35 -55 25 -221 131 -232 149 -8 13 31 293 42 304 17
17 95 21 164 10 34 -6 97 -14 138 -17 l75 -7 82 149 c45 81 96 178 114 215 17
38 34 68 38 68 4 0 13 11 19 25 15 32 29 31 98 -2 55 -28 56 -28 70 -8 14 19
16 19 25 3 6 -11 22 -18 42 -18 18 0 49 -9 69 -20 50 -27 185 -124 231 -166
38 -35 49 -58 23 -48 -10 4 -22 -8 -35 -35 -25 -49 -26 -51 -3 -51 23 -1 58
-31 66 -58 6 -18 3 -22 -13 -22 -11 0 -23 -5 -27 -12 -5 -8 0 -9 14 -6 26 7
27 1 6 -41 -9 -18 -14 -34 -12 -36 2 -2 17 3 34 11 27 13 33 24 43 71 16 80
14 93 -10 93 -13 0 -18 -4 -13 -12 5 -10 4 -10 -6 -1 -16 14 -13 18 17 27 18
6 28 -1 53 -35 37 -52 41 -89 5 -44 l-25 30 0 -25 c0 -44 -37 -174 -69 -243
-17 -37 -31 -72 -31 -76 0 -5 -20 -27 -44 -48 -31 -27 -59 -42 -97 -50 -30 -6
-76 -21 -104 -33 -46 -20 -49 -23 -31 -35 26 -19 13 -45 -22 -45 -16 0 -37 -9
-47 -20 -10 -11 -24 -20 -32 -20 -17 0 -53 -36 -53 -54 0 -10 28 2 86 34 92
52 144 62 144 29 0 -11 5 -16 14 -13 20 8 58 -56 44 -74 -7 -7 -20 -11 -30 -8
-14 3 -22 -3 -28 -20 -11 -28 -35 -33 -27 -5 2 10 0 25 -5 32 -7 11 -8 9 -6
-5 4 -27 -44 -38 -111 -26 -30 6 -56 10 -58 10 -2 0 -3 -6 -3 -13 0 -23 63
-73 115 -92 62 -23 145 -76 145 -92 0 -7 9 -13 20 -13 11 0 20 -7 20 -15 0 -8
8 -15 18 -15 34 0 93 21 99 36 10 26 32 15 113 -57 50 -44 82 -65 84 -57 13
40 16 37 11 -11 -4 -30 -9 -68 -12 -85 l-6 -31 34 26 c19 14 52 51 73 82 22
31 42 55 44 52 3 -3 14 -46 24 -97 13 -66 20 -154 24 -300 5 -185 4 -210 -12
-230 -10 -14 -14 -17 -11 -6 4 12 2 15 -8 12 -10 -4 -12 -18 -8 -57 3 -29 7
-53 8 -55 2 -2 54 19 116 47 63 28 121 51 129 51 18 0 187 -42 269 -66 66 -20
159 -15 280 17 49 12 98 19 118 16 19 -3 138 -34 265 -67 l231 -62 41 23 c46
26 105 64 123 79 17 14 33 13 33 -2 0 -7 -11 -31 -25 -53 -36 -59 -33 -65 26
-58 36 4 59 14 76 31 19 19 27 22 33 12 5 -9 8 -5 8 11 -1 13 2 40 5 59 3 19
9 68 12 108 4 40 12 75 16 78 5 3 10 -43 10 -103 1 -59 4 -98 6 -85 7 35 20
26 15 -10 -3 -18 -1 -30 3 -26 4 4 9 18 10 30 2 13 8 61 14 108 6 46 11 90 11
97 0 7 4 13 9 13 6 0 11 -23 13 -51 l3 -51 29 39 c16 21 44 51 62 66 l33 28
59 -16 c68 -17 96 -19 87 -6 -3 5 -31 15 -63 22 -31 7 -61 16 -66 21 -6 4 -19
8 -31 8 -12 0 -26 5 -32 11 -8 8 -22 4 -49 -14 -55 -35 -332 -194 -444 -256
-130 -71 -142 -73 -191 -25 -42 41 -50 59 -21 50 11 -4 49 10 96 36 77 42 78
43 52 53 -35 15 -23 26 15 15 31 -9 89 5 89 21 0 5 8 9 18 10 37 1 -66 31
-115 32 -32 1 -53 7 -53 13 0 7 -17 14 -37 17 -21 3 -95 19 -165 35 -69 17
-146 33 -170 37 -35 5 -57 18 -99 57 -62 56 -130 93 -192 103 -23 4 -52 13
-64 21 -12 7 -55 19 -95 25 -40 7 -76 15 -80 18 -7 6 92 76 150 106 l34 16 -6
137 c-19 452 -19 481 0 489 17 6 61 -14 174 -78 25 -14 97 -53 160 -86 248
-132 295 -161 298 -181 2 -15 -15 -30 -78 -67 -44 -26 -80 -49 -78 -50 4 -4
169 32 175 39 3 3 0 261 -6 573 -6 312 -16 957 -21 1433 -10 902 -28 1843 -36
1895 -3 23 -18 40 -60 70 -30 22 -94 68 -140 102 -46 34 -93 67 -104 73 -16 9
-20 21 -20 69 0 78 -9 121 -26 121 -8 0 -14 -4 -14 -9 0 -4 -12 -6 -26 -3 -14
2 -58 0 -97 -7 -195 -30 -339 -44 -345 -34 -4 5 -69 51 -145 101 -131 87 -177
106 -193 81 -3 -6 -16 -8 -28 -5 -17 4 -875 -115 -1846 -257 l-155 -23 2 -184
c1 -102 7 -279 12 -395 6 -115 13 -320 17 -455 6 -207 5 -248 -8 -260 -8 -8
-25 -34 -38 -58 -22 -38 -23 -46 -11 -75 21 -53 24 -66 16 -84 -14 -32 -9
-101 9 -118 19 -19 19 -21 6 -46 -6 -11 -7 -19 -3 -18 19 3 33 -2 33 -12 0 -6
-7 -8 -16 -5 -13 5 -15 2 -11 -14 4 -16 0 -20 -21 -20 -26 -1 -26 -1 -8 -15
11 -8 30 -15 43 -15 37 0 26 -19 -14 -25 -63 -11 -71 -15 -50 -26 9 -6 15 -15
12 -20 -4 -5 -10 -7 -15 -4 -16 10 -22 -15 -8 -32 12 -15 10 -16 -17 -10 -16
4 -41 10 -54 13 -34 10 -23 -15 19 -43 18 -13 29 -23 24 -24 -5 0 0 -4 11 -9
19 -9 19 -9 -2 -16 -13 -3 -23 -12 -23 -20 0 -7 -30 -33 -67 -57 -58 -37 -106
-86 -176 -178 -9 -13 -37 -18 -114 -23 -99 -7 -102 -6 -114 16 -19 37 -146
205 -229 303 -98 117 -131 160 -162 215 -14 25 -39 60 -56 79 -16 19 -46 67
-65 105 -35 69 -36 75 -42 221 -3 83 -15 326 -26 540 -17 333 -23 392 -37 403
-11 9 -80 13 -246 14 -127 1 -242 3 -256 4 -14 1 -50 2 -82 3 l-56 1 0 364 c0
200 -3 373 -6 384 -4 11 -16 22 -26 25 -20 5 -20 -9 -20 -1557z m4214 1097 c3
-54 10 -159 15 -233 5 -74 5 -136 1 -138 -38 -15 -42 -28 -44 -141 -1 -86 2
-114 13 -120 8 -5 17 -36 21 -72 5 -45 8 -53 9 -26 1 25 5 36 12 31 6 -3 9
-19 7 -35 -3 -16 -1 -29 2 -29 4 0 10 -28 13 -62 4 -49 2 -65 -9 -71 -19 -11
-18 -57 1 -57 11 0 15 -11 15 -41 0 -33 -3 -40 -16 -35 -9 3 -34 7 -57 7 -23
1 -34 3 -24 6 9 2 17 9 17 14 0 12 -47 12 -55 -1 -7 -12 -64 -10 -71 2 -3 4
-13 8 -24 8 -10 0 -20 6 -23 14 -3 8 -15 12 -29 10 -31 -6 -55 10 -41 28 6 8
7 25 1 47 -8 31 -11 33 -40 27 -18 -3 -33 -8 -36 -10 -5 -6 -10 -36 -11 -66
-1 -15 -5 -20 -10 -15 -5 6 -14 89 -20 185 -6 96 -16 234 -21 305 -5 72 -14
204 -20 295 -6 91 -13 177 -16 191 l-5 26 198 25 c109 14 208 26 220 27 20 1
21 -5 27 -96z m-1384 -65 c1 -2 7 -142 15 -312 10 -232 17 -311 27 -318 9 -6
7 -8 -8 -4 -27 8 -299 26 -396 26 -81 0 -188 -18 -170 -29 16 -10 21 -79 7
-91 -11 -9 -12 -3 -8 28 3 23 1 42 -5 46 -7 4 -14 -12 -18 -44 -6 -47 -11 -54
-70 -100 -34 -28 -64 -54 -66 -58 -2 -4 -25 -27 -51 -52 -61 -58 -67 -50 -67
100 0 63 -4 187 -10 275 -5 88 -10 218 -12 290 l-2 130 24 8 c30 10 809 110
810 105z m-242 -640 c17 -7 32 -15 32 -18 0 -16 -44 -40 -74 -40 -19 0 -36 -5
-38 -12 -3 -8 -12 -9 -36 0 -23 8 -32 8 -32 0 0 -10 -94 -7 -105 4 -3 2 -8 19
-11 36 -5 26 -3 31 12 31 11 1 42 5 69 10 57 10 134 6 183 -11z m322 -13 c6
-4 17 -2 24 4 9 8 21 8 37 2 l24 -10 -25 -1 c-24 -1 -24 -2 7 -17 18 -9 33
-25 35 -37 2 -12 9 -20 16 -18 16 3 15 -23 -2 -37 -9 -7 -29 -9 -57 -5 -32 5
-38 9 -24 14 18 6 18 7 0 14 -11 4 -21 2 -26 -5 -10 -18 -86 -3 -136 27 -39
23 -63 50 -63 72 0 10 173 8 190 -3z m-70 -150 c6 -8 9 -18 6 -23 -3 -5 13
-30 34 -56 22 -27 40 -54 40 -62 0 -7 11 -21 25 -30 28 -18 73 -93 105 -173
21 -53 50 -245 50 -330 0 -53 -12 -94 -52 -178 -27 -58 -48 -80 -48 -52 0 8
-5 8 -15 -1 -12 -10 -15 -10 -15 3 0 9 4 18 8 21 14 8 5 84 -12 101 -19 19
-21 61 -3 72 14 9 37 48 37 63 0 5 -29 39 -65 75 -61 61 -65 63 -65 37 0 -15
7 -36 15 -46 16 -21 19 -53 9 -80 -5 -14 -9 -14 -37 1 -18 9 -42 19 -55 22
-23 6 -23 7 -5 29 10 13 27 24 38 26 11 2 20 11 20 20 0 14 -13 18 -75 23 -41
3 -92 5 -114 5 -37 0 -38 1 -32 29 3 16 4 29 3 29 -2 0 -22 -18 -46 -40 -23
-22 -55 -43 -69 -46 -15 -3 -40 -11 -57 -17 -36 -14 -51 -12 -78 14 -11 10
-24 19 -29 19 -12 0 -10 108 3 132 8 15 13 17 19 8 4 -6 23 -13 41 -15 19 -1
60 -8 93 -14 65 -14 92 -10 123 16 12 10 31 26 42 35 12 10 21 29 21 43 0 19
5 25 23 25 32 0 50 14 45 36 -5 28 -48 31 -55 5 -6 -22 -19 -28 -25 -11 -11
35 -184 53 -226 24 -32 -22 -38 -11 -13 24 12 17 21 36 21 44 0 8 14 24 31 37
16 12 35 33 41 47 6 13 18 24 27 24 23 0 151 39 184 56 16 8 33 12 38 8 5 -3
9 4 9 15 0 24 22 28 40 6z m1068 -419 c20 -19 64 -56 97 -83 45 -36 286 -240
417 -352 4 -4 10 -195 13 -426 3 -231 8 -598 13 -815 4 -217 4 -399 1 -403 -4
-5 -47 29 -97 75 -83 76 -90 86 -91 122 -1 22 -5 53 -11 70 -5 17 -26 85 -46
151 -52 171 -157 409 -251 566 l-81 137 -5 496 c-2 273 -3 496 0 496 2 0 21
-15 41 -34z m-1056 -290 c43 -9 46 -12 58 -58 19 -74 9 -95 -46 -104 -25 -3
-55 -2 -67 3 -12 5 -55 9 -96 7 -41 -1 -82 2 -90 7 -9 5 -28 13 -43 19 -31 10
-37 40 -14 59 8 7 18 26 21 42 5 24 12 29 35 29 22 0 29 -5 32 -25 6 -28 1
-35 -23 -35 -10 0 -20 -4 -23 -9 -4 -5 42 -10 109 -10 106 -1 115 0 125 19 17
31 -5 53 -45 46 -17 -3 -51 0 -75 8 l-45 15 71 -1 c40 -1 92 -6 116 -12z
m-453 -423 c24 -31 44 -46 74 -54 74 -20 192 -60 202 -70 15 -15 55 -10 85 11
38 27 90 38 90 18 0 -8 -5 -19 -11 -25 -9 -9 -3 -14 22 -21 37 -9 69 -5 69 9
0 5 4 9 9 9 5 0 5 -16 0 -37 -12 -55 -11 -61 10 -36 11 13 17 32 14 42 -5 19
-1 22 60 35 20 5 27 11 23 21 -8 21 13 19 80 -6 56 -21 56 -21 50 -57 -5 -31
-27 -87 -69 -172 -13 -26 -32 -37 -159 -95 -43 -20 -78 -40 -78 -45 0 -6 13
-4 30 5 16 8 34 15 41 15 6 0 38 14 71 30 32 17 60 30 63 30 6 0 -21 -62 -80
-185 -30 -60 -63 -136 -75 -167 -12 -32 -24 -58 -28 -58 -4 1 -23 21 -42 45
-19 25 -38 45 -41 45 -3 0 -18 -42 -33 -92 -15 -51 -42 -136 -59 -188 -19 -60
-32 -124 -35 -174 l-5 -78 -54 4 c-42 4 -56 1 -64 -11 -8 -13 -9 -13 -5 4 20
72 24 142 19 310 l-6 189 -38 71 c-69 130 -149 420 -164 596 -3 41 -8 90 -11
109 -6 38 -5 37 45 -27z m-1996 -346 c4 3 8 -63 9 -148 0 -85 3 -139 5 -121 6
44 23 41 25 -5 4 -68 -2 -106 -17 -123 -20 -22 -19 -57 3 -63 12 -3 11 -5 -6
-6 -14 -1 -22 -6 -19 -13 2 -8 15 -12 30 -10 17 2 27 -1 28 -10 1 -7 2 -22 3
-33 1 -11 3 -37 4 -57 3 -55 18 -46 27 15 l8 52 10 -65 c9 -58 12 -188 5 -195
-2 -2 -15 -1 -29 2 -18 3 -29 15 -38 39 -8 23 -19 34 -32 34 -20 0 -23 10 -13
48 4 12 14 22 24 22 21 0 29 16 22 42 -3 13 -11 16 -26 12 -18 -4 -25 2 -39
34 -10 22 -32 59 -50 83 -49 65 -74 110 -80 147 -7 36 6 43 23 12 6 -11 17
-20 24 -20 7 0 18 -11 24 -25 22 -48 34 -29 28 43 -14 159 -18 257 -11 299 l7
45 22 -21 c12 -12 26 -18 29 -14z m4706 -959 c-1 -18 2 -85 5 -148 4 -65 3
-135 -2 -158 -6 -24 -6 -42 -1 -42 5 0 9 -13 9 -30 0 -28 -2 -30 -40 -30 -22
0 -40 -4 -40 -10 0 -5 11 -10 25 -10 23 0 25 -4 25 -40 l0 -40 -48 0 c-26 0
-53 -5 -60 -12 -9 -9 -13 -4 -18 20 -6 29 -10 32 -45 32 -32 0 -39 3 -39 20 0
13 7 20 20 20 17 0 20 7 20 40 0 33 -3 40 -19 40 -11 0 -21 -4 -23 -10 -4 -14
-151 -15 -156 -1 -2 6 -17 11 -33 11 -28 0 -43 19 -16 21 6 1 1 4 -13 8 -28 8
-60 3 -60 -10 0 -13 14 -11 28 3 9 9 12 9 12 0 0 -7 -5 -12 -11 -12 -6 0 -8
-10 -5 -22 3 -13 3 -17 0 -10 -5 10 -9 10 -20 1 -14 -11 -19 -2 -15 24 2 9
-10 4 -50 -24 -14 -10 -29 -16 -33 -12 -6 7 117 93 133 93 6 0 14 6 18 13 4 8
28 27 53 43 25 16 47 31 50 34 3 3 55 39 115 80 61 41 135 91 165 112 30 20
59 38 63 38 4 0 7 -15 6 -32z"/>
<path d="M3926 6393 c-3 -10 -9 -25 -12 -33 -4 -12 -3 -12 4 -2 30 43 79 -283
52 -353 -5 -14 -16 -25 -24 -25 -15 0 -36 50 -35 85 0 28 -27 195 -33 201 -3
2 -8 -33 -10 -78 -5 -74 -2 -91 22 -150 27 -67 26 -88 -8 -88 -10 0 -12 -14
-10 -52 3 -48 5 -53 28 -56 22 -2 23 -1 9 10 -25 20 -29 65 -8 84 25 22 36 12
44 -41 5 -37 10 -45 23 -41 9 3 29 8 45 12 28 6 35 22 17 40 -13 13 -1 54 17
54 12 0 14 -7 10 -28 -3 -15 -1 -34 4 -42 7 -11 9 10 5 67 -4 51 -3 84 4 88 5
3 10 21 10 39 0 17 4 36 9 42 5 5 1 26 -10 49 -10 22 -19 36 -19 30 -1 -5 -5
-43 -9 -83 -14 -118 -27 -108 -35 25 -3 65 -9 142 -13 172 -5 49 -7 52 -18 32
l-12 -23 -16 26 c-17 25 -17 26 4 23 12 -1 24 4 27 12 3 10 0 12 -11 8 -9 -3
-19 -2 -22 3 -9 15 -22 12 -29 -7z"/>
<path d="M2614 6525 c-33 -33 -61 -98 -68 -160 -6 -49 -6 -50 9 -20 8 17 14
40 15 52 0 12 11 35 25 51 22 26 31 30 66 27 22 -1 44 -7 49 -11 14 -16 51
-135 54 -176 6 -69 16 -54 16 25 0 172 -91 287 -166 212z"/>
<path d="M2855 5563 c-11 -2 -26 -6 -33 -8 -7 -3 -15 -4 -19 -4 -30 2 -12
-111 19 -119 10 -2 18 -10 18 -17 0 -21 47 -45 90 -45 37 0 55 13 28 22 -6 2
-12 12 -14 22 -2 15 3 17 27 14 16 -3 29 0 29 5 0 5 7 3 17 -4 15 -13 16 -11
9 16 -9 36 -26 57 -26 32 0 -14 -7 -15 -42 -11 -24 4 -45 9 -48 11 -3 3 9 4
27 1 44 -6 31 10 -14 18 -36 7 -36 7 -13 16 14 5 42 7 63 5 46 -6 49 11 6 36
-29 16 -79 20 -124 10z"/>
<path d="M2534 4293 c3 -10 12 -76 21 -148 19 -156 19 -156 59 -223 l31 -52
37 111 37 111 -45 56 c-50 61 -48 82 7 63 46 -16 76 -14 81 7 4 13 -2 17 -21
18 -60 2 -166 33 -182 53 -21 26 -32 27 -25 4z"/>
<path d="M4470 7095 l-75 -10 -3 -112 -3 -111 78 2 78 1 3 63 c2 34 2 88 0
120 l-3 57 -75 -10z"/>
<path d="M8577 6942 c-19 -21 -69 -156 -66 -181 1 -9 1 -29 0 -45 -1 -22 -4
-27 -12 -19 -7 7 -11 50 -10 114 1 102 1 103 -19 84 -11 -12 -24 -48 -32 -87
l-12 -66 -58 -18 c-49 -14 -58 -21 -58 -41 0 -28 18 -29 83 -7 40 13 46 20 50
47 2 18 5 -122 5 -310 l2 -343 23 0 c22 0 24 5 35 118 20 202 23 286 13 321
-6 19 -7 31 -1 25 21 -21 65 -295 74 -468 1 -23 32 -45 44 -31 5 6 5 116 0
245 -4 129 -6 241 -3 248 3 8 -10 12 -48 12 -29 0 -59 6 -66 13 -10 10 -15 9
-25 -5 -7 -10 -19 -18 -27 -18 -8 0 -4 7 9 16 17 12 22 26 24 62 l1 47 4 -40
c6 -55 18 -65 74 -65 l48 0 4 63 3 62 2 -62 c2 -55 5 -63 21 -63 15 0 18 5 14
21 -4 15 0 27 12 35 16 12 17 26 13 141 -6 151 -15 179 -57 188 -17 4 -31 11
-31 16 0 15 -16 10 -33 -9z"/>
<path d="M5950 6889 c-74 -9 -136 -18 -137 -18 -12 -5 -48 -72 -54 -102 -11
-49 5 -119 27 -119 8 0 12 -5 9 -10 -11 -18 15 -40 47 -40 17 0 31 -6 35 -15
8 -22 2 -26 -61 -32 l-56 -6 0 -57 0 -57 58 1 c62 2 109 23 118 54 3 9 10 25
15 34 13 25 11 55 -3 61 -10 4 -10 6 0 6 18 1 15 36 -8 80 -23 45 -31 50 -90
46 -25 -2 -39 -1 -32 2 6 2 12 11 12 19 0 16 7 17 160 37 84 11 117 12 122 4
8 -14 -9 -37 -28 -37 -78 0 -131 -136 -91 -233 23 -54 38 -60 122 -52 71 6 75
8 75 31 0 23 -1 24 -74 18 -72 -7 -74 -6 -91 20 -25 37 -16 123 15 148 12 10
32 18 45 18 33 0 55 31 55 78 0 60 -20 76 -88 67 -30 -4 -61 -9 -69 -12 -7 -3
-13 1 -13 10 0 15 57 27 126 27 43 0 64 -30 64 -91 0 -57 -26 -94 -73 -103
-37 -7 -57 -37 -57 -85 0 -48 27 -62 96 -51 32 6 60 10 62 10 1 0 2 11 2 25 0
28 -5 29 -82 16 -42 -7 -48 -6 -48 9 0 12 11 20 33 24 62 12 97 70 97 161 0
88 -28 136 -78 134 -15 -1 -88 -10 -162 -20z"/>
<path d="M12530 6098 c-96 -5 -181 -11 -187 -13 -10 -3 -13 -42 -13 -145 l0
-141 68 5 c37 3 142 8 235 12 l167 6 0 144 0 144 -47 -2 c-27 0 -127 -5 -223
-10z m123 -115 c-3 -49 -6 -94 -8 -100 -3 -8 -22 -13 -50 -13 -43 0 -45 1 -45
30 0 29 -2 30 -45 30 -49 0 -62 -16 -17 -23 19 -3 14 -5 -18 -7 -25 -1 -49 -2
-53 -1 -5 1 -11 -8 -14 -19 -4 -16 -12 -20 -32 -18 -14 2 -25 6 -23 11 1 4 2
45 2 91 l0 84 131 1 c73 1 139 6 148 11 9 5 19 10 22 10 3 0 4 -39 2 -87z"/>
<path d="M5473 5503 l-53 -4 1 -137 c0 -75 4 -157 9 -182 6 -30 8 13 5 131
l-3 176 82 7 c44 3 111 6 149 6 66 0 67 0 67 -27 l0 -28 -112 3 c-62 2 -124
-1 -138 -7 -19 -7 9 -10 111 -10 l137 -1 7 -146 c4 -80 10 -142 14 -136 3 5 4
88 1 183 l-5 174 -110 1 c-60 0 -134 -1 -162 -3z"/>
<path d="M12090 5313 c0 -12 5 -34 10 -49 6 -14 15 -54 20 -88 5 -33 20 -113
33 -176 14 -63 28 -144 31 -180 4 -36 11 -78 16 -95 5 -16 11 -48 13 -70 14
-126 51 -411 54 -414 6 -8 16 8 18 31 2 13 9 69 15 125 14 114 2 311 -27 439
-8 38 -17 83 -20 99 -3 17 -11 44 -19 62 -8 17 -14 36 -14 42 0 6 -4 19 -9 29
-13 26 -40 95 -43 112 -2 8 -5 17 -9 20 -3 3 -19 34 -37 70 -20 41 -31 57 -32
43z"/>
<path d="M9842 4308 c-17 -56 -43 -156 -57 -221 -15 -65 -33 -139 -40 -165
-17 -56 -19 -110 -4 -148 7 -19 7 -43 0 -74 -24 -111 -24 -108 17 -114 20 -3
67 -8 105 -12 60 -6 67 -4 67 12 0 9 3 15 6 11 3 -3 3 -19 -1 -36 -5 -25 -12
-31 -33 -32 l-27 -1 30 -9 c45 -13 75 11 74 59 -1 20 4 49 10 65 7 18 7 27 0
27 -6 0 -1 13 10 29 11 15 23 48 26 72 4 24 8 54 11 67 2 12 0 22 -6 22 -5 0
-10 -20 -10 -44 0 -66 -5 -73 -53 -70 -51 2 -55 13 -33 88 28 97 13 299 -37
489 l-23 89 -32 -104z"/>
<path d="M2947 3643 c-30 -54 -93 -170 -142 -258 -48 -88 -105 -189 -125 -225
-65 -112 -81 -148 -69 -155 6 -4 12 -5 13 -4 5 6 105 188 153 279 43 81 93
170 100 179 2 2 6 2 9 -1 3 -4 -31 -71 -75 -151 -45 -80 -81 -149 -81 -153 1
-12 69 94 81 125 6 14 18 31 28 38 41 28 241 343 241 379 0 8 -60 44 -75 44
-2 0 -28 -44 -58 -97z"/>
<path d="M3360 3223 c-16 -27 -30 -53 -30 -60 0 -16 88 -83 110 -83 26 0 33
28 15 62 -11 24 -12 29 -1 25 15 -6 36 11 36 28 -1 9 -83 75 -95 75 -3 0 -18
-21 -35 -47z"/>
<path d="M5510 3148 c-25 -29 -89 -101 -142 -160 -54 -60 -98 -114 -98 -121 0
-18 27 -56 91 -128 31 -35 80 -93 110 -129 29 -36 56 -67 59 -70 3 -3 75 -84
160 -180 84 -96 160 -178 169 -182 13 -5 13 -7 2 -7 -12 -1 -12 -4 -3 -13 9
-9 16 -8 30 5 10 9 26 17 35 17 9 0 19 5 22 10 4 6 -8 10 -29 10 -27 0 -34 3
-30 15 4 8 12 15 18 15 7 0 18 11 24 25 17 36 14 45 -3 15 -8 -14 -15 -20 -15
-15 0 14 93 196 98 190 2 -2 -8 -25 -22 -51 -14 -26 -24 -49 -22 -52 9 -8 67
119 60 130 -4 7 -3 8 4 4 7 -4 14 3 18 19 6 25 48 55 77 55 8 0 20 -6 27 -14
15 -19 39 -10 37 14 -1 17 -8 18 -59 13 -37 -3 -58 -1 -58 5 0 6 5 14 10 17
18 11 11 23 -67 115 -43 50 -112 131 -153 180 -130 154 -283 320 -294 320 -6
0 -31 -24 -56 -52z m170 -112 c0 -8 -6 -19 -14 -25 -12 -10 -13 -8 -9 8 6 24
-3 27 -23 7 -19 -19 -18 -33 5 -58 25 -26 53 -18 48 14 -2 13 -2 17 0 10 4
-10 8 -10 18 -2 11 9 22 2 52 -32 21 -23 48 -53 60 -65 12 -12 28 -31 35 -42
16 -22 97 -117 138 -161 16 -17 32 -30 38 -30 5 0 13 -7 16 -16 3 -8 2 -12 -4
-9 -6 3 -13 -2 -17 -12 -4 -10 -21 -40 -38 -68 -17 -27 -60 -107 -95 -177 -36
-71 -68 -128 -73 -128 -5 0 -5 10 -2 22 6 17 4 20 -9 15 -9 -4 -16 -2 -16 4 0
16 -61 88 -72 86 -6 -1 -12 5 -13 15 -4 24 -46 77 -67 84 -10 3 -18 11 -18 19
0 7 -3 15 -7 17 -5 2 -15 17 -23 33 -9 17 -25 31 -38 33 -12 2 -22 8 -22 13 0
5 -13 23 -30 41 -33 34 -37 50 -16 67 12 10 11 17 -7 46 -25 39 -35 42 -52 18
-11 -15 -15 -14 -39 10 -14 14 -26 21 -26 15 0 -18 -14 1 -17 24 -4 25 25 64
107 147 33 33 60 65 60 69 0 5 10 20 23 34 47 54 57 69 52 81 -4 7 16 -12 44
-41 28 -29 51 -59 51 -66z"/>
<path d="M1175 2638 c-27 -4 -75 -14 -105 -22 l-55 -15 52 5 c64 7 58 24 72
-226 17 -309 21 -388 27 -565 8 -258 17 -360 32 -361 23 -3 24 -4 12 -19 -11
-13 -8 -15 18 -15 22 0 35 7 43 23 18 34 79 88 85 74 2 -7 5 -68 7 -136 l3
-124 -38 -27 c-21 -15 -58 -33 -83 -39 -43 -11 -45 -13 -45 -49 1 -20 7 -48
15 -62 14 -25 14 -25 15 -2 0 13 6 22 16 22 11 0 15 -9 13 -32 -1 -18 1 -44 5
-56 6 -19 3 -27 -16 -40 -12 -9 -26 -16 -30 -14 -11 3 -10 -45 8 -382 15 -288
15 -299 -3 -315 -10 -10 -30 -23 -45 -29 -23 -10 -28 -9 -28 3 0 8 -7 15 -16
15 -8 0 -117 -43 -242 -96 -125 -53 -256 -108 -292 -123 l-64 -26 468 -3 c258
-1 472 0 475 4 3 3 8 324 11 712 3 389 9 713 14 720 13 22 16 382 2 382 -8 0
-8 2 0 8 17 11 39 148 27 164 -6 7 -16 69 -23 138 -7 69 -18 131 -23 138 -8
10 -7 16 4 23 10 7 4 9 -20 7 -22 -2 -36 2 -39 11 -3 9 1 11 17 6 16 -5 20 -3
15 9 -3 9 -10 16 -15 16 -19 0 -8 28 13 33 27 8 20 16 -15 19 -14 1 -23 6 -21
10 3 4 12 4 20 1 13 -5 15 2 11 36 -3 36 -7 44 -19 40 -2 0 -11 -2 -21 -4 -11
-2 -20 -5 -21 -7 -2 -2 5 -57 14 -123 10 -66 25 -181 35 -255 31 -249 35 -273
47 -288 11 -13 9 -14 -22 -8 -19 4 -57 9 -85 12 -71 8 -83 13 -65 24 10 7 11
10 3 10 -17 0 -11 59 7 70 10 6 9 9 -1 13 -9 3 -5 6 7 6 30 1 38 -25 11 -34
l-22 -8 21 -4 c15 -3 24 -14 28 -35 8 -40 19 -29 21 20 1 26 -4 41 -18 51 -15
11 -16 15 -6 23 9 6 3 7 -18 3 -26 -5 -33 -3 -33 10 0 8 10 19 22 24 l22 8
-22 5 c-19 5 -20 12 -17 79 1 41 -1 79 -7 86 -6 7 -5 14 2 18 8 5 8 11 -1 21
-9 11 -9 17 0 28 9 10 9 20 0 40 -7 14 -16 26 -20 26 -4 0 -13 15 -20 34 -7
19 -23 40 -36 47 -13 7 -23 19 -23 28 0 11 3 12 11 4 13 -13 42 -6 33 8 -3 5
4 9 15 9 10 0 22 -6 24 -12 3 -7 6 0 6 15 1 24 -2 27 -19 22 -12 -4 -29 1 -42
10 -23 17 -23 17 13 13 30 -3 35 -1 37 19 1 19 -4 23 -26 24 -20 1 -22 2 -7 6
11 3 25 10 30 15 7 7 -7 9 -42 5 -41 -5 -53 -3 -53 7 0 16 22 26 55 26 13 0
26 4 29 9 3 4 -13 7 -35 6 -64 -4 -66 31 -1 38 18 2 34 7 37 10 3 4 2 5 -1 3
-3 -2 -18 -1 -32 3 -15 4 -49 4 -77 -1z"/>
<path d="M4995 2493 c-101 -23 -120 -32 -250 -110 -77 -48 -150 -91 -162 -97
-33 -16 -28 -34 12 -42 52 -10 55 -26 4 -21 -45 4 -128 36 -96 37 21 0 23 30
2 30 -8 0 -15 7 -15 15 0 19 -5 19 -36 -2 -19 -12 -22 -18 -12 -24 9 -6 5 -9
-12 -9 -31 -1 -82 -37 -60 -43 8 -2 52 -16 98 -30 l82 -27 62 31 c43 22 76 31
108 31 39 0 235 -35 340 -61 19 -5 47 -12 63 -15 l27 -6 0 159 c0 159 -8 212
-32 210 -7 0 -62 -12 -123 -26z"/>
<path d="M3128 2313 c18 -7 15 -26 -8 -51 l-21 -22 26 0 c16 0 28 -7 31 -17 7
-22 63 -160 77 -190 19 -41 121 -21 263 50 l86 43 -38 31 c-22 17 -79 56 -128
87 -77 48 -97 56 -138 56 -26 0 -48 5 -48 10 0 6 -7 10 -15 10 -8 0 -15 -6
-15 -12 0 -8 -3 -9 -8 -3 -4 6 -23 10 -42 11 -19 1 -29 -1 -22 -3z"/>
<path d="M5985 2085 c-8 -14 -15 -15 -39 -5 -26 9 -27 9 -16 -5 7 -8 27 -15
45 -15 19 0 35 -5 37 -12 3 -9 12 -9 38 0 46 16 129 15 179 -3 34 -12 52 -12
92 -4 46 10 55 9 102 -15 53 -26 79 -25 40 1 -18 12 -20 18 -10 33 6 11 9 22
6 24 -3 3 -109 8 -235 12 -205 5 -230 4 -239 -11z"/>
<path d="M6152 1789 c2 -54 7 -101 11 -105 3 -4 14 -1 23 7 14 12 14 14 -2 26
-17 12 -17 13 -1 13 10 0 29 -7 42 -16 25 -16 25 -16 31 15 5 26 11 31 34 31
16 0 31 6 33 13 3 6 6 -1 7 -18 l1 -30 16 23 c22 31 33 27 33 -12 0 -36 -7
-39 -52 -21 -11 4 -18 3 -18 -5 0 -20 29 -42 52 -38 21 3 23 9 26 81 3 85 1
88 -59 63 -19 -8 -59 -21 -89 -30 l-55 -16 28 21 c15 11 27 28 27 36 0 13 8
15 45 10 77 -11 49 7 -46 29 l-91 21 4 -98z"/>
<path d="M1559 1858 c-2 -54 3 -200 10 -228 4 -19 4 -48 0 -65 -6 -27 -7 -28
-8 -5 -2 35 -12 70 -20 70 -4 0 -8 -55 -9 -122 -7 -573 -7 -757 0 -723 10 55
20 195 24 345 2 69 7 147 11 175 5 27 4 80 -1 117 -8 59 -7 73 7 98 24 40 32
336 9 345 -20 7 -22 7 -23 -7z"/>
<path d="M5821 1216 c-18 -13 -39 -33 -48 -43 -8 -10 -12 -12 -8 -6 3 8 -6 6
-24 -5 -16 -9 -28 -18 -26 -21 10 -9 -116 -80 -132 -75 -15 5 -16 4 -3 -5 15
-11 13 -12 -22 -15 -7 -1 -19 -8 -26 -16 -10 -11 -12 -11 -6 -1 5 9 3 12 -5 7
-6 -4 -9 -11 -6 -16 3 -5 -5 -12 -17 -16 -13 -4 -23 -6 -23 -4 0 2 -10 -2 -23
-9 -13 -7 -20 -17 -16 -23 5 -7 1 -9 -9 -5 -10 3 -17 2 -17 -4 0 -6 -5 -7 -12
-3 -7 4 -8 3 -4 -4 4 -7 -8 -15 -31 -21 -49 -14 -165 -85 -155 -96 4 -5 1 -5
-6 -1 -7 4 -33 -4 -58 -18 -67 -37 -75 -36 -204 21 -239 108 -464 203 -478
203 -6 0 -16 8 -21 18 -7 12 -10 13 -11 3 0 -8 8 -20 17 -27 46 -33 -11 -22
-158 30 -89 32 -164 55 -167 52 -3 -3 -3 -8 -1 -10 12 -11 348 -129 374 -131
26 -2 151 -47 210 -75 11 -6 38 -16 60 -24 22 -7 104 -41 183 -75 l143 -62 30
18 c16 10 156 94 311 187 466 278 450 268 431 287 -5 5 -22 0 -42 -15z"/>
<path d="M5510 901 c-389 -156 -430 -175 -430 -199 0 -11 13 -25 33 -35 17
-10 68 -42 112 -73 63 -44 85 -54 107 -50 15 3 30 1 33 -4 7 -12 -39 -24 -65
-17 -11 3 -18 1 -14 -4 13 -22 79 -6 191 45 65 29 131 56 147 60 16 4 58 20
92 37 35 16 68 29 73 29 19 0 22 20 6 49 -8 17 -15 39 -15 51 0 18 -5 20 -37
18 -32 -3 -38 0 -41 18 -4 26 43 84 67 84 9 0 22 -5 28 -11 9 -9 21 -4 48 19
19 18 47 35 60 38 14 3 22 10 19 15 -8 14 -81 49 -101 49 -10 0 -151 -54 -313
-119z"/>
<path d="M7720 956 c-47 -7 -96 -18 -110 -24 -31 -14 -8 -15 45 -2 54 14 188
2 181 -15 -3 -9 8 -15 32 -20 20 -3 60 -13 87 -20 28 -8 95 -24 150 -35 94
-20 125 -30 167 -51 25 -12 28 -11 21 6 -5 13 -2 14 21 4 14 -7 29 -9 32 -6
12 12 -20 39 -87 72 -83 42 -126 36 -95 -13 6 -10 2 -13 -15 -10 -16 2 -24 10
-24 23 0 11 -4 26 -9 34 -7 11 -3 13 20 7 62 -14 -6 15 -79 33 -100 26 -234
33 -337 17z"/>
<path d="M1630 909 c0 -30 -4 -59 -10 -65 -6 -6 -6 -21 3 -43 10 -29 10 -34
-6 -46 -13 -9 -15 -15 -6 -20 8 -6 10 -29 4 -84 -4 -42 -9 -105 -11 -140 -2
-35 -8 -78 -14 -95 -5 -17 -12 -83 -15 -146 -2 -63 -7 -150 -11 -192 l-6 -78
97 0 97 0 -7 77 c-3 43 -15 97 -26 120 -17 35 -20 59 -17 158 3 115 3 117 -24
140 -26 22 -26 24 -26 151 0 162 -7 302 -16 311 -3 3 -6 -18 -6 -48z"/>
<path d="M6750 381 c0 -6 5 -13 10 -16 15 -9 12 -35 -4 -35 -8 0 -21 8 -28 18
-7 11 -21 19 -31 19 -14 0 -16 -6 -11 -36 8 -44 12 -50 24 -31 8 13 10 12 10
-2 0 -10 9 -18 23 -20 14 -2 21 -9 21 -20 -1 -12 8 -19 31 -24 62 -11 69 -5
81 71 7 39 10 73 7 78 -6 10 -133 9 -133 -2z"/>
<path d="M8060 59 c-195 -61 -197 -56 28 -57 195 -1 202 0 180 16 -40 30 -104
72 -109 71 -2 0 -47 -14 -99 -30z"/>
</g>
</svg>
